<svg xmlns="http://www.w3.org/2000/svg" aria-hidden="true" style="width:0;height:0;position:absolute;overflow:hidden"><defs><symbol id="icon-arrow" viewBox="0 0 32 32"><path d="m19.414 27.414 10-10a2 2 0 0 0 0-2.828l-10-10a2 2 0 1 0-2.828 2.828L23.172 14H4a2 2 0 1 0 0 4h19.172l-6.586 6.586c-.39.39-.586.902-.586 1.414s.195 1.024.586 1.414a2 2 0 0 0 2.828 0z"/></symbol><symbol id="icon-facebook" viewBox="0 0 32 32"><path d="M19 6h5V0h-5c-3.86 0-7 3.14-7 7v3H8v6h4v16h6V16h5l1-6h-6V7c0-.542.458-1 1-1z"/></symbol><symbol id="icon-instagram" viewBox="0 0 32 32"><path d="M16 2.881c4.275 0 4.781.019 6.462.094 1.563.069 2.406.331 2.969.55a4.952 4.952 0 0 1 1.837 1.194 5.015 5.015 0 0 1 1.2 1.838c.219.563.481 1.412.55 2.969.075 1.688.094 2.194.094 6.463s-.019 4.781-.094 6.463c-.069 1.563-.331 2.406-.55 2.969a4.94 4.94 0 0 1-1.194 1.837 5.02 5.02 0 0 1-1.837 1.2c-.563.219-1.413.481-2.969.55-1.688.075-2.194.094-6.463.094s-4.781-.019-6.463-.094c-1.563-.069-2.406-.331-2.969-.55a4.952 4.952 0 0 1-1.838-1.194 5.02 5.02 0 0 1-1.2-1.837c-.219-.563-.481-1.413-.55-2.969-.075-1.688-.094-2.194-.094-6.463s.019-4.781.094-6.463c.069-1.563.331-2.406.55-2.969a4.964 4.964 0 0 1 1.194-1.838 5.015 5.015 0 0 1 1.838-1.2c.563-.219 1.412-.481 2.969-.55 1.681-.075 2.188-.094 6.463-.094zM16 0c-4.344 0-4.887.019-6.594.094-1.7.075-2.869.35-3.881.744-1.056.412-1.95.956-2.837 1.85a7.833 7.833 0 0 0-1.85 2.831C.444 6.538.169 7.7.094 9.4.019 11.113 0 11.656 0 16s.019 4.887.094 6.594c.075 1.7.35 2.869.744 3.881.413 1.056.956 1.95 1.85 2.837a7.82 7.82 0 0 0 2.831 1.844c1.019.394 2.181.669 3.881.744 1.706.075 2.25.094 6.594.094s4.888-.019 6.594-.094c1.7-.075 2.869-.35 3.881-.744 1.05-.406 1.944-.956 2.831-1.844s1.438-1.781 1.844-2.831c.394-1.019.669-2.181.744-3.881.075-1.706.094-2.25.094-6.594s-.019-4.887-.094-6.594c-.075-1.7-.35-2.869-.744-3.881a7.506 7.506 0 0 0-1.831-2.844A7.82 7.82 0 0 0 26.482.843C25.463.449 24.301.174 22.601.099c-1.712-.081-2.256-.1-6.6-.1z"/><path d="M16 7.781c-4.537 0-8.219 3.681-8.219 8.219s3.681 8.219 8.219 8.219 8.219-3.681 8.219-8.219A8.221 8.221 0 0 0 16 7.781zm0 13.55a5.331 5.331 0 1 1 0-10.663 5.331 5.331 0 0 1 0 10.663zM26.462 7.456a1.919 1.919 0 1 1-3.838 0 1.919 1.919 0 0 1 3.838 0z"/></symbol><symbol id="icon-youtube" viewBox="0 0 32 32"><path d="M31.681 9.6s-.313-2.206-1.275-3.175C29.187 5.15 27.825 5.144 27.2 5.069c-4.475-.325-11.194-.325-11.194-.325h-.012s-6.719 0-11.194.325c-.625.075-1.987.081-3.206 1.356C.631 7.394.325 9.6.325 9.6s-.319 2.588-.319 5.181v2.425c0 2.587.319 5.181.319 5.181s.313 2.206 1.269 3.175c1.219 1.275 2.819 1.231 3.531 1.369 2.563.244 10.881.319 10.881.319s6.725-.012 11.2-.331c.625-.075 1.988-.081 3.206-1.356.962-.969 1.275-3.175 1.275-3.175s.319-2.587.319-5.181v-2.425c-.006-2.588-.325-5.181-.325-5.181zM12.694 20.15v-8.994l8.644 4.513-8.644 4.481z"/></symbol><symbol id="icon-logo" viewBox="0 0 114 32"><path fill="#ff3c42" style="fill:var(--color1,#ff3c42)" d="M23.04 0H8.791A8.79 8.79 0 0 0 0 8.791v14.268c0 4.838 3.934 8.791 8.791 8.791h14.268c4.838 0 8.791-3.934 8.791-8.791V8.791C31.831 3.935 27.878 0 23.041 0zm5.967 23.04a5.969 5.969 0 0 1-5.967 5.967H8.791a5.969 5.969 0 0 1-5.967-5.967V8.791a5.969 5.969 0 0 1 5.967-5.967h14.268a5.969 5.969 0 0 1 5.967 5.967V23.04h-.019z"/><path fill="#ff3c42" style="fill:var(--color1,#ff3c42)" d="M15.906 7.718c-4.518 0-8.188 3.671-8.188 8.188s3.671 8.207 8.207 8.207 8.207-3.671 8.207-8.207a8.226 8.226 0 0 0-8.226-8.188zm0 13.571c-2.955 0-5.384-2.409-5.384-5.384.019-2.955 2.428-5.365 5.384-5.365s5.384 2.409 5.384 5.384c0 2.955-2.409 5.365-5.384 5.365zM24.452 5.327c-.546 0-1.073.226-1.468.602s-.602.922-.602 1.468c0 .546.226 1.073.602 1.468.376.376.922.602 1.468.602s1.073-.226 1.468-.602.602-.922.602-1.468-.226-1.073-.602-1.468-.922-.602-1.468-.602z"/><path fill="#3f3631" style="fill:var(--color2,#3f3631)" d="M43.539 15.624H40.64V3.577h2.899zm4.612-8.942.094 1.054c.621-.809 1.468-1.224 2.56-1.224.941 0 1.619.282 2.089.828.452.565.696 1.393.715 2.522v5.76h-2.805V9.975c0-.452-.094-.791-.282-.998s-.508-.32-.998-.32c-.546 0-.96.207-1.224.64v6.325h-2.786V6.681h2.635zm11.858 6.419c0-.245-.132-.433-.376-.565s-.715-.301-1.412-.452c-.696-.151-1.261-.358-1.713-.602s-.791-.565-1.035-.922a2.122 2.122 0 0 1-.358-1.224c0-.828.339-1.506 1.016-2.033s1.562-.791 2.673-.791c1.186 0 2.127.264 2.842.809s1.073 1.242 1.073 2.108h-2.805c0-.715-.376-1.073-1.129-1.073-.301 0-.546.075-.734.245s-.301.358-.301.602c0 .245.113.452.358.602s.621.282 1.167.376c.527.094.998.226 1.393.358 1.336.471 2.014 1.299 2.014 2.485 0 .809-.358 1.487-1.092 1.995s-1.656.772-2.824.772c-.772 0-1.449-.132-2.052-.414s-1.073-.659-1.412-1.129c-.339-.471-.508-.979-.508-1.506h2.598c.019.414.151.715.414.904s.602.282 1.016.282c.376 0 .659-.075.847-.226.245-.151.339-.339.339-.602zm7.398-8.659v2.221h1.468v1.939h-1.468v4.104c0 .339.056.565.188.696s.358.207.715.207c.282 0 .508-.019.696-.056v1.995a5.403 5.403 0 0 1-1.562.245c-.96 0-1.675-.226-2.127-.678s-.678-1.129-.678-2.052V8.602h-1.148v-1.92h1.148v-2.24h2.767zm7.774 11.182a3.42 3.42 0 0 1-.264-.809c-.508.64-1.224.96-2.146.96-.847 0-1.562-.264-2.146-.772s-.885-1.148-.885-1.92c0-.979.358-1.713 1.073-2.202s1.751-.753 3.125-.753h.866v-.471c0-.828-.358-1.242-1.073-1.242-.659 0-.998.32-.998.979h-2.786c0-.866.376-1.562 1.111-2.108s1.675-.809 2.824-.809 2.052.282 2.711.828c.659.546.998 1.318 1.016 2.296v3.953c.019.828.132 1.449.376 1.882v.188H75.18zm-1.732-1.826c.339 0 .64-.075.866-.226s.395-.32.489-.508v-1.431h-.809c-.979 0-1.449.433-1.449 1.299a.85.85 0 0 0 .264.621c.151.169.376.245.64.245z"/><path fill="#ff3c42" style="fill:var(--color1,#ff3c42)" d="M79.605 14.456c0-.376.132-.696.376-.922s.584-.358.96-.358c.395 0 .715.113.979.358s.376.546.376.922-.132.678-.376.922c-.245.226-.584.358-.979.358s-.715-.113-.96-.358a1.247 1.247 0 0 1-.376-.922z"/><path fill="#3f3631" style="fill:var(--color2,#3f3631)" d="M93.289 5.816h-3.614v9.807h-2.899V5.816h-3.558v-2.24h10.071zm6.137 3.389-.922-.075c-.885 0-1.431.282-1.694.828v5.666h-2.786V6.683h2.616l.094 1.148c.471-.885 1.129-1.318 1.958-1.318.301 0 .565.038.772.094l-.038 2.598zm1.167-4.838c0-.395.151-.715.433-.979.282-.245.659-.376 1.111-.376s.828.132 1.111.376.433.584.433.979-.151.715-.433.979c-.282.245-.659.376-1.111.376s-.828-.132-1.111-.376c-.301-.264-.433-.584-.433-.979zm2.955 11.257h-2.805V6.683h2.805v8.941zm10.203-4.405c0 1.393-.32 2.504-.941 3.332s-1.468 1.242-2.541 1.242c-.828 0-1.506-.301-2.033-.904v4.179h-2.786V6.682h2.598l.075.828c.527-.659 1.242-.998 2.108-.998 1.111 0 1.958.414 2.579 1.224s.922 1.939.922 3.351v.132h.019zm-2.805-.17c0-1.581-.471-2.391-1.393-2.391-.659 0-1.111.245-1.318.715v3.52c.245.489.696.753 1.336.753.885 0 1.336-.772 1.374-2.296v-.301z"/><path style="fill:var(--color3,#000)" d="M40.179 23.759h.639v3.723h-.639v-3.723zm0-1.407h.639v.712h-.639v-.712zm1.589 1.39h.597v.531c.177-.219.364-.376.562-.472s.418-.143.66-.143c.531 0 .889.185 1.076.555.103.203.154.492.154.87v2.399h-.639v-2.357c0-.228-.034-.412-.101-.552-.112-.233-.314-.349-.608-.349-.149 0-.271.015-.367.046a.946.946 0 0 0-.454.307c-.105.123-.173.251-.204.383s-.047.32-.047.564v1.959h-.629v-3.741zm4.352 2.567c.019.209.071.37.157.482.158.203.433.304.824.304.233 0 .438-.051.615-.152s.265-.258.265-.47a.402.402 0 0 0-.213-.367 2.35 2.35 0 0 0-.482-.164l-.555-.14c-.319-.079-.554-.168-.706-.265-.27-.17-.405-.405-.405-.706 0-.354.128-.64.383-.859s.598-.328 1.029-.328c.563 0 .97.165 1.219.496.156.209.232.435.227.678h-.594a.726.726 0 0 0-.151-.389l.001.002c-.144-.165-.395-.248-.751-.248-.237 0-.417.045-.539.136s-.183.211-.183.36c0 .163.08.293.241.391.093.058.231.109.412.154l.416.101c.452.11.754.215.908.318.245.161.367.413.367.758 0 .333-.126.621-.379.863s-.637.363-1.154.363c-.557 0-.951-.126-1.182-.379s-.356-.565-.372-.938h.604zm3.328-3.612h.636v1.044h.597v.513h-.597v2.441c0 .13.044.218.133.262a.56.56 0 0 0 .245.038l.063-.001.034-.001c.046-.002.089-.005.131-.01l-.008.001v.496c-.064.019-.14.035-.219.045l-.007.001a2.204 2.204 0 0 1-.253.014c-.293 0-.492-.075-.597-.225s-.157-.345-.157-.585v-2.476h-.506v-.513h.506v-1.044zm2.344 3.79c0 .182.066.325.199.43s.29.157.472.157c.234 0 .456-.057.651-.157l-.008.004c.349-.17.524-.448.524-.835v-.506c-.077.049-.176.09-.297.122-.099.028-.22.053-.344.068l-.012.001-.381.049c-.228.03-.399.078-.513.143-.193.11-.29.284-.29.524zm1.522-1.271c.144-.019.241-.079.29-.182a.551.551 0 0 0 .042-.241c0-.214-.076-.37-.229-.466s-.371-.145-.655-.145c-.328 0-.561.088-.698.265-.077.098-.127.243-.15.437h-.587c.012-.461.161-.782.449-.962s.621-.27 1.001-.27c.44 0 .798.084 1.072.251.273.168.409.428.409.782v2.155c0 .065.013.118.04.157s.083.059.169.059a1.122 1.122 0 0 0 .215-.022l-.009.001v.465l-.078.021c-.06.016-.109.026-.145.031a1.543 1.543 0 0 1-.187.011h-.024.001c-.216 0-.374-.077-.471-.231a.893.893 0 0 1-.108-.346c-.128.168-.312.313-.552.437s-.504.185-.793.185c-.347 0-.631-.105-.85-.316s-.33-.474-.33-.791c0-.347.108-.616.325-.807s.501-.309.852-.353l1.002-.126zm3.294-1.541c.294 0 .55.072.768.216.119.082.24.2.363.356v-.472h.58v3.402c0 .475-.07.85-.209 1.125-.261.508-.753.761-1.477.761-.403 0-.742-.09-1.016-.271s-.428-.463-.461-.847h.639c.03.168.091.297.182.388.142.14.366.21.671.21.482 0 .797-.17.946-.51.088-.2.129-.558.122-1.072-.126.191-.277.333-.454.426s-.411.14-.702.14c-.405 0-.76-.144-1.064-.431s-.456-.763-.456-1.427c0-.626.153-1.115.459-1.467s.676-.527 1.109-.527zm1.132 1.921c0-.463-.095-.807-.286-1.03s-.434-.335-.73-.335c-.442 0-.745.207-.908.622-.086.221-.129.511-.129.87 0 .422.086.742.257.962s.401.33.69.33c.452 0 .77-.204.954-.611.102-.231.154-.5.154-.807zm1.543-1.854h.597v.646c.049-.126.169-.279.36-.459s.411-.271.66-.271l.024.001.07.006.109.011v.664a.861.861 0 0 0-.1-.014H61a1.517 1.517 0 0 0-.1-.004h-.003c-.317 0-.56.102-.73.306a1.058 1.058 0 0 0-.255.692v.012-.001 2.152h-.629v-3.741zm2.847 2.745c0 .182.066.325.199.43s.29.157.472.157c.234 0 .456-.057.651-.157l-.008.004c.349-.17.524-.448.524-.835v-.506c-.077.049-.176.09-.297.122-.1.028-.22.053-.344.068l-.012.001-.381.049c-.228.03-.399.078-.514.143-.193.11-.29.284-.29.524zm1.523-1.271c.144-.019.241-.079.29-.182a.551.551 0 0 0 .042-.241c0-.214-.076-.37-.229-.466s-.371-.145-.655-.145c-.328 0-.561.088-.698.265-.077.098-.127.243-.15.437h-.587c.012-.461.161-.782.449-.962s.621-.27 1.001-.27c.44 0 .797.084 1.072.251.272.168.409.428.409.782v2.155c0 .065.013.118.04.157s.083.059.169.059a1.122 1.122 0 0 0 .215-.022l-.009.001v.465l-.078.021c-.06.016-.109.026-.145.031a1.543 1.543 0 0 1-.187.011h-.024.001c-.216 0-.374-.077-.472-.231a.893.893 0 0 1-.108-.346c-.128.168-.312.313-.552.437s-.504.185-.793.185c-.347 0-.631-.105-.85-.316s-.33-.474-.33-.791c0-.347.108-.616.325-.807s.501-.309.852-.353l1.002-.126zm1.973-1.474h.622v.531c.149-.184.284-.318.405-.402.207-.142.442-.213.706-.213.298 0 .538.073.719.22.102.084.196.207.279.37.14-.2.304-.349.493-.445s.4-.145.636-.145c.503 0 .845.181 1.027.545.098.196.147.459.147.789v2.49h-.653v-2.599c0-.249-.062-.42-.187-.513s-.277-.14-.456-.14c-.247 0-.459.083-.637.248s-.267.441-.267.828v2.176h-.639v-2.441c0-.254-.03-.439-.091-.555-.096-.175-.274-.262-.535-.262-.237 0-.453.092-.648.276s-.292.517-.292.999v1.984h-.629v-3.741zm5.959 0h.622v.531c.149-.184.284-.318.405-.402.207-.142.442-.213.706-.213.298 0 .538.073.719.22.103.084.196.207.28.37.14-.2.304-.349.492-.445s.401-.145.636-.145c.503 0 .845.181 1.027.545.098.196.147.459.147.789v2.49h-.653v-2.599c0-.249-.062-.42-.187-.513s-.277-.14-.456-.14c-.247 0-.459.083-.637.248s-.267.441-.267.828v2.176h-.639v-2.441c0-.254-.03-.439-.091-.555-.095-.175-.274-.262-.534-.262-.238 0-.453.092-.648.276s-.292.517-.292.999v1.984h-.629v-3.741zm6.44 2.745c0 .182.066.325.199.43s.29.157.472.157c.234 0 .456-.057.651-.157l-.008.004c.349-.17.524-.448.524-.835v-.506c-.077.049-.176.09-.297.122-.1.028-.22.053-.344.068l-.012.001-.381.049c-.228.03-.399.078-.513.143-.193.11-.29.284-.29.524zm1.523-1.271c.144-.019.241-.079.29-.182a.551.551 0 0 0 .042-.241c0-.214-.076-.37-.229-.466s-.371-.145-.655-.145c-.328 0-.561.088-.698.265-.077.098-.127.243-.15.437h-.587c.012-.461.161-.782.449-.962s.621-.27 1.001-.27c.44 0 .798.084 1.072.251.272.168.408.428.408.782v2.155c0 .065.014.118.04.157s.083.059.169.059a1.122 1.122 0 0 0 .215-.022l-.009.001v.465l-.078.021c-.06.016-.109.026-.145.031a1.543 1.543 0 0 1-.187.011h-.024.001c-.216 0-.374-.077-.472-.231a.893.893 0 0 1-.108-.346c-.128.168-.312.313-.552.437s-.504.185-.793.185c-.347 0-.631-.105-.85-.316s-.33-.474-.33-.791c0-.347.108-.616.325-.807s.501-.309.852-.353l1.003-.126zm1.924-2.882h.611v1.862a1.37 1.37 0 0 1 1.103-.552h.012-.001c.466 0 .843.16 1.133.48s.435.792.435 1.416c0 .591-.143 1.083-.43 1.474s-.683.587-1.191.587a1.22 1.22 0 0 1-.719-.206 1.726 1.726 0 0 1-.374-.391v.479h-.58v-5.148zm1.635 4.712c.34 0 .594-.135.763-.405s.253-.626.253-1.069c0-.393-.084-.72-.253-.978s-.417-.388-.746-.388c-.287 0-.537.106-.753.318s-.323.561-.323 1.048c0 .351.044.637.133.856.165.412.474.618.926.618zm2.41-4.694h.629v5.131h-.629v-5.131zm3.129 1.306c.265 0 .523.062.772.187s.439.286.569.484c.126.189.21.409.251.66.037.172.056.447.056.824h-2.742c.012.379.101.684.269.913s.427.344.779.344c.328 0 .59-.108.786-.325.108-.121.19-.267.236-.429l.002-.008h.618c-.016.137-.07.291-.162.459s-.195.307-.309.414a1.465 1.465 0 0 1-.709.377 2.167 2.167 0 0 1-.513.056c-.466 0-.86-.169-1.184-.508s-.486-.813-.486-1.423c0-.601.163-1.089.489-1.464s.752-.562 1.278-.562zm1.003 1.656c-.026-.273-.085-.49-.178-.653-.172-.303-.46-.454-.863-.454-.289 0-.531.104-.727.312s-.299.473-.311.795h2.078zm3.531-2.617h.636v1.044h.597v.513h-.597v2.441c0 .13.044.218.133.262.049.026.13.038.244.038l.064-.001.034-.001c.046-.002.089-.005.131-.01l-.008.001v.496c-.064.019-.14.035-.219.045l-.007.001a2.204 2.204 0 0 1-.253.014c-.293 0-.492-.075-.597-.225s-.157-.345-.157-.585v-2.476h-.506v-.513h.506v-1.044zm3.346 4.38c.417 0 .703-.158.857-.473s.232-.666.232-1.053c0-.349-.056-.633-.168-.852-.177-.344-.482-.517-.915-.517-.384 0-.664.147-.838.44s-.262.647-.262 1.062c0 .398.087.73.262.995s.452.398.831.398zm.024-3.443c.482 0 .889.161 1.222.482s.499.794.499 1.418c0 .603-.147 1.101-.44 1.495s-.748.59-1.365.59c-.515 0-.923-.174-1.226-.522s-.454-.816-.454-1.402c0-.629.159-1.129.478-1.502s.747-.559 1.285-.559zm3.098.108v2.483c0 .191.03.347.091.468.112.223.32.335.625.335.438 0 .736-.195.894-.587.086-.21.129-.497.129-.863v-1.837h.629v3.741h-.594l.007-.552c-.081.141-.182.26-.302.358l-.002.002c-.24.196-.531.294-.873.294-.533 0-.896-.178-1.09-.535-.105-.191-.157-.446-.157-.765v-2.543h.643zm3.367 0h.597v.646c.049-.126.169-.279.36-.459s.411-.271.66-.271l.024.001.07.006.109.011v.664a.861.861 0 0 0-.1-.014h-.003a1.517 1.517 0 0 0-.1-.004h-.003c-.317 0-.56.102-.73.306a1.058 1.058 0 0 0-.255.692v.012-.001 2.152h-.629v-3.741zm2.738 2.567c.019.209.071.37.157.482.159.203.433.304.824.304.233 0 .438-.051.615-.152s.265-.258.265-.47a.402.402 0 0 0-.213-.367 2.35 2.35 0 0 0-.482-.164l-.555-.14c-.319-.079-.554-.168-.706-.265-.27-.17-.405-.405-.405-.706 0-.354.127-.64.382-.859s.598-.328 1.029-.328c.564 0 .97.165 1.219.496.156.209.232.435.227.678h-.594a.726.726 0 0 0-.151-.389l.001.002c-.144-.165-.395-.248-.751-.248-.237 0-.417.045-.539.136s-.183.211-.183.36c0 .163.08.293.241.391.093.058.231.109.412.154l.415.101c.452.11.754.215.908.318.244.161.367.413.367.758 0 .333-.126.621-.379.863s-.638.363-1.154.363c-.556 0-.951-.126-1.182-.379s-.356-.565-.372-.938h.604z"/><path fill="#888692" style="fill:var(--color4,#888692)" d="M40.179 23.759h.639v3.723h-.639v-3.723zm0-1.407h.639v.712h-.639v-.712zm1.589 1.39h.597v.531c.177-.219.364-.376.562-.472s.418-.143.66-.143c.531 0 .889.185 1.076.555.103.203.154.492.154.87v2.399h-.639v-2.357c0-.228-.034-.412-.101-.552-.112-.233-.314-.349-.608-.349-.149 0-.271.015-.367.046a.946.946 0 0 0-.454.307c-.105.123-.173.251-.204.383s-.047.32-.047.564v1.959h-.629v-3.741zm4.352 2.567c.019.209.071.37.157.482.158.203.433.304.824.304.233 0 .438-.051.615-.152s.265-.258.265-.47a.402.402 0 0 0-.213-.367 2.35 2.35 0 0 0-.482-.164l-.555-.14c-.319-.079-.554-.168-.706-.265-.27-.17-.405-.405-.405-.706 0-.354.128-.64.383-.859s.598-.328 1.029-.328c.563 0 .97.165 1.219.496.156.209.232.435.227.678h-.594a.726.726 0 0 0-.151-.389l.001.002c-.144-.165-.395-.248-.751-.248-.237 0-.417.045-.539.136s-.183.211-.183.36c0 .163.08.293.241.391.093.058.231.109.412.154l.416.101c.452.11.754.215.908.318.245.161.367.413.367.758 0 .333-.126.621-.379.863s-.637.363-1.154.363c-.557 0-.951-.126-1.182-.379s-.356-.565-.372-.938h.604zm3.328-3.612h.636v1.044h.597v.513h-.597v2.441c0 .13.044.218.133.262a.56.56 0 0 0 .245.038l.063-.001.034-.001c.046-.002.089-.005.131-.01l-.008.001v.496c-.064.019-.14.035-.219.045l-.007.001a2.204 2.204 0 0 1-.253.014c-.293 0-.492-.075-.597-.225s-.157-.345-.157-.585v-2.476h-.506v-.513h.506v-1.044zm2.344 3.79c0 .182.066.325.199.43s.29.157.472.157c.234 0 .456-.057.651-.157l-.008.004c.349-.17.524-.448.524-.835v-.506c-.077.049-.176.09-.297.122-.099.028-.22.053-.344.068l-.012.001-.381.049c-.228.03-.399.078-.513.143-.193.11-.29.284-.29.524zm1.522-1.271c.144-.019.241-.079.29-.182a.551.551 0 0 0 .042-.241c0-.214-.076-.37-.229-.466s-.371-.145-.655-.145c-.328 0-.561.088-.698.265-.077.098-.127.243-.15.437h-.587c.012-.461.161-.782.449-.962s.621-.27 1.001-.27c.44 0 .798.084 1.072.251.273.168.409.428.409.782v2.155c0 .065.013.118.04.157s.083.059.169.059a1.122 1.122 0 0 0 .215-.022l-.009.001v.465l-.078.021c-.06.016-.109.026-.145.031a1.543 1.543 0 0 1-.187.011h-.024.001c-.216 0-.374-.077-.471-.231a.893.893 0 0 1-.108-.346c-.128.168-.312.313-.552.437s-.504.185-.793.185c-.347 0-.631-.105-.85-.316s-.33-.474-.33-.791c0-.347.108-.616.325-.807s.501-.309.852-.353l1.002-.126zm3.294-1.541c.294 0 .55.072.768.216.119.082.24.2.363.356v-.472h.58v3.402c0 .475-.07.85-.209 1.125-.261.508-.753.761-1.477.761-.403 0-.742-.09-1.016-.271s-.428-.463-.461-.847h.639c.03.168.091.297.182.388.142.14.366.21.671.21.482 0 .797-.17.946-.51.088-.2.129-.558.122-1.072-.126.191-.277.333-.454.426s-.411.14-.702.14c-.405 0-.76-.144-1.064-.431s-.456-.763-.456-1.427c0-.626.153-1.115.459-1.467s.676-.527 1.109-.527zm1.132 1.921c0-.463-.095-.807-.286-1.03s-.434-.335-.73-.335c-.442 0-.745.207-.908.622-.086.221-.129.511-.129.87 0 .422.086.742.257.962s.401.33.69.33c.452 0 .77-.204.954-.611.102-.231.154-.5.154-.807zm1.543-1.854h.597v.646c.049-.126.169-.279.36-.459s.411-.271.66-.271l.024.001.07.006.109.011v.664a.861.861 0 0 0-.1-.014H61a1.517 1.517 0 0 0-.1-.004h-.003c-.317 0-.56.102-.73.306a1.058 1.058 0 0 0-.255.692v.012-.001 2.152h-.629v-3.741zm2.847 2.745c0 .182.066.325.199.43s.29.157.472.157c.234 0 .456-.057.651-.157l-.008.004c.349-.17.524-.448.524-.835v-.506c-.077.049-.176.09-.297.122-.1.028-.22.053-.344.068l-.012.001-.381.049c-.228.03-.399.078-.514.143-.193.11-.29.284-.29.524zm1.523-1.271c.144-.019.241-.079.29-.182a.551.551 0 0 0 .042-.241c0-.214-.076-.37-.229-.466s-.371-.145-.655-.145c-.328 0-.561.088-.698.265-.077.098-.127.243-.15.437h-.587c.012-.461.161-.782.449-.962s.621-.27 1.001-.27c.44 0 .797.084 1.072.251.272.168.409.428.409.782v2.155c0 .065.013.118.04.157s.083.059.169.059a1.122 1.122 0 0 0 .215-.022l-.009.001v.465l-.078.021c-.06.016-.109.026-.145.031a1.543 1.543 0 0 1-.187.011h-.024.001c-.216 0-.374-.077-.472-.231a.893.893 0 0 1-.108-.346c-.128.168-.312.313-.552.437s-.504.185-.793.185c-.347 0-.631-.105-.85-.316s-.33-.474-.33-.791c0-.347.108-.616.325-.807s.501-.309.852-.353l1.002-.126zm1.973-1.474h.622v.531c.149-.184.284-.318.405-.402.207-.142.442-.213.706-.213.298 0 .538.073.719.22.102.084.196.207.279.37.14-.2.304-.349.493-.445s.4-.145.636-.145c.503 0 .845.181 1.027.545.098.196.147.459.147.789v2.49h-.653v-2.599c0-.249-.062-.42-.187-.513s-.277-.14-.456-.14c-.247 0-.459.083-.637.248s-.267.441-.267.828v2.176h-.639v-2.441c0-.254-.03-.439-.091-.555-.096-.175-.274-.262-.535-.262-.237 0-.453.092-.648.276s-.292.517-.292.999v1.984h-.629v-3.741zm5.959 0h.622v.531c.149-.184.284-.318.405-.402.207-.142.442-.213.706-.213.298 0 .538.073.719.22.103.084.196.207.28.37.14-.2.304-.349.492-.445s.401-.145.636-.145c.503 0 .845.181 1.027.545.098.196.147.459.147.789v2.49h-.653v-2.599c0-.249-.062-.42-.187-.513s-.277-.14-.456-.14c-.247 0-.459.083-.637.248s-.267.441-.267.828v2.176h-.639v-2.441c0-.254-.03-.439-.091-.555-.095-.175-.274-.262-.534-.262-.238 0-.453.092-.648.276s-.292.517-.292.999v1.984h-.629v-3.741zm6.44 2.745c0 .182.066.325.199.43s.29.157.472.157c.234 0 .456-.057.651-.157l-.008.004c.349-.17.524-.448.524-.835v-.506c-.077.049-.176.09-.297.122-.1.028-.22.053-.344.068l-.012.001-.381.049c-.228.03-.399.078-.513.143-.193.11-.29.284-.29.524zm1.523-1.271c.144-.019.241-.079.29-.182a.551.551 0 0 0 .042-.241c0-.214-.076-.37-.229-.466s-.371-.145-.655-.145c-.328 0-.561.088-.698.265-.077.098-.127.243-.15.437h-.587c.012-.461.161-.782.449-.962s.621-.27 1.001-.27c.44 0 .798.084 1.072.251.272.168.408.428.408.782v2.155c0 .065.014.118.04.157s.083.059.169.059a1.122 1.122 0 0 0 .215-.022l-.009.001v.465l-.078.021c-.06.016-.109.026-.145.031a1.543 1.543 0 0 1-.187.011h-.024.001c-.216 0-.374-.077-.472-.231a.893.893 0 0 1-.108-.346c-.128.168-.312.313-.552.437s-.504.185-.793.185c-.347 0-.631-.105-.85-.316s-.33-.474-.33-.791c0-.347.108-.616.325-.807s.501-.309.852-.353l1.003-.126zm1.924-2.882h.611v1.862a1.37 1.37 0 0 1 1.103-.552h.012-.001c.466 0 .843.16 1.133.48s.435.792.435 1.416c0 .591-.143 1.083-.43 1.474s-.683.587-1.191.587a1.22 1.22 0 0 1-.719-.206 1.726 1.726 0 0 1-.374-.391v.479h-.58v-5.148zm1.635 4.712c.34 0 .594-.135.763-.405s.253-.626.253-1.069c0-.393-.084-.72-.253-.978s-.417-.388-.746-.388c-.287 0-.537.106-.753.318s-.323.561-.323 1.048c0 .351.044.637.133.856.165.412.474.618.926.618zm2.41-4.694h.629v5.131h-.629v-5.131zm3.129 1.306c.265 0 .523.062.772.187s.439.286.569.484c.126.189.21.409.251.66.037.172.056.447.056.824h-2.742c.012.379.101.684.269.913s.427.344.779.344c.328 0 .59-.108.786-.325.108-.121.19-.267.236-.429l.002-.008h.618c-.016.137-.07.291-.162.459s-.195.307-.309.414a1.465 1.465 0 0 1-.709.377 2.167 2.167 0 0 1-.513.056c-.466 0-.86-.169-1.184-.508s-.486-.813-.486-1.423c0-.601.163-1.089.489-1.464s.752-.562 1.278-.562zm1.003 1.656c-.026-.273-.085-.49-.178-.653-.172-.303-.46-.454-.863-.454-.289 0-.531.104-.727.312s-.299.473-.311.795h2.078zm3.531-2.617h.636v1.044h.597v.513h-.597v2.441c0 .13.044.218.133.262.049.026.13.038.244.038l.064-.001.034-.001c.046-.002.089-.005.131-.01l-.008.001v.496c-.064.019-.14.035-.219.045l-.007.001a2.204 2.204 0 0 1-.253.014c-.293 0-.492-.075-.597-.225s-.157-.345-.157-.585v-2.476h-.506v-.513h.506v-1.044zm3.346 4.38c.417 0 .703-.158.857-.473s.232-.666.232-1.053c0-.349-.056-.633-.168-.852-.177-.344-.482-.517-.915-.517-.384 0-.664.147-.838.44s-.262.647-.262 1.062c0 .398.087.73.262.995s.452.398.831.398zm.024-3.443c.482 0 .889.161 1.222.482s.499.794.499 1.418c0 .603-.147 1.101-.44 1.495s-.748.59-1.365.59c-.515 0-.923-.174-1.226-.522s-.454-.816-.454-1.402c0-.629.159-1.129.478-1.502s.747-.559 1.285-.559zm3.098.108v2.483c0 .191.03.347.091.468.112.223.32.335.625.335.438 0 .736-.195.894-.587.086-.21.129-.497.129-.863v-1.837h.629v3.741h-.594l.007-.552c-.081.141-.182.26-.302.358l-.002.002c-.24.196-.531.294-.873.294-.533 0-.896-.178-1.09-.535-.105-.191-.157-.446-.157-.765v-2.543h.643zm3.367 0h.597v.646c.049-.126.169-.279.36-.459s.411-.271.66-.271l.024.001.07.006.109.011v.664a.861.861 0 0 0-.1-.014h-.003a1.517 1.517 0 0 0-.1-.004h-.003c-.317 0-.56.102-.73.306a1.058 1.058 0 0 0-.255.692v.012-.001 2.152h-.629v-3.741zm2.738 2.567c.019.209.071.37.157.482.159.203.433.304.824.304.233 0 .438-.051.615-.152s.265-.258.265-.47a.402.402 0 0 0-.213-.367 2.35 2.35 0 0 0-.482-.164l-.555-.14c-.319-.079-.554-.168-.706-.265-.27-.17-.405-.405-.405-.706 0-.354.127-.64.382-.859s.598-.328 1.029-.328c.564 0 .97.165 1.219.496.156.209.232.435.227.678h-.594a.726.726 0 0 0-.151-.389l.001.002c-.144-.165-.395-.248-.751-.248-.237 0-.417.045-.539.136s-.183.211-.183.36c0 .163.08.293.241.391.093.058.231.109.412.154l.415.101c.452.11.754.215.908.318.244.161.367.413.367.758 0 .333-.126.621-.379.863s-.638.363-1.154.363c-.556 0-.951-.126-1.182-.379s-.356-.565-.372-.938h.604z"/></symbol></defs></svg>