<svg xmlns="http://www.w3.org/2000/svg" aria-hidden="true" style="width:0;height:0;position:absolute;overflow:hidden"><defs><symbol id="icon-arrow" viewBox="0 0 32 32"><path d="m19.414 27.414 10-10a2 2 0 0 0 0-2.828l-10-10a2 2 0 1 0-2.828 2.828L23.172 14H4a2 2 0 1 0 0 4h19.172l-6.586 6.586c-.39.39-.586.902-.586 1.414s.195 1.024.586 1.414a2 2 0 0 0 2.828 0z"/></symbol><symbol id="icon-facebook" viewBox="0 0 32 32"><path d="M19 6h5V0h-5c-3.86 0-7 3.14-7 7v3H8v6h4v16h6V16h5l1-6h-6V7c0-.542.458-1 1-1z"/></symbol><symbol id="icon-instagram" viewBox="0 0 32 32"><path d="M16 2.881c4.275 0 4.781.019 6.462.094 1.563.069 2.406.331 2.969.55a4.952 4.952 0 0 1 1.837 1.194 5.015 5.015 0 0 1 1.2 1.838c.219.563.481 1.412.55 2.969.075 1.688.094 2.194.094 6.463s-.019 4.781-.094 6.463c-.069 1.563-.331 2.406-.55 2.969a4.94 4.94 0 0 1-1.194 1.837 5.02 5.02 0 0 1-1.837 1.2c-.563.219-1.413.481-2.969.55-1.688.075-2.194.094-6.463.094s-4.781-.019-6.463-.094c-1.563-.069-2.406-.331-2.969-.55a4.952 4.952 0 0 1-1.838-1.194 5.02 5.02 0 0 1-1.2-1.837c-.219-.563-.481-1.413-.55-2.969-.075-1.688-.094-2.194-.094-6.463s.019-4.781.094-6.463c.069-1.563.331-2.406.55-2.969a4.964 4.964 0 0 1 1.194-1.838 5.015 5.015 0 0 1 1.838-1.2c.563-.219 1.412-.481 2.969-.55 1.681-.075 2.188-.094 6.463-.094zM16 0c-4.344 0-4.887.019-6.594.094-1.7.075-2.869.35-3.881.744-1.056.412-1.95.956-2.837 1.85a7.833 7.833 0 0 0-1.85 2.831C.444 6.538.169 7.7.094 9.4.019 11.113 0 11.656 0 16s.019 4.887.094 6.594c.075 1.7.35 2.869.744 3.881.413 1.056.956 1.95 1.85 2.837a7.82 7.82 0 0 0 2.831 1.844c1.019.394 2.181.669 3.881.744 1.706.075 2.25.094 6.594.094s4.888-.019 6.594-.094c1.7-.075 2.869-.35 3.881-.744 1.05-.406 1.944-.956 2.831-1.844s1.438-1.781 1.844-2.831c.394-1.019.669-2.181.744-3.881.075-1.706.094-2.25.094-6.594s-.019-4.887-.094-6.594c-.075-1.7-.35-2.869-.744-3.881a7.506 7.506 0 0 0-1.831-2.844A7.82 7.82 0 0 0 26.482.843C25.463.449 24.301.174 22.601.099c-1.712-.081-2.256-.1-6.6-.1z"/><path d="M16 7.781c-4.537 0-8.219 3.681-8.219 8.219s3.681 8.219 8.219 8.219 8.219-3.681 8.219-8.219A8.221 8.221 0 0 0 16 7.781zm0 13.55a5.331 5.331 0 1 1 0-10.663 5.331 5.331 0 0 1 0 10.663zM26.462 7.456a1.919 1.919 0 1 1-3.838 0 1.919 1.919 0 0 1 3.838 0z"/></symbol><symbol id="icon-youtube" viewBox="0 0 32 32"><path d="M31.681 9.6s-.313-2.206-1.275-3.175C29.187 5.15 27.825 5.144 27.2 5.069c-4.475-.325-11.194-.325-11.194-.325h-.012s-6.719 0-11.194.325c-.625.075-1.987.081-3.206 1.356C.631 7.394.325 9.6.325 9.6s-.319 2.588-.319 5.181v2.425c0 2.587.319 5.181.319 5.181s.313 2.206 1.269 3.175c1.219 1.275 2.819 1.231 3.531 1.369 2.563.244 10.881.319 10.881.319s6.725-.012 11.2-.331c.625-.075 1.988-.081 3.206-1.356.962-.969 1.275-3.175 1.275-3.175s.319-2.587.319-5.181v-2.425c-.006-2.588-.325-5.181-.325-5.181zM12.694 20.15v-8.994l8.644 4.513-8.644 4.481z"/></symbol><symbol id="icon-logo" viewBox="0 0 114 32"><path fill="#ff3c42" style="fill:var(--color1,#ff3c42)" d="M23.04 0H8.791A8.79 8.79 0 0 0 0 8.791v14.268c0 4.838 3.934 8.791 8.791 8.791h14.268c4.838 0 8.791-3.934 8.791-8.791V8.791C31.831 3.935 27.878 0 23.041 0zm5.967 23.04a5.969 5.969 0 0 1-5.967 5.967H8.791a5.969 5.969 0 0 1-5.967-5.967V8.791a5.969 5.969 0 0 1 5.967-5.967h14.268a5.969 5.969 0 0 1 5.967 5.967V23.04h-.019z"/><path fill="#ff3c42" style="fill:var(--color1,#ff3c42)" d="M15.906 7.718c-4.518 0-8.188 3.671-8.188 8.188s3.671 8.207 8.207 8.207 8.207-3.671 8.207-8.207a8.226 8.226 0 0 0-8.226-8.188zm0 13.571c-2.955 0-5.384-2.409-5.384-5.384.019-2.955 2.428-5.365 5.384-5.365s5.384 2.409 5.384 5.384c0 2.955-2.409 5.365-5.384 5.365zM24.452 5.327c-.546 0-1.073.226-1.468.602s-.602.922-.602 1.468c0 .546.226 1.073.602 1.468.376.376.922.602 1.468.602s1.073-.226 1.468-.602.602-.922.602-1.468-.226-1.073-.602-1.468-.922-.602-1.468-.602z"/><path fill="#3f3631" style="fill:var(--color2,#3f3631)" d="M43.539 15.624H40.64V3.577h2.899zm4.612-8.942.094 1.054c.621-.809 1.468-1.224 2.56-1.224.941 0 1.619.282 2.089.828.452.565.696 1.393.715 2.522v5.76h-2.805V9.975c0-.452-.094-.791-.282-.998s-.508-.32-.998-.32c-.546 0-.96.207-1.224.64v6.325h-2.786V6.681h2.635zm11.858 6.419c0-.245-.132-.433-.376-.565s-.715-.301-1.412-.452c-.696-.151-1.261-.358-1.713-.602s-.791-.565-1.035-.922a2.122 2.122 0 0 1-.358-1.224c0-.828.339-1.506 1.016-2.033s1.562-.791 2.673-.791c1.186 0 2.127.264 2.842.809s1.073 1.242 1.073 2.108h-2.805c0-.715-.376-1.073-1.129-1.073-.301 0-.546.075-.734.245s-.301.358-.301.602c0 .245.113.452.358.602s.621.282 1.167.376c.527.094.998.226 1.393.358 1.336.471 2.014 1.299 2.014 2.485 0 .809-.358 1.487-1.092 1.995s-1.656.772-2.824.772c-.772 0-1.449-.132-2.052-.414s-1.073-.659-1.412-1.129c-.339-.471-.508-.979-.508-1.506h2.598c.019.414.151.715.414.904s.602.282 1.016.282c.376 0 .659-.075.847-.226.245-.151.339-.339.339-.602zm7.398-8.659v2.221h1.468v1.939h-1.468v4.104c0 .339.056.565.188.696s.358.207.715.207c.282 0 .508-.019.696-.056v1.995a5.403 5.403 0 0 1-1.562.245c-.96 0-1.675-.226-2.127-.678s-.678-1.129-.678-2.052V8.602h-1.148v-1.92h1.148v-2.24h2.767zm7.774 11.182a3.42 3.42 0 0 1-.264-.809c-.508.64-1.224.96-2.146.96-.847 0-1.562-.264-2.146-.772s-.885-1.148-.885-1.92c0-.979.358-1.713 1.073-2.202s1.751-.753 3.125-.753h.866v-.471c0-.828-.358-1.242-1.073-1.242-.659 0-.998.32-.998.979h-2.786c0-.866.376-1.562 1.111-2.108s1.675-.809 2.824-.809 2.052.282 2.711.828c.659.546.998 1.318 1.016 2.296v3.953c.019.828.132 1.449.376 1.882v.188H75.18zm-1.732-1.826c.339 0 .64-.075.866-.226s.395-.32.489-.508v-1.431h-.809c-.979 0-1.449.433-1.449 1.299a.85.85 0 0 0 .264.621c.151.169.376.245.64.245z"/><path fill="#ff3c42" style="fill:var(--color1,#ff3c42)" d="M79.605 14.456c0-.376.132-.696.376-.922s.584-.358.96-.358c.395 0 .715.113.979.358s.376.546.376.922-.132.678-.376.922c-.245.226-.584.358-.979.358s-.715-.113-.96-.358a1.247 1.247 0 0 1-.376-.922z"/><path fill="#3f3631" style="fill:var(--color2,#3f3631)" d="M93.289 5.816h-3.614v9.807h-2.899V5.816h-3.558v-2.24h10.071zm6.137 3.389-.922-.075c-.885 0-1.431.282-1.694.828v5.666h-2.786V6.683h2.616l.094 1.148c.471-.885 1.129-1.318 1.958-1.318.301 0 .565.038.772.094l-.038 2.598zm1.167-4.838c0-.395.151-.715.433-.979.282-.245.659-.376 1.111-.376s.828.132 1.111.376.433.584.433.979-.151.715-.433.979c-.282.245-.659.376-1.111.376s-.828-.132-1.111-.376c-.301-.264-.433-.584-.433-.979zm2.955 11.257h-2.805V6.683h2.805v8.941zm10.203-4.405c0 1.393-.32 2.504-.941 3.332s-1.468 1.242-2.541 1.242c-.828 0-1.506-.301-2.033-.904v4.179h-2.786V6.682h2.598l.075.828c.527-.659 1.242-.998 2.108-.998 1.111 0 1.958.414 2.579 1.224s.922 1.939.922 3.351v.132h.019zm-2.805-.17c0-1.581-.471-2.391-1.393-2.391-.659 0-1.111.245-1.318.715v3.52c.245.489.696.753 1.336.753.885 0 1.336-.772 1.374-2.296v-.301z"/><path style="fill:var(--color3,#000)" d="M40.179 23.759h.639v3.723h-.639v-3.723zm0-1.407h.639v.712h-.639v-.712zm1.589 1.39h.597v.531c.177-.219.364-.376.562-.472s.418-.143.66-.143c.531 0 .889.185 1.076.555.103.203.154.492.154.87v2.399h-.639v-2.357c0-.228-.034-.412-.101-.552-.112-.233-.314-.349-.608-.349-.149 0-.271.015-.367.046a.946.946 0 0 0-.454.307c-.105.123-.173.251-.204.383s-.047.32-.047.564v1.959h-.629v-3.741zm4.352 2.567c.019.209.071.37.157.482.158.203.433.304.824.304.233 0 .438-.051.615-.152s.265-.258.265-.47a.402.402 0 0 0-.213-.367 2.35 2.35 0 0 0-.482-.164l-.555-.14c-.319-.079-.554-.168-.706-.265-.27-.17-.405-.405-.405-.706 0-.354.128-.64.383-.859s.598-.328 1.029-.328c.563 0 .97.165 1.219.496.156.209.232.435.227.678h-.594a.726.726 0 0 0-.151-.389l.001.002c-.144-.165-.395-.248-.751-.248-.237 0-.417.045-.539.136s-.183.211-.183.36c0 .163.08.293.241.391.093.058.231.109.412.154l.416.101c.452.11.754.215.908.318.245.161.367.413.367.758 0 .333-.126.621-.379.863s-.637.363-1.154.363c-.557 0-.951-.126-1.182-.379s-.356-.565-.372-.938h.604zm3.328-3.612h.636v1.044h.597v.513h-.597v2.441c0 .13.044.218.133.262a.56.56 0 0 0 .245.038l.063-.001.034-.001c.046-.002.089-.005.131-.01l-.008.001v.496c-.064.019-.14.035-.219.045l-.007.001a2.204 2.204 0 0 1-.253.014c-.293 0-.492-.075-.597-.225s-.157-.345-.157-.585v-2.476h-.506v-.513h.506v-1.044zm2.344 3.79c0 .182.066.325.199.43s.29.157.472.157c.234 0 .456-.057.651-.157l-.008.004c.349-.17.524-.448.524-.835v-.506c-.077.049-.176.09-.297.122-.099.028-.22.053-.344.068l-.012.001-.381.049c-.228.03-.399.078-.513.143-.193.11-.29.284-.29.524zm1.522-1.271c.144-.019.241-.079.29-.182a.551.551 0 0 0 .042-.241c0-.214-.076-.37-.229-.466s-.371-.145-.655-.145c-.328 0-.561.088-.698.265-.077.098-.127.243-.15.437h-.587c.012-.461.161-.782.449-.962s.621-.27 1.001-.27c.44 0 .798.084 1.072.251.273.168.409.428.409.782v2.155c0 .065.013.118.04.157s.083.059.169.059a1.122 1.122 0 0 0 .215-.022l-.009.001v.465l-.078.021c-.06.016-.109.026-.145.031a1.543 1.543 0 0 1-.187.011h-.024.001c-.216 0-.374-.077-.471-.231a.893.893 0 0 1-.108-.346c-.128.168-.312.313-.552.437s-.504.185-.793.185c-.347 0-.631-.105-.85-.316s-.33-.474-.33-.791c0-.347.108-.616.325-.807s.501-.309.852-.353l1.002-.126zm3.294-1.541c.294 0 .55.072.768.216.119.082.24.2.363.356v-.472h.58v3.402c0 .475-.07.85-.209 1.125-.261.508-.753.761-1.477.761-.403 0-.742-.09-1.016-.271s-.428-.463-.461-.847h.639c.03.168.091.297.182.388.142.14.366.21.671.21.482 0 .797-.17.946-.51.088-.2.129-.558.122-1.072-.126.191-.277.333-.454.426s-.411.14-.702.14c-.405 0-.76-.144-1.064-.431s-.456-.763-.456-1.427c0-.626.153-1.115.459-1.467s.676-.527 1.109-.527zm1.132 1.921c0-.463-.095-.807-.286-1.03s-.434-.335-.73-.335c-.442 0-.745.207-.908.622-.086.221-.129.511-.129.87 0 .422.086.742.257.962s.401.33.69.33c.452 0 .77-.204.954-.611.102-.231.154-.5.154-.807zm1.543-1.854h.597v.646c.049-.126.169-.279.36-.459s.411-.271.66-.271l.024.001.07.006.109.011v.664a.861.861 0 0 0-.1-.014H61a1.517 1.517 0 0 0-.1-.004h-.003c-.317 0-.56.102-.73.306a1.058 1.058 0 0 0-.255.692v.012-.001 2.152h-.629v-3.741zm2.847 2.745c0 .182.066.325.199.43s.29.157.472.157c.234 0 .456-.057.651-.157l-.008.004c.349-.17.524-.448.524-.835v-.506c-.077.049-.176.09-.297.122-.1.028-.22.053-.344.068l-.012.001-.381.049c-.228.03-.399.078-.514.143-.193.11-.29.284-.29.524zm1.523-1.271c.144-.019.241-.079.29-.182a.551.551 0 0 0 .042-.241c0-.214-.076-.37-.229-.466s-.371-.145-.655-.145c-.328 0-.561.088-.698.265-.077.098-.127.243-.15.437h-.587c.012-.461.161-.782.449-.962s.621-.27 1.001-.27c.44 0 .797.084 1.072.251.272.168.409.428.409.782v2.155c0 .065.013.118.04.157s.083.059.169.059a1.122 1.122 0 0 0 .215-.022l-.009.001v.465l-.078.021c-.06.016-.109.026-.145.031a1.543 1.543 0 0 1-.187.011h-.024.001c-.216 0-.374-.077-.472-.231a.893.893 0 0 1-.108-.346c-.128.168-.312.313-.552.437s-.504.185-.793.185c-.347 0-.631-.105-.85-.316s-.33-.474-.33-.791c0-.347.108-.616.325-.807s.501-.309.852-.353l1.002-.126zm1.973-1.474h.622v.531c.149-.184.284-.318.405-.402.207-.142.442-.213.706-.213.298 0 .538.073.719.22.102.084.196.207.279.37.14-.2.304-.349.493-.445s.4-.145.636-.145c.503 0 .845.181 1.027.545.098.196.147.459.147.789v2.49h-.653v-2.599c0-.249-.062-.42-.187-.513s-.277-.14-.456-.14c-.247 0-.459.083-.637.248s-.267.441-.267.828v2.176h-.639v-2.441c0-.254-.03-.439-.091-.555-.096-.175-.274-.262-.535-.262-.237 0-.453.092-.648.276s-.292.517-.292.999v1.984h-.629v-3.741zm5.959 0h.622v.531c.149-.184.284-.318.405-.402.207-.142.442-.213.706-.213.298 0 .538.073.719.22.103.084.196.207.28.37.14-.2.304-.349.492-.445s.401-.145.636-.145c.503 0 .845.181 1.027.545.098.196.147.459.147.789v2.49h-.653v-2.599c0-.249-.062-.42-.187-.513s-.277-.14-.456-.14c-.247 0-.459.083-.637.248s-.267.441-.267.828v2.176h-.639v-2.441c0-.254-.03-.439-.091-.555-.095-.175-.274-.262-.534-.262-.238 0-.453.092-.648.276s-.292.517-.292.999v1.984h-.629v-3.741zm6.44 2.745c0 .182.066.325.199.43s.29.157.472.157c.234 0 .456-.057.651-.157l-.008.004c.349-.17.524-.448.524-.835v-.506c-.077.049-.176.09-.297.122-.1.028-.22.053-.344.068l-.012.001-.381.049c-.228.03-.399.078-.513.143-.193.11-.29.284-.29.524zm1.523-1.271c.144-.019.241-.079.29-.182a.551.551 0 0 0 .042-.241c0-.214-.076-.37-.229-.466s-.371-.145-.655-.145c-.328 0-.561.088-.698.265-.077.098-.127.243-.15.437h-.587c.012-.461.161-.782.449-.962s.621-.27 1.001-.27c.44 0 .798.084 1.072.251.272.168.408.428.408.782v2.155c0 .065.014.118.04.157s.083.059.169.059a1.122 1.122 0 0 0 .215-.022l-.009.001v.465l-.078.021c-.06.016-.109.026-.145.031a1.543 1.543 0 0 1-.187.011h-.024.001c-.216 0-.374-.077-.472-.231a.893.893 0 0 1-.108-.346c-.128.168-.312.313-.552.437s-.504.185-.793.185c-.347 0-.631-.105-.85-.316s-.33-.474-.33-.791c0-.347.108-.616.325-.807s.501-.309.852-.353l1.003-.126zm1.924-2.882h.611v1.862a1.37 1.37 0 0 1 1.103-.552h.012-.001c.466 0 .843.16 1.133.48s.435.792.435 1.416c0 .591-.143 1.083-.43 1.474s-.683.587-1.191.587a1.22 1.22 0 0 1-.719-.206 1.726 1.726 0 0 1-.374-.391v.479h-.58v-5.148zm1.635 4.712c.34 0 .594-.135.763-.405s.253-.626.253-1.069c0-.393-.084-.72-.253-.978s-.417-.388-.746-.388c-.287 0-.537.106-.753.318s-.323.561-.323 1.048c0 .351.044.637.133.856.165.412.474.618.926.618zm2.41-4.694h.629v5.131h-.629v-5.131zm3.129 1.306c.265 0 .523.062.772.187s.439.286.569.484c.126.189.21.409.251.66.037.172.056.447.056.824h-2.742c.012.379.101.684.269.913s.427.344.779.344c.328 0 .59-.108.786-.325.108-.121.19-.267.236-.429l.002-.008h.618c-.016.137-.07.291-.162.459s-.195.307-.309.414a1.465 1.465 0 0 1-.709.377 2.167 2.167 0 0 1-.513.056c-.466 0-.86-.169-1.184-.508s-.486-.813-.486-1.423c0-.601.163-1.089.489-1.464s.752-.562 1.278-.562zm1.003 1.656c-.026-.273-.085-.49-.178-.653-.172-.303-.46-.454-.863-.454-.289 0-.531.104-.727.312s-.299.473-.311.795h2.078zm3.531-2.617h.636v1.044h.597v.513h-.597v2.441c0 .13.044.218.133.262.049.026.13.038.244.038l.064-.001.034-.001c.046-.002.089-.005.131-.01l-.008.001v.496c-.064.019-.14.035-.219.045l-.007.001a2.204 2.204 0 0 1-.253.014c-.293 0-.492-.075-.597-.225s-.157-.345-.157-.585v-2.476h-.506v-.513h.506v-1.044zm3.346 4.38c.417 0 .703-.158.857-.473s.232-.666.232-1.053c0-.349-.056-.633-.168-.852-.177-.344-.482-.517-.915-.517-.384 0-.664.147-.838.44s-.262.647-.262 1.062c0 .398.087.73.262.995s.452.398.831.398zm.024-3.443c.482 0 .889.161 1.222.482s.499.794.499 1.418c0 .603-.147 1.101-.44 1.495s-.748.59-1.365.59c-.515 0-.923-.174-1.226-.522s-.454-.816-.454-1.402c0-.629.159-1.129.478-1.502s.747-.559 1.285-.559zm3.098.108v2.483c0 .191.03.347.091.468.112.223.32.335.625.335.438 0 .736-.195.894-.587.086-.21.129-.497.129-.863v-1.837h.629v3.741h-.594l.007-.552c-.081.141-.182.26-.302.358l-.002.002c-.24.196-.531.294-.873.294-.533 0-.896-.178-1.09-.535-.105-.191-.157-.446-.157-.765v-2.543h.643zm3.367 0h.597v.646c.049-.126.169-.279.36-.459s.411-.271.66-.271l.024.001.07.006.109.011v.664a.861.861 0 0 0-.1-.014h-.003a1.517 1.517 0 0 0-.1-.004h-.003c-.317 0-.56.102-.73.306a1.058 1.058 0 0 0-.255.692v.012-.001 2.152h-.629v-3.741zm2.738 2.567c.019.209.071.37.157.482.159.203.433.304.824.304.233 0 .438-.051.615-.152s.265-.258.265-.47a.402.402 0 0 0-.213-.367 2.35 2.35 0 0 0-.482-.164l-.555-.14c-.319-.079-.554-.168-.706-.265-.27-.17-.405-.405-.405-.706 0-.354.127-.64.382-.859s.598-.328 1.029-.328c.564 0 .97.165 1.219.496.156.209.232.435.227.678h-.594a.726.726 0 0 0-.151-.389l.001.002c-.144-.165-.395-.248-.751-.248-.237 0-.417.045-.539.136s-.183.211-.183.36c0 .163.08.293.241.391.093.058.231.109.412.154l.415.101c.452.11.754.215.908.318.244.161.367.413.367.758 0 .333-.126.621-.379.863s-.638.363-1.154.363c-.556 0-.951-.126-1.182-.379s-.356-.565-.372-.938h.604z"/><path fill="#888692" style="fill:var(--color4,#888692)" d="M40.179 23.759h.639v3.723h-.639v-3.723zm0-1.407h.639v.712h-.639v-.712zm1.589 1.39h.597v.531c.177-.219.364-.376.562-.472s.418-.143.66-.143c.531 0 .889.185 1.076.555.103.203.154.492.154.87v2.399h-.639v-2.357c0-.228-.034-.412-.101-.552-.112-.233-.314-.349-.608-.349-.149 0-.271.015-.367.046a.946.946 0 0 0-.454.307c-.105.123-.173.251-.204.383s-.047.32-.047.564v1.959h-.629v-3.741zm4.352 2.567c.019.209.071.37.157.482.158.203.433.304.824.304.233 0 .438-.051.615-.152s.265-.258.265-.47a.402.402 0 0 0-.213-.367 2.35 2.35 0 0 0-.482-.164l-.555-.14c-.319-.079-.554-.168-.706-.265-.27-.17-.405-.405-.405-.706 0-.354.128-.64.383-.859s.598-.328 1.029-.328c.563 0 .97.165 1.219.496.156.209.232.435.227.678h-.594a.726.726 0 0 0-.151-.389l.001.002c-.144-.165-.395-.248-.751-.248-.237 0-.417.045-.539.136s-.183.211-.183.36c0 .163.08.293.241.391.093.058.231.109.412.154l.416.101c.452.11.754.215.908.318.245.161.367.413.367.758 0 .333-.126.621-.379.863s-.637.363-1.154.363c-.557 0-.951-.126-1.182-.379s-.356-.565-.372-.938h.604zm3.328-3.612h.636v1.044h.597v.513h-.597v2.441c0 .13.044.218.133.262a.56.56 0 0 0 .245.038l.063-.001.034-.001c.046-.002.089-.005.131-.01l-.008.001v.496c-.064.019-.14.035-.219.045l-.007.001a2.204 2.204 0 0 1-.253.014c-.293 0-.492-.075-.597-.225s-.157-.345-.157-.585v-2.476h-.506v-.513h.506v-1.044zm2.344 3.79c0 .182.066.325.199.43s.29.157.472.157c.234 0 .456-.057.651-.157l-.008.004c.349-.17.524-.448.524-.835v-.506c-.077.049-.176.09-.297.122-.099.028-.22.053-.344.068l-.012.001-.381.049c-.228.03-.399.078-.513.143-.193.11-.29.284-.29.524zm1.522-1.271c.144-.019.241-.079.29-.182a.551.551 0 0 0 .042-.241c0-.214-.076-.37-.229-.466s-.371-.145-.655-.145c-.328 0-.561.088-.698.265-.077.098-.127.243-.15.437h-.587c.012-.461.161-.782.449-.962s.621-.27 1.001-.27c.44 0 .798.084 1.072.251.273.168.409.428.409.782v2.155c0 .065.013.118.04.157s.083.059.169.059a1.122 1.122 0 0 0 .215-.022l-.009.001v.465l-.078.021c-.06.016-.109.026-.145.031a1.543 1.543 0 0 1-.187.011h-.024.001c-.216 0-.374-.077-.471-.231a.893.893 0 0 1-.108-.346c-.128.168-.312.313-.552.437s-.504.185-.793.185c-.347 0-.631-.105-.85-.316s-.33-.474-.33-.791c0-.347.108-.616.325-.807s.501-.309.852-.353l1.002-.126zm3.294-1.541c.294 0 .55.072.768.216.119.082.24.2.363.356v-.472h.58v3.402c0 .475-.07.85-.209 1.125-.261.508-.753.761-1.477.761-.403 0-.742-.09-1.016-.271s-.428-.463-.461-.847h.639c.03.168.091.297.182.388.142.14.366.21.671.21.482 0 .797-.17.946-.51.088-.2.129-.558.122-1.072-.126.191-.277.333-.454.426s-.411.14-.702.14c-.405 0-.76-.144-1.064-.431s-.456-.763-.456-1.427c0-.626.153-1.115.459-1.467s.676-.527 1.109-.527zm1.132 1.921c0-.463-.095-.807-.286-1.03s-.434-.335-.73-.335c-.442 0-.745.207-.908.622-.086.221-.129.511-.129.87 0 .422.086.742.257.962s.401.33.69.33c.452 0 .77-.204.954-.611.102-.231.154-.5.154-.807zm1.543-1.854h.597v.646c.049-.126.169-.279.36-.459s.411-.271.66-.271l.024.001.07.006.109.011v.664a.861.861 0 0 0-.1-.014H61a1.517 1.517 0 0 0-.1-.004h-.003c-.317 0-.56.102-.73.306a1.058 1.058 0 0 0-.255.692v.012-.001 2.152h-.629v-3.741zm2.847 2.745c0 .182.066.325.199.43s.29.157.472.157c.234 0 .456-.057.651-.157l-.008.004c.349-.17.524-.448.524-.835v-.506c-.077.049-.176.09-.297.122-.1.028-.22.053-.344.068l-.012.001-.381.049c-.228.03-.399.078-.514.143-.193.11-.29.284-.29.524zm1.523-1.271c.144-.019.241-.079.29-.182a.551.551 0 0 0 .042-.241c0-.214-.076-.37-.229-.466s-.371-.145-.655-.145c-.328 0-.561.088-.698.265-.077.098-.127.243-.15.437h-.587c.012-.461.161-.782.449-.962s.621-.27 1.001-.27c.44 0 .797.084 1.072.251.272.168.409.428.409.782v2.155c0 .065.013.118.04.157s.083.059.169.059a1.122 1.122 0 0 0 .215-.022l-.009.001v.465l-.078.021c-.06.016-.109.026-.145.031a1.543 1.543 0 0 1-.187.011h-.024.001c-.216 0-.374-.077-.472-.231a.893.893 0 0 1-.108-.346c-.128.168-.312.313-.552.437s-.504.185-.793.185c-.347 0-.631-.105-.85-.316s-.33-.474-.33-.791c0-.347.108-.616.325-.807s.501-.309.852-.353l1.002-.126zm1.973-1.474h.622v.531c.149-.184.284-.318.405-.402.207-.142.442-.213.706-.213.298 0 .538.073.719.22.102.084.196.207.279.37.14-.2.304-.349.493-.445s.4-.145.636-.145c.503 0 .845.181 1.027.545.098.196.147.459.147.789v2.49h-.653v-2.599c0-.249-.062-.42-.187-.513s-.277-.14-.456-.14c-.247 0-.459.083-.637.248s-.267.441-.267.828v2.176h-.639v-2.441c0-.254-.03-.439-.091-.555-.096-.175-.274-.262-.535-.262-.237 0-.453.092-.648.276s-.292.517-.292.999v1.984h-.629v-3.741zm5.959 0h.622v.531c.149-.184.284-.318.405-.402.207-.142.442-.213.706-.213.298 0 .538.073.719.22.103.084.196.207.28.37.14-.2.304-.349.492-.445s.401-.145.636-.145c.503 0 .845.181 1.027.545.098.196.147.459.147.789v2.49h-.653v-2.599c0-.249-.062-.42-.187-.513s-.277-.14-.456-.14c-.247 0-.459.083-.637.248s-.267.441-.267.828v2.176h-.639v-2.441c0-.254-.03-.439-.091-.555-.095-.175-.274-.262-.534-.262-.238 0-.453.092-.648.276s-.292.517-.292.999v1.984h-.629v-3.741zm6.44 2.745c0 .182.066.325.199.43s.29.157.472.157c.234 0 .456-.057.651-.157l-.008.004c.349-.17.524-.448.524-.835v-.506c-.077.049-.176.09-.297.122-.1.028-.22.053-.344.068l-.012.001-.381.049c-.228.03-.399.078-.513.143-.193.11-.29.284-.29.524zm1.523-1.271c.144-.019.241-.079.29-.182a.551.551 0 0 0 .042-.241c0-.214-.076-.37-.229-.466s-.371-.145-.655-.145c-.328 0-.561.088-.698.265-.077.098-.127.243-.15.437h-.587c.012-.461.161-.782.449-.962s.621-.27 1.001-.27c.44 0 .798.084 1.072.251.272.168.408.428.408.782v2.155c0 .065.014.118.04.157s.083.059.169.059a1.122 1.122 0 0 0 .215-.022l-.009.001v.465l-.078.021c-.06.016-.109.026-.145.031a1.543 1.543 0 0 1-.187.011h-.024.001c-.216 0-.374-.077-.472-.231a.893.893 0 0 1-.108-.346c-.128.168-.312.313-.552.437s-.504.185-.793.185c-.347 0-.631-.105-.85-.316s-.33-.474-.33-.791c0-.347.108-.616.325-.807s.501-.309.852-.353l1.003-.126zm1.924-2.882h.611v1.862a1.37 1.37 0 0 1 1.103-.552h.012-.001c.466 0 .843.16 1.133.48s.435.792.435 1.416c0 .591-.143 1.083-.43 1.474s-.683.587-1.191.587a1.22 1.22 0 0 1-.719-.206 1.726 1.726 0 0 1-.374-.391v.479h-.58v-5.148zm1.635 4.712c.34 0 .594-.135.763-.405s.253-.626.253-1.069c0-.393-.084-.72-.253-.978s-.417-.388-.746-.388c-.287 0-.537.106-.753.318s-.323.561-.323 1.048c0 .351.044.637.133.856.165.412.474.618.926.618zm2.41-4.694h.629v5.131h-.629v-5.131zm3.129 1.306c.265 0 .523.062.772.187s.439.286.569.484c.126.189.21.409.251.66.037.172.056.447.056.824h-2.742c.012.379.101.684.269.913s.427.344.779.344c.328 0 .59-.108.786-.325.108-.121.19-.267.236-.429l.002-.008h.618c-.016.137-.07.291-.162.459s-.195.307-.309.414a1.465 1.465 0 0 1-.709.377 2.167 2.167 0 0 1-.513.056c-.466 0-.86-.169-1.184-.508s-.486-.813-.486-1.423c0-.601.163-1.089.489-1.464s.752-.562 1.278-.562zm1.003 1.656c-.026-.273-.085-.49-.178-.653-.172-.303-.46-.454-.863-.454-.289 0-.531.104-.727.312s-.299.473-.311.795h2.078zm3.531-2.617h.636v1.044h.597v.513h-.597v2.441c0 .13.044.218.133.262.049.026.13.038.244.038l.064-.001.034-.001c.046-.002.089-.005.131-.01l-.008.001v.496c-.064.019-.14.035-.219.045l-.007.001a2.204 2.204 0 0 1-.253.014c-.293 0-.492-.075-.597-.225s-.157-.345-.157-.585v-2.476h-.506v-.513h.506v-1.044zm3.346 4.38c.417 0 .703-.158.857-.473s.232-.666.232-1.053c0-.349-.056-.633-.168-.852-.177-.344-.482-.517-.915-.517-.384 0-.664.147-.838.44s-.262.647-.262 1.062c0 .398.087.73.262.995s.452.398.831.398zm.024-3.443c.482 0 .889.161 1.222.482s.499.794.499 1.418c0 .603-.147 1.101-.44 1.495s-.748.59-1.365.59c-.515 0-.923-.174-1.226-.522s-.454-.816-.454-1.402c0-.629.159-1.129.478-1.502s.747-.559 1.285-.559zm3.098.108v2.483c0 .191.03.347.091.468.112.223.32.335.625.335.438 0 .736-.195.894-.587.086-.21.129-.497.129-.863v-1.837h.629v3.741h-.594l.007-.552c-.081.141-.182.26-.302.358l-.002.002c-.24.196-.531.294-.873.294-.533 0-.896-.178-1.09-.535-.105-.191-.157-.446-.157-.765v-2.543h.643zm3.367 0h.597v.646c.049-.126.169-.279.36-.459s.411-.271.66-.271l.024.001.07.006.109.011v.664a.861.861 0 0 0-.1-.014h-.003a1.517 1.517 0 0 0-.1-.004h-.003c-.317 0-.56.102-.73.306a1.058 1.058 0 0 0-.255.692v.012-.001 2.152h-.629v-3.741zm2.738 2.567c.019.209.071.37.157.482.159.203.433.304.824.304.233 0 .438-.051.615-.152s.265-.258.265-.47a.402.402 0 0 0-.213-.367 2.35 2.35 0 0 0-.482-.164l-.555-.14c-.319-.079-.554-.168-.706-.265-.27-.17-.405-.405-.405-.706 0-.354.127-.64.382-.859s.598-.328 1.029-.328c.564 0 .97.165 1.219.496.156.209.232.435.227.678h-.594a.726.726 0 0 0-.151-.389l.001.002c-.144-.165-.395-.248-.751-.248-.237 0-.417.045-.539.136s-.183.211-.183.36c0 .163.08.293.241.391.093.058.231.109.412.154l.415.101c.452.11.754.215.908.318.244.161.367.413.367.758 0 .333-.126.621-.379.863s-.638.363-1.154.363c-.556 0-.951-.126-1.182-.379s-.356-.565-.372-.938h.604z"/></symbol><symbol id="icon-about-1" viewBox="0 0 32 32"><path d="M5.156 22.834c-.262.235-.516.479-.763.73-.072.073-.141.148-.213.223-.181.191-.358.387-.531.587-.075.087-.152.172-.225.26-.204.245-.4.498-.591.756-.087.117-.17.237-.254.357-.134.191-.264.386-.39.584-.067.105-.136.207-.202.314l-.01.017c-.002.002-.002.005-.002.007a16.38 16.38 0 0 0-1.061 2.025l-.043.11.919.394c.111-.259.236-.509.36-.76l.357 2.145a.5.5 0 0 0 .492.418h2a.512.512 0 0 0 .186-.035l2.375-.951 3.367.481a.497.497 0 0 0 .533-.306l.001-.003.939-2.349 3.862-2.413a.504.504 0 0 0 .23-.351v-.003l.5-3.5a.5.5 0 0 0-.37-.555l-.003-.001-1.922-.48-1.181-.745c.082-.015.164-.032.246-.046a15.849 15.849 0 0 1 3.224-.227l-.023-.001c.101.003.202.006.303.011l.021.001c.279.014.558.037.837.065.108.011.215.02.322.033.276.034.552.078.826.127.108.019.218.034.326.055.285.056.567.125.85.197.846.217 1.559.459 2.249.748l-.106-.039c.154.064.305.132.457.201l.166.077-1.855.53a.502.502 0 0 0-.309.708l-.001-.003.339.677-1.745 1.745a.497.497 0 0 0 0 .708l2 2a.488.488 0 0 0 .405.144h-.002a.496.496 0 0 0 .365-.218l.001-.002 1.851-2.777h1.232v1.709l-3.248 1.856a.473.473 0 0 0-.105.081l-1 1a.499.499 0 0 0-.061.633l-.001-.002 1 1.5.832-.555-.773-1.159.663-.663 3.442-1.967a.5.5 0 0 0 .252-.433v-2.501a.5.5 0 0 0-.5-.5h-2a.501.501 0 0 0-.416.223l-1.662 2.492-1.215-1.215 1.646-1.646a.497.497 0 0 0 .093-.58l.001.003-.23-.461 2.299-.657c.02.012.04.021.059.032.076.045.149.095.225.141.243.148.485.299.721.459.215.148.425.302.633.459.055.042.113.08.168.122a16.154 16.154 0 0 1 4.131 4.789l.042.08.002-.001.002.003.874-.485a17.134 17.134 0 0 0-2.034-2.9l.017.021-.044-.047a16.438 16.438 0 0 0-.738-.794l.001.001c-.054-.055-.111-.105-.166-.159-.21-.208-.426-.411-.648-.609l-.017-.015c-.087-.076-.177-.148-.265-.222-.174-.15-.374-.315-.578-.474l-.036-.028c-.114-.087-.233-.169-.349-.255l-.022-.016.961-2.307 1.495-3.239 1.496-2.992a.5.5 0 0 0-.241-.679l-.003-.001-.136-.06.88-1.759a.498.498 0 0 0-.17-.639l-3-2a.5.5 0 0 0-.723.189l-.001.003-1.172 2.345-.177-.079a.5.5 0 0 0-.65.231l-.001.003-3 6c-.003.005-.002.01-.004.015s-.006.008-.008.012l-.846 1.974-.703-3.866a.501.501 0 0 0-.492-.411h-.623l-.896-3.138a.502.502 0 0 0-.48-.363h-.076l-.93-5.582c-.003-.016-.012-.029-.016-.045a.996.996 0 0 0 .523-.873v-1c0-.551-.448-1-1-1v-1.5h-1v1.5c-.552 0-1 .449-1 1v1c0 .378.213.703.523.873-.004.016-.013.029-.016.045l-.93 5.582h-.076a.501.501 0 0 0-.48.359l-.001.004-.896 3.137h-.623a.5.5 0 0 0-.492.411l-.72 3.962-3.824-9.559c-.003-.007-.008-.011-.011-.018a.532.532 0 0 0-.084-.129l-.024-.027c-.005-.005-.008-.011-.013-.015l-4.5-4a.499.499 0 0 0-.83.331v.002l-.5 6 .001.02.002.036a.463.463 0 0 0 .029.154l-.001-.003c.002.007.001.014.004.021L5.407 22.62l-.112.098-.139.121zm8.234-4.049a3.285 3.285 0 0 1 2.607-1.285H16c.96 0 1.854.419 2.468 1.116-.049-.006-.098-.006-.146-.012-.251-.029-.58-.056-.912-.074l-.041-.002c-.093-.005-.186-.012-.277-.015-.098-.003-.196-.003-.294-.004-.099-.002-.198-.011-.298-.011-.096 0-.189.009-.285.011h-.133c-.174.004-.347.015-.521.024-.176.009-.352.019-.527.034l-.237.021c-.163.017-.325.039-.488.06-.145.018-.29.034-.435.056-.079.012-.156.029-.235.042-.082.014-.166.021-.249.037zm.989 2.7 1.563.39-.403 2.823-3.803 2.377a.506.506 0 0 0-.2.238l-.854 2.136-3.111-.445a.516.516 0 0 0-.259.032l.003-.001-2.41.965h-1.48l-.496-2.976.017-.025c.264-.417.502-.761.753-1.094l-.03.041c.254-.34.488-.631.731-.913l-.017.02c.173-.201.352-.399.535-.591.067-.07.133-.14.201-.209.232-.235.47-.464.716-.684.035-.032.072-.062.107-.093.163-.143.333-.278.502-.415.217-.177.471-.37.729-.556l.048-.033c.086-.061.171-.125.258-.184.277-.189.56-.366.847-.538.076-.045.149-.093.226-.137a15.05 15.05 0 0 1 2.191-1.047l.108-.037c.203-.076.409-.143.616-.211.116-.044.345-.116.577-.182l.112-.027 2.079 1.313c.042.027.09.048.141.061l.003.001zm7.63-2.07.741-1.73 3.608 1.804-.703 1.689c-.108-.069-.218-.13-.327-.196s-.219-.134-.33-.198c-.044-.026-.087-.053-.131-.078l-.037-.023h-.002c-.173-.098-.349-.186-.526-.277-.076-.04-.151-.081-.228-.119a12.467 12.467 0 0 0-.778-.369l-.111-.043-.075-.034a12.804 12.804 0 0 0-.985-.389l-.118-.037zm7.144-7.339-.721-.32.762-1.526.662.441-.703 1.405zM27.694 9.23l.662.441-.839 1.678-.721-.32.899-1.799zm-2.053 2.606c.026.027.049.057.082.079l3 2a.494.494 0 0 0 .221.076h.002l-.678 1.357-3.585-1.594.959-1.919zm-1.408 2.815 3.6 1.6-1.072 2.321-3.591-1.796 1.063-2.126zM15.5 3.5h1v1h-1.001v-1zm.424 2.5h.153l.834 5h-1.819l.833-5zm-1.547 6h3.246l.715 2.5h-4.675l.714-2.5zm-1.96 3.5h7.166l.619 3.408c-.051-.012-.103-.018-.154-.029l-.248-.052A4.281 4.281 0 0 0 16 16.5h-.002a4.285 4.285 0 0 0-3.925 2.562l-.011.027c-.07.019-.139.041-.208.061l-.105.027.668-3.678zm-2.426 4.296c-.199.082-.396.169-.591.258l-.2.091a17.92 17.92 0 0 0-.985.506l-.104.059-.024.014-.04.023c-.361.206-.635.375-.904.553l.063-.039-.104.067c-.301.2-.596.407-.883.626l-2.07-5.176 4.072-1.629 1.845 4.612-.076.034zM2.15 11.778l4.072-1.629L7.85 14.22l-4.072 1.629-1.628-4.072zm.266-5.24 3.148 2.798-3.498 1.399.35-4.197z"/><path d="M5 11.5c-.827 0-1.5.673-1.5 1.5s.673 1.5 1.5 1.5 1.5-.673 1.5-1.5-.673-1.5-1.5-1.5zm0 2a.5.5 0 1 1 .002-1.002A.5.5 0 0 1 5 13.5z"/></symbol><symbol id="icon-about-2" viewBox="0 0 32 32"><path d="M28.198 22.564a3.513 3.513 0 0 0-2.611-3.058l-.024-.005L20 18.11v-1.346a5.475 5.475 0 0 0 1.285-2.254l.009-.039a2.496 2.496 0 0 0 2.206-2.47v-3.5H25v-.5a2.503 2.503 0 0 0-2.007-2.449l-.016-.003A5.505 5.505 0 0 0 17.5.501h-3a5.505 5.505 0 0 0-5.477 5.048A2.507 2.507 0 0 0 7 8.001v.5h1.5v3.5c0 1.277.967 2.322 2.206 2.47a5.504 5.504 0 0 0 1.297 2.296l-.002-.003v1.346l-5.564 1.391a3.516 3.516 0 0 0-2.634 3.049l-.001.015-.851 8.937h26.1l-.852-8.936zM11.53 13.5H14c.827 0 1.5-.673 1.5-1.5v-.52c.069.007.136.02.207.02h.586c.07 0 .138-.014.207-.02V12c0 .827.673 1.5 1.5 1.5h2.471c-.25 2.247-2.158 4-4.471 4s-4.221-1.754-4.471-4zm8.97-5v1h-1.799c-.608 0-1.157.247-1.554.646a1.198 1.198 0 0 1-.851.354h-.592c-.332 0-.633-.135-.85-.353a2.186 2.186 0 0 0-1.554-.646h-1.799v-1h9zm-3 2.639c.133-.087.248-.181.354-.286.217-.218.518-.354.851-.354H20.501v2h-2.5a.5.5 0 0 1-.5-.5v-.861zm-3 0V12a.5.5 0 0 1-.5.5h-2.5v-2h1.793c.322 0 .626.126.854.354.109.109.228.204.354.286zm6.979 2.276c.011-.137.021-.274.021-.415v-2.408c.581.207 1 .757 1 1.408a1.497 1.497 0 0 1-1.01 1.411l-.011.003zm1.021-3.402a2.464 2.464 0 0 0-.984-.459l-.016-.003V8.5h1v1.513zM21.972 5.5h-3a6.67 6.67 0 0 0-1.711-4.006l.005.006h.234a4.505 4.505 0 0 1 4.472 4zM16 1.655a5.693 5.693 0 0 1 1.971 3.823l.002.022h-3.944a5.693 5.693 0 0 1 1.964-3.838l.008-.006zM14.5 1.5h.234a6.656 6.656 0 0 0-1.705 3.978l-.001.022h-3a4.505 4.505 0 0 1 4.472-4zm-5 5h13c.652 0 1.208.418 1.415 1H8.086a1.506 1.506 0 0 1 1.414-1zm1 2v1.05a2.492 2.492 0 0 0-1.006.466l.006-.004V8.5h1zm-1 3.5c0-.651.419-1.201 1-1.408V13c0 .14.011.277.021.415A1.5 1.5 0 0 1 9.5 12.001zM4.796 22.659a2.511 2.511 0 0 1 1.865-2.185l.017-.004 6.321-1.579v-1.287c.864.565 1.893.896 3 .896s2.136-.331 3-.896v1.287l6.321 1.579a2.512 2.512 0 0 1 1.882 2.178l.001.01.318 3.341h-2.77l-.253-3.041-.996.083.454 5.459h-1.497l-.5-6h-2.46c0-1.93-1.57-3.5-3.5-3.5s-3.5 1.57-3.5 3.5h-2.46l-.5 6H8.043l.454-5.459-.996-.083-.253 3.041h-2.77l.318-3.341zM18 26.5v4h-4v-4h-1v2.513a2.462 2.462 0 0 0-1.5-.513h-.957l.417-5h1.666c.098.364.249.714.462 1.033L16 28.902l2.912-4.368c.199-.296.357-.64.456-1.009l.006-.024h1.666l.417 5H20.5c-.565 0-1.081.195-1.5.513V26.5h-1zm-4.5-3.908V22.5c0-1.378 1.121-2.5 2.5-2.5s2.5 1.122 2.5 2.5v.092c0 .495-.145.974-.42 1.387L16 27.099l-2.08-3.12a2.47 2.47 0 0 1-.42-1.384v-.003zM4.383 27h2.782l-.208 2.5H11.5c.651 0 1.201.419 1.408 1H4.05l.333-3.5zm14.709 3.5a1.501 1.501 0 0 1 1.408-1h4.544l-.209-2.5h2.782l.334 3.5h-8.858z"/><path d="M18 14.5h-1a1 1 0 0 1-2 0h-1c0 1.103.897 2 2 2s2-.897 2-2zm-.5 8c0-.827-.673-1.5-1.5-1.5s-1.5.673-1.5 1.5.673 1.5 1.5 1.5 1.5-.673 1.5-1.5zm-2 0a.5.5 0 0 1 1 0 .5.5 0 0 1-1 0z"/></symbol></defs></svg>