<svg xmlns="http://www.w3.org/2000/svg" aria-hidden="true" style="position:absolute;width:0;height:0;overflow:hidden">
  <defs>
    <symbol id="icon-facebook" viewBox="0 0 32 32">
        <path d="M19 6h5v-6h-5c-3.86 0-7 3.14-7 7v3h-4v6h4v16h6v-16h5l1-6h-6v-3c0-0.542 0.458-1 1-1z"></path>
    </symbol>
    <symbol id="icon-instagram" viewBox="0 0 32 32">
      <path d="M16 2.881c4.275 0 4.781 0.019 6.462 0.094 1.563 0.069 2.406 0.331 2.969 0.55 0.744 0.288 1.281 0.638 1.837 1.194 0.563 0.563 0.906 1.094 1.2 1.838 0.219 0.563 0.481 1.412 0.55 2.969 0.075 1.688 0.094 2.194 0.094 6.463s-0.019 4.781-0.094 6.463c-0.069 1.563-0.331 2.406-0.55 2.969-0.288 0.744-0.637 1.281-1.194 1.837-0.563 0.563-1.094 0.906-1.837 1.2-0.563 0.219-1.413 0.481-2.969 0.55-1.688 0.075-2.194 0.094-6.463 0.094s-4.781-0.019-6.463-0.094c-1.563-0.069-2.406-0.331-2.969-0.55-0.744-0.288-1.281-0.637-1.838-1.194-0.563-0.563-0.906-1.094-1.2-1.837-0.219-0.563-0.481-1.413-0.55-2.969-0.075-1.688-0.094-2.194-0.094-6.463s0.019-4.781 0.094-6.463c0.069-1.563 0.331-2.406 0.55-2.969 0.288-0.744 0.638-1.281 1.194-1.838 0.563-0.563 1.094-0.906 1.838-1.2 0.563-0.219 1.412-0.481 2.969-0.55 1.681-0.075 2.188-0.094 6.463-0.094zM16 0c-4.344 0-4.887 0.019-6.594 0.094-1.7 0.075-2.869 0.35-3.881 0.744-1.056 0.412-1.95 0.956-2.837 1.85-0.894 0.888-1.438 1.781-1.85 2.831-0.394 1.019-0.669 2.181-0.744 3.881-0.075 1.713-0.094 2.256-0.094 6.6s0.019 4.887 0.094 6.594c0.075 1.7 0.35 2.869 0.744 3.881 0.413 1.056 0.956 1.95 1.85 2.837 0.887 0.887 1.781 1.438 2.831 1.844 1.019 0.394 2.181 0.669 3.881 0.744 1.706 0.075 2.25 0.094 6.594 0.094s4.888-0.019 6.594-0.094c1.7-0.075 2.869-0.35 3.881-0.744 1.050-0.406 1.944-0.956 2.831-1.844s1.438-1.781 1.844-2.831c0.394-1.019 0.669-2.181 0.744-3.881 0.075-1.706 0.094-2.25 0.094-6.594s-0.019-4.887-0.094-6.594c-0.075-1.7-0.35-2.869-0.744-3.881-0.394-1.063-0.938-1.956-1.831-2.844-0.887-0.887-1.781-1.438-2.831-1.844-1.019-0.394-2.181-0.669-3.881-0.744-1.712-0.081-2.256-0.1-6.6-0.1v0z"></path>
      <path d="M16 7.781c-4.537 0-8.219 3.681-8.219 8.219s3.681 8.219 8.219 8.219 8.219-3.681 8.219-8.219c0-4.537-3.681-8.219-8.219-8.219zM16 21.331c-2.944 0-5.331-2.387-5.331-5.331s2.387-5.331 5.331-5.331c2.944 0 5.331 2.387 5.331 5.331s-2.387 5.331-5.331 5.331z"></path>
      <path d="M26.462 7.456c0 1.060-0.859 1.919-1.919 1.919s-1.919-0.859-1.919-1.919c0-1.060 0.859-1.919 1.919-1.919s1.919 0.859 1.919 1.919z"></path>
    </symbol>
    <symbol id="icon-youtube" viewBox="0 0 32 32">
        <path d="M31.681 9.6c0 0-0.313-2.206-1.275-3.175-1.219-1.275-2.581-1.281-3.206-1.356-4.475-0.325-11.194-0.325-11.194-0.325h-0.012c0 0-6.719 0-11.194 0.325-0.625 0.075-1.987 0.081-3.206 1.356-0.963 0.969-1.269 3.175-1.269 3.175s-0.319 2.588-0.319 5.181v2.425c0 2.587 0.319 5.181 0.319 5.181s0.313 2.206 1.269 3.175c1.219 1.275 2.819 1.231 3.531 1.369 2.563 0.244 10.881 0.319 10.881 0.319s6.725-0.012 11.2-0.331c0.625-0.075 1.988-0.081 3.206-1.356 0.962-0.969 1.275-3.175 1.275-3.175s0.319-2.587 0.319-5.181v-2.425c-0.006-2.588-0.325-5.181-0.325-5.181zM12.694 20.15v-8.994l8.644 4.513-8.644 4.481z"></path>
    </symbol>
    <symbol id="icon-logo" viewBox="0 0 114 32">
      <path fill="#ff3c42" style="fill: var(--color1, #ff3c42)" d="M23.040 0h-14.249c-4.856 0-8.791 3.934-8.791 8.791v14.268c0 4.838 3.934 8.791 8.791 8.791h14.268c4.838 0 8.791-3.934 8.791-8.791v-14.268c-0.019-4.856-3.972-8.791-8.809-8.791zM29.007 23.040c0 3.294-2.673 5.967-5.967 5.967h-14.249c-3.294 0-5.967-2.673-5.967-5.967v-14.249c0-3.294 2.673-5.967 5.967-5.967h14.268c3.294 0 5.967 2.673 5.967 5.967v14.249h-0.019z"></path>
      <path fill="#ff3c42" style="fill: var(--color1, #ff3c42)" d="M15.906 7.718c-4.518 0-8.188 3.671-8.188 8.188s3.671 8.207 8.207 8.207 8.207-3.671 8.207-8.207c-0.019-4.518-3.689-8.188-8.226-8.188zM15.906 21.289c-2.955 0-5.384-2.409-5.384-5.384 0.019-2.955 2.428-5.365 5.384-5.365s5.384 2.409 5.384 5.384c0 2.955-2.409 5.365-5.384 5.365z"></path>
      <path fill="#ff3c42" style="fill: var(--color1, #ff3c42)" d="M24.452 5.327c-0.546 0-1.073 0.226-1.468 0.602s-0.602 0.922-0.602 1.468c0 0.546 0.226 1.073 0.602 1.468 0.376 0.376 0.922 0.602 1.468 0.602s1.073-0.226 1.468-0.602c0.395-0.376 0.602-0.922 0.602-1.468s-0.226-1.073-0.602-1.468c-0.376-0.395-0.922-0.602-1.468-0.602z"></path>
      <path fill="#3f3631" style="fill: var(--color2, #3f3631)" d="M43.539 15.624h-2.899v-12.047h2.899zM48.151 6.682l0.094 1.054c0.621-0.809 1.468-1.224 2.56-1.224 0.941 0 1.619 0.282 2.089 0.828 0.452 0.565 0.696 1.393 0.715 2.522v5.76h-2.805v-5.647c0-0.452-0.094-0.791-0.282-0.998s-0.508-0.32-0.998-0.32c-0.546 0-0.96 0.207-1.224 0.64v6.325h-2.786v-8.941h2.635zM60.009 13.101c0-0.245-0.132-0.433-0.376-0.565s-0.715-0.301-1.412-0.452c-0.696-0.151-1.261-0.358-1.713-0.602s-0.791-0.565-1.035-0.922c-0.245-0.358-0.358-0.772-0.358-1.224 0-0.828 0.339-1.506 1.016-2.033s1.562-0.791 2.673-0.791c1.186 0 2.127 0.264 2.842 0.809s1.073 1.242 1.073 2.108h-2.805c0-0.715-0.376-1.073-1.129-1.073-0.301 0-0.546 0.075-0.734 0.245s-0.301 0.358-0.301 0.602c0 0.245 0.113 0.452 0.358 0.602s0.621 0.282 1.167 0.376c0.527 0.094 0.998 0.226 1.393 0.358 1.336 0.471 2.014 1.299 2.014 2.485 0 0.809-0.358 1.487-1.092 1.995s-1.656 0.772-2.824 0.772c-0.772 0-1.449-0.132-2.052-0.414s-1.073-0.659-1.412-1.129c-0.339-0.471-0.508-0.979-0.508-1.506h2.598c0.019 0.414 0.151 0.715 0.414 0.904s0.602 0.282 1.016 0.282c0.376 0 0.659-0.075 0.847-0.226 0.245-0.151 0.339-0.339 0.339-0.602zM67.407 4.442v2.221h1.468v1.939h-1.468v4.104c0 0.339 0.056 0.565 0.188 0.696s0.358 0.207 0.715 0.207c0.282 0 0.508-0.019 0.696-0.056v1.995c-0.508 0.151-1.016 0.245-1.562 0.245-0.96 0-1.675-0.226-2.127-0.678s-0.678-1.129-0.678-2.052v-4.461h-1.148v-1.92h1.148v-2.24h2.767zM75.181 15.624c-0.094-0.188-0.188-0.452-0.264-0.809-0.508 0.64-1.224 0.96-2.146 0.96-0.847 0-1.562-0.264-2.146-0.772s-0.885-1.148-0.885-1.92c0-0.979 0.358-1.713 1.073-2.202s1.751-0.753 3.125-0.753h0.866v-0.471c0-0.828-0.358-1.242-1.073-1.242-0.659 0-0.998 0.32-0.998 0.979h-2.786c0-0.866 0.376-1.562 1.111-2.108s1.675-0.809 2.824-0.809 2.052 0.282 2.711 0.828c0.659 0.546 0.998 1.318 1.016 2.296v3.953c0.019 0.828 0.132 1.449 0.376 1.882v0.188h-2.805zM73.449 13.798c0.339 0 0.64-0.075 0.866-0.226s0.395-0.32 0.489-0.508v-1.431h-0.809c-0.979 0-1.449 0.433-1.449 1.299 0 0.245 0.094 0.452 0.264 0.621 0.151 0.169 0.376 0.245 0.64 0.245z"></path>
      <path fill="#ff3c42" style="fill: var(--color1, #ff3c42)" d="M79.605 14.456c0-0.376 0.132-0.696 0.376-0.922s0.584-0.358 0.96-0.358c0.395 0 0.715 0.113 0.979 0.358s0.376 0.546 0.376 0.922c0 0.376-0.132 0.678-0.376 0.922-0.245 0.226-0.584 0.358-0.979 0.358s-0.715-0.113-0.96-0.358c-0.245-0.245-0.376-0.546-0.376-0.922z"></path>
      <path fill="#3f3631" style="fill: var(--color2, #3f3631)" d="M93.289 5.816h-3.614v9.807h-2.899v-9.807h-3.558v-2.24h10.071zM99.426 9.205l-0.922-0.075c-0.885 0-1.431 0.282-1.694 0.828v5.666h-2.786v-8.941h2.616l0.094 1.148c0.471-0.885 1.129-1.318 1.958-1.318 0.301 0 0.565 0.038 0.772 0.094l-0.038 2.598zM100.593 4.367c0-0.395 0.151-0.715 0.433-0.979 0.282-0.245 0.659-0.376 1.111-0.376s0.828 0.132 1.111 0.376 0.433 0.584 0.433 0.979-0.151 0.715-0.433 0.979c-0.282 0.245-0.659 0.376-1.111 0.376s-0.828-0.132-1.111-0.376c-0.301-0.264-0.433-0.584-0.433-0.979zM103.548 15.624h-2.805v-8.941h2.805v8.941zM113.751 11.219c0 1.393-0.32 2.504-0.941 3.332s-1.468 1.242-2.541 1.242c-0.828 0-1.506-0.301-2.033-0.904v4.179h-2.786v-12.386h2.598l0.075 0.828c0.527-0.659 1.242-0.998 2.108-0.998 1.111 0 1.958 0.414 2.579 1.224s0.922 1.939 0.922 3.351v0.132h0.019zM110.946 11.049c0-1.581-0.471-2.391-1.393-2.391-0.659 0-1.111 0.245-1.318 0.715v3.52c0.245 0.489 0.696 0.753 1.336 0.753 0.885 0 1.336-0.772 1.374-2.296v-0.301z"></path>
      <path fill="#000" style="fill: var(--color3, #000)" d="M40.179 23.759h0.639v3.723h-0.639v-3.723zM40.179 22.352h0.639v0.712h-0.639v-0.712zM41.768 23.742h0.597v0.531c0.177-0.219 0.364-0.376 0.562-0.472s0.418-0.143 0.66-0.143c0.531 0 0.889 0.185 1.076 0.555 0.103 0.203 0.154 0.492 0.154 0.87v2.399h-0.639v-2.357c0-0.228-0.034-0.412-0.101-0.552-0.112-0.233-0.314-0.349-0.608-0.349-0.149 0-0.271 0.015-0.367 0.046-0.172 0.051-0.324 0.154-0.454 0.307-0.105 0.123-0.173 0.251-0.204 0.383s-0.047 0.32-0.047 0.564v1.959h-0.629v-3.741zM46.12 26.309c0.019 0.209 0.071 0.37 0.157 0.482 0.158 0.203 0.433 0.304 0.824 0.304 0.233 0 0.438-0.051 0.615-0.152s0.265-0.258 0.265-0.47c0-0.161-0.071-0.283-0.213-0.367-0.084-0.047-0.245-0.102-0.482-0.164l-0.555-0.14c-0.319-0.079-0.554-0.168-0.706-0.265-0.27-0.17-0.405-0.405-0.405-0.706 0-0.354 0.128-0.64 0.383-0.859s0.598-0.328 1.029-0.328c0.563 0 0.97 0.165 1.219 0.496 0.156 0.209 0.232 0.435 0.227 0.678h-0.594c-0.012-0.148-0.067-0.281-0.151-0.389l0.001 0.002c-0.144-0.165-0.395-0.248-0.751-0.248-0.237 0-0.417 0.045-0.539 0.136s-0.183 0.211-0.183 0.36c0 0.163 0.080 0.293 0.241 0.391 0.093 0.058 0.231 0.109 0.412 0.154l0.416 0.101c0.452 0.11 0.754 0.215 0.908 0.318 0.245 0.161 0.367 0.413 0.367 0.758 0 0.333-0.126 0.621-0.379 0.863s-0.637 0.363-1.154 0.363c-0.557 0-0.951-0.126-1.182-0.379s-0.356-0.565-0.372-0.938h0.604zM49.448 22.697h0.636v1.044h0.597v0.513h-0.597v2.441c0 0.13 0.044 0.218 0.133 0.262 0.049 0.026 0.13 0.038 0.245 0.038l0.063-0.001 0.034-0.001c0.046-0.002 0.089-0.005 0.131-0.010l-0.008 0.001v0.496c-0.064 0.019-0.14 0.035-0.219 0.045l-0.007 0.001c-0.078 0.009-0.162 0.014-0.253 0.014-0.293 0-0.492-0.075-0.597-0.225s-0.157-0.345-0.157-0.585v-2.476h-0.506v-0.513h0.506v-1.044zM51.792 26.487c0 0.182 0.066 0.325 0.199 0.43s0.29 0.157 0.472 0.157c0.234-0 0.456-0.057 0.651-0.157l-0.008 0.004c0.349-0.17 0.524-0.448 0.524-0.835v-0.506c-0.077 0.049-0.176 0.090-0.297 0.122-0.099 0.028-0.22 0.053-0.344 0.068l-0.012 0.001-0.381 0.049c-0.228 0.030-0.399 0.078-0.513 0.143-0.193 0.11-0.29 0.284-0.29 0.524zM53.314 25.216c0.144-0.019 0.241-0.079 0.29-0.182 0.028-0.056 0.042-0.136 0.042-0.241 0-0.214-0.076-0.37-0.229-0.466s-0.371-0.145-0.655-0.145c-0.328 0-0.561 0.088-0.698 0.265-0.077 0.098-0.127 0.243-0.15 0.437h-0.587c0.012-0.461 0.161-0.782 0.449-0.962s0.621-0.27 1.001-0.27c0.44 0 0.798 0.084 1.072 0.251 0.273 0.168 0.409 0.428 0.409 0.782v2.155c0 0.065 0.013 0.118 0.040 0.157s0.083 0.059 0.169 0.059c0.028 0 0.059-0.002 0.094-0.005 0.045-0.005 0.083-0.010 0.121-0.017l-0.009 0.001v0.465l-0.078 0.021c-0.060 0.016-0.109 0.026-0.145 0.031-0.056 0.007-0.121 0.011-0.187 0.011-0.008 0-0.016-0-0.024-0h0.001c-0.216 0-0.374-0.077-0.471-0.231-0.051-0.081-0.087-0.197-0.108-0.346-0.128 0.168-0.312 0.313-0.552 0.437s-0.504 0.185-0.793 0.185c-0.347 0-0.631-0.105-0.85-0.316s-0.33-0.474-0.33-0.791c0-0.347 0.108-0.616 0.325-0.807s0.501-0.309 0.852-0.353l1.002-0.126zM56.608 23.675c0.294 0 0.55 0.072 0.768 0.216 0.119 0.082 0.24 0.2 0.363 0.356v-0.472h0.58v3.402c0 0.475-0.070 0.85-0.209 1.125-0.261 0.508-0.753 0.761-1.477 0.761-0.403 0-0.742-0.090-1.016-0.271s-0.428-0.463-0.461-0.847h0.639c0.030 0.168 0.091 0.297 0.182 0.388 0.142 0.14 0.366 0.21 0.671 0.21 0.482 0 0.797-0.17 0.946-0.51 0.088-0.2 0.129-0.558 0.122-1.072-0.126 0.191-0.277 0.333-0.454 0.426s-0.411 0.14-0.702 0.14c-0.405 0-0.76-0.144-1.064-0.431s-0.456-0.763-0.456-1.427c0-0.626 0.153-1.115 0.459-1.467s0.676-0.527 1.109-0.527zM57.74 25.596c0-0.463-0.095-0.807-0.286-1.030s-0.434-0.335-0.73-0.335c-0.442 0-0.745 0.207-0.908 0.622-0.086 0.221-0.129 0.511-0.129 0.87 0 0.422 0.086 0.742 0.257 0.962s0.401 0.33 0.69 0.33c0.452 0 0.77-0.204 0.954-0.611 0.102-0.231 0.154-0.5 0.154-0.807zM59.283 23.742h0.597v0.646c0.049-0.126 0.169-0.279 0.36-0.459s0.411-0.271 0.66-0.271l0.024 0.001 0.070 0.006 0.109 0.011v0.664c-0.029-0.006-0.064-0.011-0.1-0.014l-0.003-0c-0.030-0.002-0.065-0.004-0.1-0.004-0.001 0-0.002 0-0.003 0h0c-0.317 0-0.56 0.102-0.73 0.306-0.159 0.185-0.255 0.427-0.255 0.692 0 0.004 0 0.008 0 0.012v-0.001 2.152h-0.629v-3.741zM62.13 26.487c0 0.182 0.066 0.325 0.199 0.43s0.29 0.157 0.472 0.157c0.234-0 0.456-0.057 0.651-0.157l-0.008 0.004c0.349-0.17 0.524-0.448 0.524-0.835v-0.506c-0.077 0.049-0.176 0.090-0.297 0.122-0.1 0.028-0.22 0.053-0.344 0.068l-0.012 0.001-0.381 0.049c-0.228 0.030-0.399 0.078-0.514 0.143-0.193 0.11-0.29 0.284-0.29 0.524zM63.653 25.216c0.144-0.019 0.241-0.079 0.29-0.182 0.028-0.056 0.042-0.136 0.042-0.241 0-0.214-0.076-0.37-0.229-0.466s-0.371-0.145-0.655-0.145c-0.328 0-0.561 0.088-0.698 0.265-0.077 0.098-0.127 0.243-0.15 0.437h-0.587c0.012-0.461 0.161-0.782 0.449-0.962s0.621-0.27 1.001-0.27c0.44 0 0.797 0.084 1.072 0.251 0.272 0.168 0.409 0.428 0.409 0.782v2.155c0 0.065 0.013 0.118 0.040 0.157s0.083 0.059 0.169 0.059c0.028 0 0.059-0.002 0.094-0.005 0.045-0.005 0.083-0.010 0.121-0.017l-0.009 0.001v0.465l-0.078 0.021c-0.060 0.016-0.109 0.026-0.145 0.031-0.056 0.007-0.121 0.011-0.187 0.011-0.008 0-0.016-0-0.024-0h0.001c-0.216 0-0.374-0.077-0.472-0.231-0.051-0.081-0.087-0.197-0.108-0.346-0.128 0.168-0.312 0.313-0.552 0.437s-0.504 0.185-0.793 0.185c-0.347 0-0.631-0.105-0.85-0.316s-0.33-0.474-0.33-0.791c0-0.347 0.108-0.616 0.325-0.807s0.501-0.309 0.852-0.353l1.002-0.126zM65.626 23.742h0.622v0.531c0.149-0.184 0.284-0.318 0.405-0.402 0.207-0.142 0.442-0.213 0.706-0.213 0.298 0 0.538 0.073 0.719 0.22 0.102 0.084 0.196 0.207 0.279 0.37 0.14-0.2 0.304-0.349 0.493-0.445s0.4-0.145 0.636-0.145c0.503 0 0.845 0.181 1.027 0.545 0.098 0.196 0.147 0.459 0.147 0.789v2.49h-0.653v-2.599c0-0.249-0.062-0.42-0.187-0.513s-0.277-0.14-0.456-0.14c-0.247 0-0.459 0.083-0.637 0.248s-0.267 0.441-0.267 0.828v2.176h-0.639v-2.441c0-0.254-0.030-0.439-0.091-0.555-0.096-0.175-0.274-0.262-0.535-0.262-0.237 0-0.453 0.092-0.648 0.276s-0.292 0.517-0.292 0.999v1.984h-0.629v-3.741zM71.585 23.742h0.622v0.531c0.149-0.184 0.284-0.318 0.405-0.402 0.207-0.142 0.442-0.213 0.706-0.213 0.298 0 0.538 0.073 0.719 0.22 0.103 0.084 0.196 0.207 0.28 0.37 0.14-0.2 0.304-0.349 0.492-0.445s0.401-0.145 0.636-0.145c0.503 0 0.845 0.181 1.027 0.545 0.098 0.196 0.147 0.459 0.147 0.789v2.49h-0.653v-2.599c0-0.249-0.062-0.42-0.187-0.513s-0.277-0.14-0.456-0.14c-0.247 0-0.459 0.083-0.637 0.248s-0.267 0.441-0.267 0.828v2.176h-0.639v-2.441c0-0.254-0.030-0.439-0.091-0.555-0.095-0.175-0.274-0.262-0.534-0.262-0.238 0-0.453 0.092-0.648 0.276s-0.292 0.517-0.292 0.999v1.984h-0.629v-3.741zM78.025 26.487c0 0.182 0.066 0.325 0.199 0.43s0.29 0.157 0.472 0.157c0.234-0 0.456-0.057 0.651-0.157l-0.008 0.004c0.349-0.17 0.524-0.448 0.524-0.835v-0.506c-0.077 0.049-0.176 0.090-0.297 0.122-0.1 0.028-0.22 0.053-0.344 0.068l-0.012 0.001-0.381 0.049c-0.228 0.030-0.399 0.078-0.513 0.143-0.193 0.11-0.29 0.284-0.29 0.524zM79.548 25.216c0.144-0.019 0.241-0.079 0.29-0.182 0.028-0.056 0.042-0.136 0.042-0.241 0-0.214-0.076-0.37-0.229-0.466s-0.371-0.145-0.655-0.145c-0.328 0-0.561 0.088-0.698 0.265-0.077 0.098-0.127 0.243-0.15 0.437h-0.587c0.012-0.461 0.161-0.782 0.449-0.962s0.621-0.27 1.001-0.27c0.44 0 0.798 0.084 1.072 0.251 0.272 0.168 0.408 0.428 0.408 0.782v2.155c0 0.065 0.014 0.118 0.040 0.157s0.083 0.059 0.169 0.059c0.028 0 0.059-0.002 0.094-0.005 0.045-0.005 0.083-0.010 0.121-0.017l-0.009 0.001v0.465l-0.078 0.021c-0.060 0.016-0.109 0.026-0.145 0.031-0.056 0.007-0.121 0.011-0.187 0.011-0.008 0-0.016-0-0.024-0h0.001c-0.216 0-0.374-0.077-0.472-0.231-0.051-0.081-0.087-0.197-0.108-0.346-0.128 0.168-0.312 0.313-0.552 0.437s-0.504 0.185-0.793 0.185c-0.347 0-0.631-0.105-0.85-0.316s-0.33-0.474-0.33-0.791c0-0.347 0.108-0.616 0.325-0.807s0.501-0.309 0.852-0.353l1.003-0.126zM81.472 22.334h0.611v1.862c0.137-0.179 0.302-0.316 0.493-0.41 0.178-0.089 0.388-0.142 0.61-0.142 0.004 0 0.008 0 0.012 0h-0.001c0.466 0 0.843 0.16 1.133 0.48s0.435 0.792 0.435 1.416c0 0.591-0.143 1.083-0.43 1.474s-0.683 0.587-1.191 0.587c-0.284 0-0.524-0.069-0.719-0.206-0.117-0.081-0.241-0.212-0.374-0.391v0.479h-0.58v-5.148zM83.107 27.046c0.34 0 0.594-0.135 0.763-0.405s0.253-0.626 0.253-1.069c0-0.393-0.084-0.72-0.253-0.978s-0.417-0.388-0.746-0.388c-0.287 0-0.537 0.106-0.753 0.318s-0.323 0.561-0.323 1.048c0 0.351 0.044 0.637 0.133 0.856 0.165 0.412 0.474 0.618 0.926 0.618zM85.517 22.352h0.629v5.131h-0.629v-5.131zM88.646 23.658c0.265 0 0.523 0.062 0.772 0.187s0.439 0.286 0.569 0.484c0.126 0.189 0.21 0.409 0.251 0.66 0.037 0.172 0.056 0.447 0.056 0.824h-2.742c0.012 0.379 0.101 0.684 0.269 0.913s0.427 0.344 0.779 0.344c0.328 0 0.59-0.108 0.786-0.325 0.108-0.121 0.19-0.267 0.236-0.429l0.002-0.008h0.618c-0.016 0.137-0.070 0.291-0.162 0.459s-0.195 0.307-0.309 0.414c-0.191 0.186-0.427 0.312-0.709 0.377-0.151 0.037-0.323 0.056-0.513 0.056-0.466 0-0.86-0.169-1.184-0.508s-0.486-0.813-0.486-1.423c0-0.601 0.163-1.089 0.489-1.464s0.752-0.562 1.278-0.562zM89.649 25.314c-0.026-0.273-0.085-0.49-0.178-0.653-0.172-0.303-0.46-0.454-0.863-0.454-0.289 0-0.531 0.104-0.727 0.312s-0.299 0.473-0.311 0.795h2.078zM93.18 22.697h0.636v1.044h0.597v0.513h-0.597v2.441c0 0.13 0.044 0.218 0.133 0.262 0.049 0.026 0.13 0.038 0.244 0.038l0.064-0.001 0.034-0.001c0.046-0.002 0.089-0.005 0.131-0.010l-0.008 0.001v0.496c-0.064 0.019-0.14 0.035-0.219 0.045l-0.007 0.001c-0.078 0.009-0.162 0.014-0.253 0.014-0.293 0-0.492-0.075-0.597-0.225s-0.157-0.345-0.157-0.585v-2.476h-0.506v-0.513h0.506v-1.044zM96.526 27.077c0.417 0 0.703-0.158 0.857-0.473s0.232-0.666 0.232-1.053c0-0.349-0.056-0.633-0.168-0.852-0.177-0.344-0.482-0.517-0.915-0.517-0.384 0-0.664 0.147-0.838 0.44s-0.262 0.647-0.262 1.062c0 0.398 0.087 0.73 0.262 0.995s0.452 0.398 0.831 0.398zM96.55 23.634c0.482 0 0.889 0.161 1.222 0.482s0.499 0.794 0.499 1.418c0 0.603-0.147 1.101-0.44 1.495s-0.748 0.59-1.365 0.59c-0.515 0-0.923-0.174-1.226-0.522s-0.454-0.816-0.454-1.402c0-0.629 0.159-1.129 0.478-1.502s0.747-0.559 1.285-0.559zM99.648 23.742v2.483c0 0.191 0.030 0.347 0.091 0.468 0.112 0.223 0.32 0.335 0.625 0.335 0.438 0 0.736-0.195 0.894-0.587 0.086-0.21 0.129-0.497 0.129-0.863v-1.837h0.629v3.741h-0.594l0.007-0.552c-0.081 0.141-0.182 0.26-0.302 0.358l-0.002 0.002c-0.24 0.196-0.531 0.294-0.873 0.294-0.533 0-0.896-0.178-1.090-0.535-0.105-0.191-0.157-0.446-0.157-0.765v-2.543h0.643zM103.015 23.742h0.597v0.646c0.049-0.126 0.169-0.279 0.36-0.459s0.411-0.271 0.66-0.271l0.024 0.001 0.070 0.006 0.109 0.011v0.664c-0.029-0.006-0.064-0.011-0.1-0.014l-0.003-0c-0.030-0.002-0.065-0.004-0.1-0.004-0.001 0-0.002 0-0.003 0h0c-0.317 0-0.56 0.102-0.73 0.306-0.159 0.185-0.255 0.427-0.255 0.692 0 0.004 0 0.008 0 0.012v-0.001 2.152h-0.629v-3.741zM105.753 26.309c0.019 0.209 0.071 0.37 0.157 0.482 0.159 0.203 0.433 0.304 0.824 0.304 0.233 0 0.438-0.051 0.615-0.152s0.265-0.258 0.265-0.47c0-0.161-0.071-0.283-0.213-0.367-0.084-0.047-0.245-0.102-0.482-0.164l-0.555-0.14c-0.319-0.079-0.554-0.168-0.706-0.265-0.27-0.17-0.405-0.405-0.405-0.706 0-0.354 0.127-0.64 0.382-0.859s0.598-0.328 1.029-0.328c0.564 0 0.97 0.165 1.219 0.496 0.156 0.209 0.232 0.435 0.227 0.678h-0.594c-0.012-0.148-0.067-0.281-0.151-0.389l0.001 0.002c-0.144-0.165-0.395-0.248-0.751-0.248-0.237 0-0.417 0.045-0.539 0.136s-0.183 0.211-0.183 0.36c0 0.163 0.080 0.293 0.241 0.391 0.093 0.058 0.231 0.109 0.412 0.154l0.415 0.101c0.452 0.11 0.754 0.215 0.908 0.318 0.244 0.161 0.367 0.413 0.367 0.758 0 0.333-0.126 0.621-0.379 0.863s-0.638 0.363-1.154 0.363c-0.556 0-0.951-0.126-1.182-0.379s-0.356-0.565-0.372-0.938h0.604z"></path>
      <path fill="#888692" style="fill: var(--color4, #888692)" d="M40.179 23.759h0.639v3.723h-0.639v-3.723zM40.179 22.352h0.639v0.712h-0.639v-0.712zM41.768 23.742h0.597v0.531c0.177-0.219 0.364-0.376 0.562-0.472s0.418-0.143 0.66-0.143c0.531 0 0.889 0.185 1.076 0.555 0.103 0.203 0.154 0.492 0.154 0.87v2.399h-0.639v-2.357c0-0.228-0.034-0.412-0.101-0.552-0.112-0.233-0.314-0.349-0.608-0.349-0.149 0-0.271 0.015-0.367 0.046-0.172 0.051-0.324 0.154-0.454 0.307-0.105 0.123-0.173 0.251-0.204 0.383s-0.047 0.32-0.047 0.564v1.959h-0.629v-3.741zM46.12 26.309c0.019 0.209 0.071 0.37 0.157 0.482 0.158 0.203 0.433 0.304 0.824 0.304 0.233 0 0.438-0.051 0.615-0.152s0.265-0.258 0.265-0.47c0-0.161-0.071-0.283-0.213-0.367-0.084-0.047-0.245-0.102-0.482-0.164l-0.555-0.14c-0.319-0.079-0.554-0.168-0.706-0.265-0.27-0.17-0.405-0.405-0.405-0.706 0-0.354 0.128-0.64 0.383-0.859s0.598-0.328 1.029-0.328c0.563 0 0.97 0.165 1.219 0.496 0.156 0.209 0.232 0.435 0.227 0.678h-0.594c-0.012-0.148-0.067-0.281-0.151-0.389l0.001 0.002c-0.144-0.165-0.395-0.248-0.751-0.248-0.237 0-0.417 0.045-0.539 0.136s-0.183 0.211-0.183 0.36c0 0.163 0.080 0.293 0.241 0.391 0.093 0.058 0.231 0.109 0.412 0.154l0.416 0.101c0.452 0.11 0.754 0.215 0.908 0.318 0.245 0.161 0.367 0.413 0.367 0.758 0 0.333-0.126 0.621-0.379 0.863s-0.637 0.363-1.154 0.363c-0.557 0-0.951-0.126-1.182-0.379s-0.356-0.565-0.372-0.938h0.604zM49.448 22.697h0.636v1.044h0.597v0.513h-0.597v2.441c0 0.13 0.044 0.218 0.133 0.262 0.049 0.026 0.13 0.038 0.245 0.038l0.063-0.001 0.034-0.001c0.046-0.002 0.089-0.005 0.131-0.010l-0.008 0.001v0.496c-0.064 0.019-0.14 0.035-0.219 0.045l-0.007 0.001c-0.078 0.009-0.162 0.014-0.253 0.014-0.293 0-0.492-0.075-0.597-0.225s-0.157-0.345-0.157-0.585v-2.476h-0.506v-0.513h0.506v-1.044zM51.792 26.487c0 0.182 0.066 0.325 0.199 0.43s0.29 0.157 0.472 0.157c0.234-0 0.456-0.057 0.651-0.157l-0.008 0.004c0.349-0.17 0.524-0.448 0.524-0.835v-0.506c-0.077 0.049-0.176 0.090-0.297 0.122-0.099 0.028-0.22 0.053-0.344 0.068l-0.012 0.001-0.381 0.049c-0.228 0.030-0.399 0.078-0.513 0.143-0.193 0.11-0.29 0.284-0.29 0.524zM53.314 25.216c0.144-0.019 0.241-0.079 0.29-0.182 0.028-0.056 0.042-0.136 0.042-0.241 0-0.214-0.076-0.37-0.229-0.466s-0.371-0.145-0.655-0.145c-0.328 0-0.561 0.088-0.698 0.265-0.077 0.098-0.127 0.243-0.15 0.437h-0.587c0.012-0.461 0.161-0.782 0.449-0.962s0.621-0.27 1.001-0.27c0.44 0 0.798 0.084 1.072 0.251 0.273 0.168 0.409 0.428 0.409 0.782v2.155c0 0.065 0.013 0.118 0.040 0.157s0.083 0.059 0.169 0.059c0.028 0 0.059-0.002 0.094-0.005 0.045-0.005 0.083-0.010 0.121-0.017l-0.009 0.001v0.465l-0.078 0.021c-0.060 0.016-0.109 0.026-0.145 0.031-0.056 0.007-0.121 0.011-0.187 0.011-0.008 0-0.016-0-0.024-0h0.001c-0.216 0-0.374-0.077-0.471-0.231-0.051-0.081-0.087-0.197-0.108-0.346-0.128 0.168-0.312 0.313-0.552 0.437s-0.504 0.185-0.793 0.185c-0.347 0-0.631-0.105-0.85-0.316s-0.33-0.474-0.33-0.791c0-0.347 0.108-0.616 0.325-0.807s0.501-0.309 0.852-0.353l1.002-0.126zM56.608 23.675c0.294 0 0.55 0.072 0.768 0.216 0.119 0.082 0.24 0.2 0.363 0.356v-0.472h0.58v3.402c0 0.475-0.070 0.85-0.209 1.125-0.261 0.508-0.753 0.761-1.477 0.761-0.403 0-0.742-0.090-1.016-0.271s-0.428-0.463-0.461-0.847h0.639c0.030 0.168 0.091 0.297 0.182 0.388 0.142 0.14 0.366 0.21 0.671 0.21 0.482 0 0.797-0.17 0.946-0.51 0.088-0.2 0.129-0.558 0.122-1.072-0.126 0.191-0.277 0.333-0.454 0.426s-0.411 0.14-0.702 0.14c-0.405 0-0.76-0.144-1.064-0.431s-0.456-0.763-0.456-1.427c0-0.626 0.153-1.115 0.459-1.467s0.676-0.527 1.109-0.527zM57.74 25.596c0-0.463-0.095-0.807-0.286-1.030s-0.434-0.335-0.73-0.335c-0.442 0-0.745 0.207-0.908 0.622-0.086 0.221-0.129 0.511-0.129 0.87 0 0.422 0.086 0.742 0.257 0.962s0.401 0.33 0.69 0.33c0.452 0 0.77-0.204 0.954-0.611 0.102-0.231 0.154-0.5 0.154-0.807zM59.283 23.742h0.597v0.646c0.049-0.126 0.169-0.279 0.36-0.459s0.411-0.271 0.66-0.271l0.024 0.001 0.070 0.006 0.109 0.011v0.664c-0.029-0.006-0.064-0.011-0.1-0.014l-0.003-0c-0.030-0.002-0.065-0.004-0.1-0.004-0.001 0-0.002 0-0.003 0h0c-0.317 0-0.56 0.102-0.73 0.306-0.159 0.185-0.255 0.427-0.255 0.692 0 0.004 0 0.008 0 0.012v-0.001 2.152h-0.629v-3.741zM62.13 26.487c0 0.182 0.066 0.325 0.199 0.43s0.29 0.157 0.472 0.157c0.234-0 0.456-0.057 0.651-0.157l-0.008 0.004c0.349-0.17 0.524-0.448 0.524-0.835v-0.506c-0.077 0.049-0.176 0.090-0.297 0.122-0.1 0.028-0.22 0.053-0.344 0.068l-0.012 0.001-0.381 0.049c-0.228 0.030-0.399 0.078-0.514 0.143-0.193 0.11-0.29 0.284-0.29 0.524zM63.653 25.216c0.144-0.019 0.241-0.079 0.29-0.182 0.028-0.056 0.042-0.136 0.042-0.241 0-0.214-0.076-0.37-0.229-0.466s-0.371-0.145-0.655-0.145c-0.328 0-0.561 0.088-0.698 0.265-0.077 0.098-0.127 0.243-0.15 0.437h-0.587c0.012-0.461 0.161-0.782 0.449-0.962s0.621-0.27 1.001-0.27c0.44 0 0.797 0.084 1.072 0.251 0.272 0.168 0.409 0.428 0.409 0.782v2.155c0 0.065 0.013 0.118 0.040 0.157s0.083 0.059 0.169 0.059c0.028 0 0.059-0.002 0.094-0.005 0.045-0.005 0.083-0.010 0.121-0.017l-0.009 0.001v0.465l-0.078 0.021c-0.060 0.016-0.109 0.026-0.145 0.031-0.056 0.007-0.121 0.011-0.187 0.011-0.008 0-0.016-0-0.024-0h0.001c-0.216 0-0.374-0.077-0.472-0.231-0.051-0.081-0.087-0.197-0.108-0.346-0.128 0.168-0.312 0.313-0.552 0.437s-0.504 0.185-0.793 0.185c-0.347 0-0.631-0.105-0.85-0.316s-0.33-0.474-0.33-0.791c0-0.347 0.108-0.616 0.325-0.807s0.501-0.309 0.852-0.353l1.002-0.126zM65.626 23.742h0.622v0.531c0.149-0.184 0.284-0.318 0.405-0.402 0.207-0.142 0.442-0.213 0.706-0.213 0.298 0 0.538 0.073 0.719 0.22 0.102 0.084 0.196 0.207 0.279 0.37 0.14-0.2 0.304-0.349 0.493-0.445s0.4-0.145 0.636-0.145c0.503 0 0.845 0.181 1.027 0.545 0.098 0.196 0.147 0.459 0.147 0.789v2.49h-0.653v-2.599c0-0.249-0.062-0.42-0.187-0.513s-0.277-0.14-0.456-0.14c-0.247 0-0.459 0.083-0.637 0.248s-0.267 0.441-0.267 0.828v2.176h-0.639v-2.441c0-0.254-0.030-0.439-0.091-0.555-0.096-0.175-0.274-0.262-0.535-0.262-0.237 0-0.453 0.092-0.648 0.276s-0.292 0.517-0.292 0.999v1.984h-0.629v-3.741zM71.585 23.742h0.622v0.531c0.149-0.184 0.284-0.318 0.405-0.402 0.207-0.142 0.442-0.213 0.706-0.213 0.298 0 0.538 0.073 0.719 0.22 0.103 0.084 0.196 0.207 0.28 0.37 0.14-0.2 0.304-0.349 0.492-0.445s0.401-0.145 0.636-0.145c0.503 0 0.845 0.181 1.027 0.545 0.098 0.196 0.147 0.459 0.147 0.789v2.49h-0.653v-2.599c0-0.249-0.062-0.42-0.187-0.513s-0.277-0.14-0.456-0.14c-0.247 0-0.459 0.083-0.637 0.248s-0.267 0.441-0.267 0.828v2.176h-0.639v-2.441c0-0.254-0.030-0.439-0.091-0.555-0.095-0.175-0.274-0.262-0.534-0.262-0.238 0-0.453 0.092-0.648 0.276s-0.292 0.517-0.292 0.999v1.984h-0.629v-3.741zM78.025 26.487c0 0.182 0.066 0.325 0.199 0.43s0.29 0.157 0.472 0.157c0.234-0 0.456-0.057 0.651-0.157l-0.008 0.004c0.349-0.17 0.524-0.448 0.524-0.835v-0.506c-0.077 0.049-0.176 0.090-0.297 0.122-0.1 0.028-0.22 0.053-0.344 0.068l-0.012 0.001-0.381 0.049c-0.228 0.030-0.399 0.078-0.513 0.143-0.193 0.11-0.29 0.284-0.29 0.524zM79.548 25.216c0.144-0.019 0.241-0.079 0.29-0.182 0.028-0.056 0.042-0.136 0.042-0.241 0-0.214-0.076-0.37-0.229-0.466s-0.371-0.145-0.655-0.145c-0.328 0-0.561 0.088-0.698 0.265-0.077 0.098-0.127 0.243-0.15 0.437h-0.587c0.012-0.461 0.161-0.782 0.449-0.962s0.621-0.27 1.001-0.27c0.44 0 0.798 0.084 1.072 0.251 0.272 0.168 0.408 0.428 0.408 0.782v2.155c0 0.065 0.014 0.118 0.040 0.157s0.083 0.059 0.169 0.059c0.028 0 0.059-0.002 0.094-0.005 0.045-0.005 0.083-0.010 0.121-0.017l-0.009 0.001v0.465l-0.078 0.021c-0.060 0.016-0.109 0.026-0.145 0.031-0.056 0.007-0.121 0.011-0.187 0.011-0.008 0-0.016-0-0.024-0h0.001c-0.216 0-0.374-0.077-0.472-0.231-0.051-0.081-0.087-0.197-0.108-0.346-0.128 0.168-0.312 0.313-0.552 0.437s-0.504 0.185-0.793 0.185c-0.347 0-0.631-0.105-0.85-0.316s-0.33-0.474-0.33-0.791c0-0.347 0.108-0.616 0.325-0.807s0.501-0.309 0.852-0.353l1.003-0.126zM81.472 22.334h0.611v1.862c0.137-0.179 0.302-0.316 0.493-0.41 0.178-0.089 0.388-0.142 0.61-0.142 0.004 0 0.008 0 0.012 0h-0.001c0.466 0 0.843 0.16 1.133 0.48s0.435 0.792 0.435 1.416c0 0.591-0.143 1.083-0.43 1.474s-0.683 0.587-1.191 0.587c-0.284 0-0.524-0.069-0.719-0.206-0.117-0.081-0.241-0.212-0.374-0.391v0.479h-0.58v-5.148zM83.107 27.046c0.34 0 0.594-0.135 0.763-0.405s0.253-0.626 0.253-1.069c0-0.393-0.084-0.72-0.253-0.978s-0.417-0.388-0.746-0.388c-0.287 0-0.537 0.106-0.753 0.318s-0.323 0.561-0.323 1.048c0 0.351 0.044 0.637 0.133 0.856 0.165 0.412 0.474 0.618 0.926 0.618zM85.517 22.352h0.629v5.131h-0.629v-5.131zM88.646 23.658c0.265 0 0.523 0.062 0.772 0.187s0.439 0.286 0.569 0.484c0.126 0.189 0.21 0.409 0.251 0.66 0.037 0.172 0.056 0.447 0.056 0.824h-2.742c0.012 0.379 0.101 0.684 0.269 0.913s0.427 0.344 0.779 0.344c0.328 0 0.59-0.108 0.786-0.325 0.108-0.121 0.19-0.267 0.236-0.429l0.002-0.008h0.618c-0.016 0.137-0.070 0.291-0.162 0.459s-0.195 0.307-0.309 0.414c-0.191 0.186-0.427 0.312-0.709 0.377-0.151 0.037-0.323 0.056-0.513 0.056-0.466 0-0.86-0.169-1.184-0.508s-0.486-0.813-0.486-1.423c0-0.601 0.163-1.089 0.489-1.464s0.752-0.562 1.278-0.562zM89.649 25.314c-0.026-0.273-0.085-0.49-0.178-0.653-0.172-0.303-0.46-0.454-0.863-0.454-0.289 0-0.531 0.104-0.727 0.312s-0.299 0.473-0.311 0.795h2.078zM93.18 22.697h0.636v1.044h0.597v0.513h-0.597v2.441c0 0.13 0.044 0.218 0.133 0.262 0.049 0.026 0.13 0.038 0.244 0.038l0.064-0.001 0.034-0.001c0.046-0.002 0.089-0.005 0.131-0.010l-0.008 0.001v0.496c-0.064 0.019-0.14 0.035-0.219 0.045l-0.007 0.001c-0.078 0.009-0.162 0.014-0.253 0.014-0.293 0-0.492-0.075-0.597-0.225s-0.157-0.345-0.157-0.585v-2.476h-0.506v-0.513h0.506v-1.044zM96.526 27.077c0.417 0 0.703-0.158 0.857-0.473s0.232-0.666 0.232-1.053c0-0.349-0.056-0.633-0.168-0.852-0.177-0.344-0.482-0.517-0.915-0.517-0.384 0-0.664 0.147-0.838 0.44s-0.262 0.647-0.262 1.062c0 0.398 0.087 0.73 0.262 0.995s0.452 0.398 0.831 0.398zM96.55 23.634c0.482 0 0.889 0.161 1.222 0.482s0.499 0.794 0.499 1.418c0 0.603-0.147 1.101-0.44 1.495s-0.748 0.59-1.365 0.59c-0.515 0-0.923-0.174-1.226-0.522s-0.454-0.816-0.454-1.402c0-0.629 0.159-1.129 0.478-1.502s0.747-0.559 1.285-0.559zM99.648 23.742v2.483c0 0.191 0.030 0.347 0.091 0.468 0.112 0.223 0.32 0.335 0.625 0.335 0.438 0 0.736-0.195 0.894-0.587 0.086-0.21 0.129-0.497 0.129-0.863v-1.837h0.629v3.741h-0.594l0.007-0.552c-0.081 0.141-0.182 0.26-0.302 0.358l-0.002 0.002c-0.24 0.196-0.531 0.294-0.873 0.294-0.533 0-0.896-0.178-1.090-0.535-0.105-0.191-0.157-0.446-0.157-0.765v-2.543h0.643zM103.015 23.742h0.597v0.646c0.049-0.126 0.169-0.279 0.36-0.459s0.411-0.271 0.66-0.271l0.024 0.001 0.070 0.006 0.109 0.011v0.664c-0.029-0.006-0.064-0.011-0.1-0.014l-0.003-0c-0.030-0.002-0.065-0.004-0.1-0.004-0.001 0-0.002 0-0.003 0h0c-0.317 0-0.56 0.102-0.73 0.306-0.159 0.185-0.255 0.427-0.255 0.692 0 0.004 0 0.008 0 0.012v-0.001 2.152h-0.629v-3.741zM105.753 26.309c0.019 0.209 0.071 0.37 0.157 0.482 0.159 0.203 0.433 0.304 0.824 0.304 0.233 0 0.438-0.051 0.615-0.152s0.265-0.258 0.265-0.47c0-0.161-0.071-0.283-0.213-0.367-0.084-0.047-0.245-0.102-0.482-0.164l-0.555-0.14c-0.319-0.079-0.554-0.168-0.706-0.265-0.27-0.17-0.405-0.405-0.405-0.706 0-0.354 0.127-0.64 0.382-0.859s0.598-0.328 1.029-0.328c0.564 0 0.97 0.165 1.219 0.496 0.156 0.209 0.232 0.435 0.227 0.678h-0.594c-0.012-0.148-0.067-0.281-0.151-0.389l0.001 0.002c-0.144-0.165-0.395-0.248-0.751-0.248-0.237 0-0.417 0.045-0.539 0.136s-0.183 0.211-0.183 0.36c0 0.163 0.080 0.293 0.241 0.391 0.093 0.058 0.231 0.109 0.412 0.154l0.415 0.101c0.452 0.11 0.754 0.215 0.908 0.318 0.244 0.161 0.367 0.413 0.367 0.758 0 0.333-0.126 0.621-0.379 0.863s-0.638 0.363-1.154 0.363c-0.556 0-0.951-0.126-1.182-0.379s-0.356-0.565-0.372-0.938h0.604z"></path>
    </symbol>
  </defs>
</svg>