<svg xmlns="http://www.w3.org/2000/svg" aria-hidden="true" style="position:absolute;width:0;height:0;overflow:hidden">
  <defs>
    <symbol id="icon-menu" viewBox="0 0 32 32">
      <path d="M6.4 11.734v-2.134h19.2v2.134h-19.2zM6.4 17.066h19.2v-2.133h-19.2v2.133zM6.4 22.4h19.2v-2.134h-19.2v2.134z"></path>
    </symbol>
    <symbol id="icon-close-btn" viewBox="0 0 32 32">
      <path d="M32 3.223l-3.223-3.223-12.777 12.777-12.777-12.777-3.223 3.223 12.777 12.777-12.777 12.777 3.223 3.223 12.777-12.777 12.777 12.777 3.223-3.223-12.777-12.777 12.777-12.777z"></path>
    </symbol>
    <symbol id="icon-arrow" viewBox="0 0 32 32">
      <path d="M19.414 27.414l10-10c0.781-0.781 0.781-2.047 0-2.828l-10-10c-0.781-0.781-2.047-0.781-2.828 0s-0.781 2.047 0 2.828l6.586 6.586h-19.172c-1.105 0-2 0.895-2 2s0.895 2 2 2h19.172l-6.586 6.586c-0.39 0.39-0.586 0.902-0.586 1.414s0.195 1.024 0.586 1.414c0.781 0.781 2.047 0.781 2.828 0z"></path>
    </symbol>
    <symbol id="icon-facebook" viewBox="0 0 32 32">
      <path d="M19 6h5v-6h-5c-3.86 0-7 3.14-7 7v3h-4v6h4v16h6v-16h5l1-6h-6v-3c0-0.542 0.458-1 1-1z"></path>
    </symbol>
    <symbol id="icon-instagram" viewBox="0 0 32 32">
      <path d="M16 2.881c4.275 0 4.781 0.019 6.462 0.094 1.563 0.069 2.406 0.331 2.969 0.55 0.744 0.288 1.281 0.638 1.837 1.194 0.563 0.563 0.906 1.094 1.2 1.838 0.219 0.563 0.481 1.412 0.55 2.969 0.075 1.688 0.094 2.194 0.094 6.463s-0.019 4.781-0.094 6.463c-0.069 1.563-0.331 2.406-0.55 2.969-0.288 0.744-0.637 1.281-1.194 1.837-0.563 0.563-1.094 0.906-1.837 1.2-0.563 0.219-1.413 0.481-2.969 0.55-1.688 0.075-2.194 0.094-6.463 0.094s-4.781-0.019-6.463-0.094c-1.563-0.069-2.406-0.331-2.969-0.55-0.744-0.288-1.281-0.637-1.838-1.194-0.563-0.563-0.906-1.094-1.2-1.837-0.219-0.563-0.481-1.413-0.55-2.969-0.075-1.688-0.094-2.194-0.094-6.463s0.019-4.781 0.094-6.463c0.069-1.563 0.331-2.406 0.55-2.969 0.288-0.744 0.638-1.281 1.194-1.838 0.563-0.563 1.094-0.906 1.838-1.2 0.563-0.219 1.412-0.481 2.969-0.55 1.681-0.075 2.188-0.094 6.463-0.094zM16 0c-4.344 0-4.887 0.019-6.594 0.094-1.7 0.075-2.869 0.35-3.881 0.744-1.056 0.412-1.95 0.956-2.837 1.85-0.894 0.888-1.438 1.781-1.85 2.831-0.394 1.019-0.669 2.181-0.744 3.881-0.075 1.713-0.094 2.256-0.094 6.6s0.019 4.887 0.094 6.594c0.075 1.7 0.35 2.869 0.744 3.881 0.413 1.056 0.956 1.95 1.85 2.837 0.887 0.887 1.781 1.438 2.831 1.844 1.019 0.394 2.181 0.669 3.881 0.744 1.706 0.075 2.25 0.094 6.594 0.094s4.888-0.019 6.594-0.094c1.7-0.075 2.869-0.35 3.881-0.744 1.050-0.406 1.944-0.956 2.831-1.844s1.438-1.781 1.844-2.831c0.394-1.019 0.669-2.181 0.744-3.881 0.075-1.706 0.094-2.25 0.094-6.594s-0.019-4.887-0.094-6.594c-0.075-1.7-0.35-2.869-0.744-3.881-0.394-1.063-0.938-1.956-1.831-2.844-0.887-0.887-1.781-1.438-2.831-1.844-1.019-0.394-2.181-0.669-3.881-0.744-1.712-0.081-2.256-0.1-6.6-0.1v0z"></path>
      <path d="M16 7.781c-4.537 0-8.219 3.681-8.219 8.219s3.681 8.219 8.219 8.219 8.219-3.681 8.219-8.219c0-4.537-3.681-8.219-8.219-8.219zM16 21.331c-2.944 0-5.331-2.387-5.331-5.331s2.387-5.331 5.331-5.331c2.944 0 5.331 2.387 5.331 5.331s-2.387 5.331-5.331 5.331z"></path>
      <path d="M26.462 7.456c0 1.060-0.859 1.919-1.919 1.919s-1.919-0.859-1.919-1.919c0-1.060 0.859-1.919 1.919-1.919s1.919 0.859 1.919 1.919z"></path>
    </symbol>
    <symbol id="icon-youtube" viewBox="0 0 32 32">
      <path d="M31.681 9.6c0 0-0.313-2.206-1.275-3.175-1.219-1.275-2.581-1.281-3.206-1.356-4.475-0.325-11.194-0.325-11.194-0.325h-0.012c0 0-6.719 0-11.194 0.325-0.625 0.075-1.987 0.081-3.206 1.356-0.963 0.969-1.269 3.175-1.269 3.175s-0.319 2.588-0.319 5.181v2.425c0 2.587 0.319 5.181 0.319 5.181s0.313 2.206 1.269 3.175c1.219 1.275 2.819 1.231 3.531 1.369 2.563 0.244 10.881 0.319 10.881 0.319s6.725-0.012 11.2-0.331c0.625-0.075 1.988-0.081 3.206-1.356 0.962-0.969 1.275-3.175 1.275-3.175s0.319-2.587 0.319-5.181v-2.425c-0.006-2.588-0.325-5.181-0.325-5.181zM12.694 20.15v-8.994l8.644 4.513-8.644 4.481z"></path>
    </symbol>
    <symbol id="icon-logo" viewBox="0 0 114 32">
      <path fill="#ff3c42" style="fill: var(--color1, #ff3c42)" d="M23.040 0h-14.249c-4.856 0-8.791 3.934-8.791 8.791v14.268c0 4.838 3.934 8.791 8.791 8.791h14.268c4.838 0 8.791-3.934 8.791-8.791v-14.268c-0.019-4.856-3.972-8.791-8.809-8.791zM29.007 23.040c0 3.294-2.673 5.967-5.967 5.967h-14.249c-3.294 0-5.967-2.673-5.967-5.967v-14.249c0-3.294 2.673-5.967 5.967-5.967h14.268c3.294 0 5.967 2.673 5.967 5.967v14.249h-0.019z"></path>
      <path fill="#ff3c42" style="fill: var(--color1, #ff3c42)" d="M15.906 7.718c-4.518 0-8.188 3.671-8.188 8.188s3.671 8.207 8.207 8.207 8.207-3.671 8.207-8.207c-0.019-4.518-3.689-8.188-8.226-8.188zM15.906 21.289c-2.955 0-5.384-2.409-5.384-5.384 0.019-2.955 2.428-5.365 5.384-5.365s5.384 2.409 5.384 5.384c0 2.955-2.409 5.365-5.384 5.365z"></path>
      <path fill="#ff3c42" style="fill: var(--color1, #ff3c42)" d="M24.452 5.327c-0.546 0-1.073 0.226-1.468 0.602s-0.602 0.922-0.602 1.468c0 0.546 0.226 1.073 0.602 1.468 0.376 0.376 0.922 0.602 1.468 0.602s1.073-0.226 1.468-0.602c0.395-0.376 0.602-0.922 0.602-1.468s-0.226-1.073-0.602-1.468c-0.376-0.395-0.922-0.602-1.468-0.602z"></path>
      <path fill="#3f3631" style="fill: var(--color2, #3f3631)" d="M43.539 15.624h-2.899v-12.047h2.899zM48.151 6.682l0.094 1.054c0.621-0.809 1.468-1.224 2.56-1.224 0.941 0 1.619 0.282 2.089 0.828 0.452 0.565 0.696 1.393 0.715 2.522v5.76h-2.805v-5.647c0-0.452-0.094-0.791-0.282-0.998s-0.508-0.32-0.998-0.32c-0.546 0-0.96 0.207-1.224 0.64v6.325h-2.786v-8.941h2.635zM60.009 13.101c0-0.245-0.132-0.433-0.376-0.565s-0.715-0.301-1.412-0.452c-0.696-0.151-1.261-0.358-1.713-0.602s-0.791-0.565-1.035-0.922c-0.245-0.358-0.358-0.772-0.358-1.224 0-0.828 0.339-1.506 1.016-2.033s1.562-0.791 2.673-0.791c1.186 0 2.127 0.264 2.842 0.809s1.073 1.242 1.073 2.108h-2.805c0-0.715-0.376-1.073-1.129-1.073-0.301 0-0.546 0.075-0.734 0.245s-0.301 0.358-0.301 0.602c0 0.245 0.113 0.452 0.358 0.602s0.621 0.282 1.167 0.376c0.527 0.094 0.998 0.226 1.393 0.358 1.336 0.471 2.014 1.299 2.014 2.485 0 0.809-0.358 1.487-1.092 1.995s-1.656 0.772-2.824 0.772c-0.772 0-1.449-0.132-2.052-0.414s-1.073-0.659-1.412-1.129c-0.339-0.471-0.508-0.979-0.508-1.506h2.598c0.019 0.414 0.151 0.715 0.414 0.904s0.602 0.282 1.016 0.282c0.376 0 0.659-0.075 0.847-0.226 0.245-0.151 0.339-0.339 0.339-0.602zM67.407 4.442v2.221h1.468v1.939h-1.468v4.104c0 0.339 0.056 0.565 0.188 0.696s0.358 0.207 0.715 0.207c0.282 0 0.508-0.019 0.696-0.056v1.995c-0.508 0.151-1.016 0.245-1.562 0.245-0.96 0-1.675-0.226-2.127-0.678s-0.678-1.129-0.678-2.052v-4.461h-1.148v-1.92h1.148v-2.24h2.767zM75.181 15.624c-0.094-0.188-0.188-0.452-0.264-0.809-0.508 0.64-1.224 0.96-2.146 0.96-0.847 0-1.562-0.264-2.146-0.772s-0.885-1.148-0.885-1.92c0-0.979 0.358-1.713 1.073-2.202s1.751-0.753 3.125-0.753h0.866v-0.471c0-0.828-0.358-1.242-1.073-1.242-0.659 0-0.998 0.32-0.998 0.979h-2.786c0-0.866 0.376-1.562 1.111-2.108s1.675-0.809 2.824-0.809 2.052 0.282 2.711 0.828c0.659 0.546 0.998 1.318 1.016 2.296v3.953c0.019 0.828 0.132 1.449 0.376 1.882v0.188h-2.805zM73.449 13.798c0.339 0 0.64-0.075 0.866-0.226s0.395-0.32 0.489-0.508v-1.431h-0.809c-0.979 0-1.449 0.433-1.449 1.299 0 0.245 0.094 0.452 0.264 0.621 0.151 0.169 0.376 0.245 0.64 0.245z"></path>
      <path fill="#ff3c42" style="fill: var(--color1, #ff3c42)" d="M79.605 14.456c0-0.376 0.132-0.696 0.376-0.922s0.584-0.358 0.96-0.358c0.395 0 0.715 0.113 0.979 0.358s0.376 0.546 0.376 0.922c0 0.376-0.132 0.678-0.376 0.922-0.245 0.226-0.584 0.358-0.979 0.358s-0.715-0.113-0.96-0.358c-0.245-0.245-0.376-0.546-0.376-0.922z"></path>
      <path fill="#3f3631" style="fill: var(--color2, #3f3631)" d="M93.289 5.816h-3.614v9.807h-2.899v-9.807h-3.558v-2.24h10.071zM99.426 9.205l-0.922-0.075c-0.885 0-1.431 0.282-1.694 0.828v5.666h-2.786v-8.941h2.616l0.094 1.148c0.471-0.885 1.129-1.318 1.958-1.318 0.301 0 0.565 0.038 0.772 0.094l-0.038 2.598zM100.593 4.367c0-0.395 0.151-0.715 0.433-0.979 0.282-0.245 0.659-0.376 1.111-0.376s0.828 0.132 1.111 0.376 0.433 0.584 0.433 0.979-0.151 0.715-0.433 0.979c-0.282 0.245-0.659 0.376-1.111 0.376s-0.828-0.132-1.111-0.376c-0.301-0.264-0.433-0.584-0.433-0.979zM103.548 15.624h-2.805v-8.941h2.805v8.941zM113.751 11.219c0 1.393-0.32 2.504-0.941 3.332s-1.468 1.242-2.541 1.242c-0.828 0-1.506-0.301-2.033-0.904v4.179h-2.786v-12.386h2.598l0.075 0.828c0.527-0.659 1.242-0.998 2.108-0.998 1.111 0 1.958 0.414 2.579 1.224s0.922 1.939 0.922 3.351v0.132h0.019zM110.946 11.049c0-1.581-0.471-2.391-1.393-2.391-0.659 0-1.111 0.245-1.318 0.715v3.52c0.245 0.489 0.696 0.753 1.336 0.753 0.885 0 1.336-0.772 1.374-2.296v-0.301z"></path>
      <path fill="#000" style="fill: var(--color3, #000)" d="M40.179 23.759h0.639v3.723h-0.639v-3.723zM40.179 22.352h0.639v0.712h-0.639v-0.712zM41.768 23.742h0.597v0.531c0.177-0.219 0.364-0.376 0.562-0.472s0.418-0.143 0.66-0.143c0.531 0 0.889 0.185 1.076 0.555 0.103 0.203 0.154 0.492 0.154 0.87v2.399h-0.639v-2.357c0-0.228-0.034-0.412-0.101-0.552-0.112-0.233-0.314-0.349-0.608-0.349-0.149 0-0.271 0.015-0.367 0.046-0.172 0.051-0.324 0.154-0.454 0.307-0.105 0.123-0.173 0.251-0.204 0.383s-0.047 0.32-0.047 0.564v1.959h-0.629v-3.741zM46.12 26.309c0.019 0.209 0.071 0.37 0.157 0.482 0.158 0.203 0.433 0.304 0.824 0.304 0.233 0 0.438-0.051 0.615-0.152s0.265-0.258 0.265-0.47c0-0.161-0.071-0.283-0.213-0.367-0.084-0.047-0.245-0.102-0.482-0.164l-0.555-0.14c-0.319-0.079-0.554-0.168-0.706-0.265-0.27-0.17-0.405-0.405-0.405-0.706 0-0.354 0.128-0.64 0.383-0.859s0.598-0.328 1.029-0.328c0.563 0 0.97 0.165 1.219 0.496 0.156 0.209 0.232 0.435 0.227 0.678h-0.594c-0.012-0.148-0.067-0.281-0.151-0.389l0.001 0.002c-0.144-0.165-0.395-0.248-0.751-0.248-0.237 0-0.417 0.045-0.539 0.136s-0.183 0.211-0.183 0.36c0 0.163 0.080 0.293 0.241 0.391 0.093 0.058 0.231 0.109 0.412 0.154l0.416 0.101c0.452 0.11 0.754 0.215 0.908 0.318 0.245 0.161 0.367 0.413 0.367 0.758 0 0.333-0.126 0.621-0.379 0.863s-0.637 0.363-1.154 0.363c-0.557 0-0.951-0.126-1.182-0.379s-0.356-0.565-0.372-0.938h0.604zM49.448 22.697h0.636v1.044h0.597v0.513h-0.597v2.441c0 0.13 0.044 0.218 0.133 0.262 0.049 0.026 0.13 0.038 0.245 0.038l0.063-0.001 0.034-0.001c0.046-0.002 0.089-0.005 0.131-0.010l-0.008 0.001v0.496c-0.064 0.019-0.14 0.035-0.219 0.045l-0.007 0.001c-0.078 0.009-0.162 0.014-0.253 0.014-0.293 0-0.492-0.075-0.597-0.225s-0.157-0.345-0.157-0.585v-2.476h-0.506v-0.513h0.506v-1.044zM51.792 26.487c0 0.182 0.066 0.325 0.199 0.43s0.29 0.157 0.472 0.157c0.234-0 0.456-0.057 0.651-0.157l-0.008 0.004c0.349-0.17 0.524-0.448 0.524-0.835v-0.506c-0.077 0.049-0.176 0.090-0.297 0.122-0.099 0.028-0.22 0.053-0.344 0.068l-0.012 0.001-0.381 0.049c-0.228 0.030-0.399 0.078-0.513 0.143-0.193 0.11-0.29 0.284-0.29 0.524zM53.314 25.216c0.144-0.019 0.241-0.079 0.29-0.182 0.028-0.056 0.042-0.136 0.042-0.241 0-0.214-0.076-0.37-0.229-0.466s-0.371-0.145-0.655-0.145c-0.328 0-0.561 0.088-0.698 0.265-0.077 0.098-0.127 0.243-0.15 0.437h-0.587c0.012-0.461 0.161-0.782 0.449-0.962s0.621-0.27 1.001-0.27c0.44 0 0.798 0.084 1.072 0.251 0.273 0.168 0.409 0.428 0.409 0.782v2.155c0 0.065 0.013 0.118 0.040 0.157s0.083 0.059 0.169 0.059c0.028 0 0.059-0.002 0.094-0.005 0.045-0.005 0.083-0.010 0.121-0.017l-0.009 0.001v0.465l-0.078 0.021c-0.060 0.016-0.109 0.026-0.145 0.031-0.056 0.007-0.121 0.011-0.187 0.011-0.008 0-0.016-0-0.024-0h0.001c-0.216 0-0.374-0.077-0.471-0.231-0.051-0.081-0.087-0.197-0.108-0.346-0.128 0.168-0.312 0.313-0.552 0.437s-0.504 0.185-0.793 0.185c-0.347 0-0.631-0.105-0.85-0.316s-0.33-0.474-0.33-0.791c0-0.347 0.108-0.616 0.325-0.807s0.501-0.309 0.852-0.353l1.002-0.126zM56.608 23.675c0.294 0 0.55 0.072 0.768 0.216 0.119 0.082 0.24 0.2 0.363 0.356v-0.472h0.58v3.402c0 0.475-0.070 0.85-0.209 1.125-0.261 0.508-0.753 0.761-1.477 0.761-0.403 0-0.742-0.090-1.016-0.271s-0.428-0.463-0.461-0.847h0.639c0.030 0.168 0.091 0.297 0.182 0.388 0.142 0.14 0.366 0.21 0.671 0.21 0.482 0 0.797-0.17 0.946-0.51 0.088-0.2 0.129-0.558 0.122-1.072-0.126 0.191-0.277 0.333-0.454 0.426s-0.411 0.14-0.702 0.14c-0.405 0-0.76-0.144-1.064-0.431s-0.456-0.763-0.456-1.427c0-0.626 0.153-1.115 0.459-1.467s0.676-0.527 1.109-0.527zM57.74 25.596c0-0.463-0.095-0.807-0.286-1.030s-0.434-0.335-0.73-0.335c-0.442 0-0.745 0.207-0.908 0.622-0.086 0.221-0.129 0.511-0.129 0.87 0 0.422 0.086 0.742 0.257 0.962s0.401 0.33 0.69 0.33c0.452 0 0.77-0.204 0.954-0.611 0.102-0.231 0.154-0.5 0.154-0.807zM59.283 23.742h0.597v0.646c0.049-0.126 0.169-0.279 0.36-0.459s0.411-0.271 0.66-0.271l0.024 0.001 0.070 0.006 0.109 0.011v0.664c-0.029-0.006-0.064-0.011-0.1-0.014l-0.003-0c-0.030-0.002-0.065-0.004-0.1-0.004-0.001 0-0.002 0-0.003 0h0c-0.317 0-0.56 0.102-0.73 0.306-0.159 0.185-0.255 0.427-0.255 0.692 0 0.004 0 0.008 0 0.012v-0.001 2.152h-0.629v-3.741zM62.13 26.487c0 0.182 0.066 0.325 0.199 0.43s0.29 0.157 0.472 0.157c0.234-0 0.456-0.057 0.651-0.157l-0.008 0.004c0.349-0.17 0.524-0.448 0.524-0.835v-0.506c-0.077 0.049-0.176 0.090-0.297 0.122-0.1 0.028-0.22 0.053-0.344 0.068l-0.012 0.001-0.381 0.049c-0.228 0.030-0.399 0.078-0.514 0.143-0.193 0.11-0.29 0.284-0.29 0.524zM63.653 25.216c0.144-0.019 0.241-0.079 0.29-0.182 0.028-0.056 0.042-0.136 0.042-0.241 0-0.214-0.076-0.37-0.229-0.466s-0.371-0.145-0.655-0.145c-0.328 0-0.561 0.088-0.698 0.265-0.077 0.098-0.127 0.243-0.15 0.437h-0.587c0.012-0.461 0.161-0.782 0.449-0.962s0.621-0.27 1.001-0.27c0.44 0 0.797 0.084 1.072 0.251 0.272 0.168 0.409 0.428 0.409 0.782v2.155c0 0.065 0.013 0.118 0.040 0.157s0.083 0.059 0.169 0.059c0.028 0 0.059-0.002 0.094-0.005 0.045-0.005 0.083-0.010 0.121-0.017l-0.009 0.001v0.465l-0.078 0.021c-0.060 0.016-0.109 0.026-0.145 0.031-0.056 0.007-0.121 0.011-0.187 0.011-0.008 0-0.016-0-0.024-0h0.001c-0.216 0-0.374-0.077-0.472-0.231-0.051-0.081-0.087-0.197-0.108-0.346-0.128 0.168-0.312 0.313-0.552 0.437s-0.504 0.185-0.793 0.185c-0.347 0-0.631-0.105-0.85-0.316s-0.33-0.474-0.33-0.791c0-0.347 0.108-0.616 0.325-0.807s0.501-0.309 0.852-0.353l1.002-0.126zM65.626 23.742h0.622v0.531c0.149-0.184 0.284-0.318 0.405-0.402 0.207-0.142 0.442-0.213 0.706-0.213 0.298 0 0.538 0.073 0.719 0.22 0.102 0.084 0.196 0.207 0.279 0.37 0.14-0.2 0.304-0.349 0.493-0.445s0.4-0.145 0.636-0.145c0.503 0 0.845 0.181 1.027 0.545 0.098 0.196 0.147 0.459 0.147 0.789v2.49h-0.653v-2.599c0-0.249-0.062-0.42-0.187-0.513s-0.277-0.14-0.456-0.14c-0.247 0-0.459 0.083-0.637 0.248s-0.267 0.441-0.267 0.828v2.176h-0.639v-2.441c0-0.254-0.030-0.439-0.091-0.555-0.096-0.175-0.274-0.262-0.535-0.262-0.237 0-0.453 0.092-0.648 0.276s-0.292 0.517-0.292 0.999v1.984h-0.629v-3.741zM71.585 23.742h0.622v0.531c0.149-0.184 0.284-0.318 0.405-0.402 0.207-0.142 0.442-0.213 0.706-0.213 0.298 0 0.538 0.073 0.719 0.22 0.103 0.084 0.196 0.207 0.28 0.37 0.14-0.2 0.304-0.349 0.492-0.445s0.401-0.145 0.636-0.145c0.503 0 0.845 0.181 1.027 0.545 0.098 0.196 0.147 0.459 0.147 0.789v2.49h-0.653v-2.599c0-0.249-0.062-0.42-0.187-0.513s-0.277-0.14-0.456-0.14c-0.247 0-0.459 0.083-0.637 0.248s-0.267 0.441-0.267 0.828v2.176h-0.639v-2.441c0-0.254-0.030-0.439-0.091-0.555-0.095-0.175-0.274-0.262-0.534-0.262-0.238 0-0.453 0.092-0.648 0.276s-0.292 0.517-0.292 0.999v1.984h-0.629v-3.741zM78.025 26.487c0 0.182 0.066 0.325 0.199 0.43s0.29 0.157 0.472 0.157c0.234-0 0.456-0.057 0.651-0.157l-0.008 0.004c0.349-0.17 0.524-0.448 0.524-0.835v-0.506c-0.077 0.049-0.176 0.090-0.297 0.122-0.1 0.028-0.22 0.053-0.344 0.068l-0.012 0.001-0.381 0.049c-0.228 0.030-0.399 0.078-0.513 0.143-0.193 0.11-0.29 0.284-0.29 0.524zM79.548 25.216c0.144-0.019 0.241-0.079 0.29-0.182 0.028-0.056 0.042-0.136 0.042-0.241 0-0.214-0.076-0.37-0.229-0.466s-0.371-0.145-0.655-0.145c-0.328 0-0.561 0.088-0.698 0.265-0.077 0.098-0.127 0.243-0.15 0.437h-0.587c0.012-0.461 0.161-0.782 0.449-0.962s0.621-0.27 1.001-0.27c0.44 0 0.798 0.084 1.072 0.251 0.272 0.168 0.408 0.428 0.408 0.782v2.155c0 0.065 0.014 0.118 0.040 0.157s0.083 0.059 0.169 0.059c0.028 0 0.059-0.002 0.094-0.005 0.045-0.005 0.083-0.010 0.121-0.017l-0.009 0.001v0.465l-0.078 0.021c-0.060 0.016-0.109 0.026-0.145 0.031-0.056 0.007-0.121 0.011-0.187 0.011-0.008 0-0.016-0-0.024-0h0.001c-0.216 0-0.374-0.077-0.472-0.231-0.051-0.081-0.087-0.197-0.108-0.346-0.128 0.168-0.312 0.313-0.552 0.437s-0.504 0.185-0.793 0.185c-0.347 0-0.631-0.105-0.85-0.316s-0.33-0.474-0.33-0.791c0-0.347 0.108-0.616 0.325-0.807s0.501-0.309 0.852-0.353l1.003-0.126zM81.472 22.334h0.611v1.862c0.137-0.179 0.302-0.316 0.493-0.41 0.178-0.089 0.388-0.142 0.61-0.142 0.004 0 0.008 0 0.012 0h-0.001c0.466 0 0.843 0.16 1.133 0.48s0.435 0.792 0.435 1.416c0 0.591-0.143 1.083-0.43 1.474s-0.683 0.587-1.191 0.587c-0.284 0-0.524-0.069-0.719-0.206-0.117-0.081-0.241-0.212-0.374-0.391v0.479h-0.58v-5.148zM83.107 27.046c0.34 0 0.594-0.135 0.763-0.405s0.253-0.626 0.253-1.069c0-0.393-0.084-0.72-0.253-0.978s-0.417-0.388-0.746-0.388c-0.287 0-0.537 0.106-0.753 0.318s-0.323 0.561-0.323 1.048c0 0.351 0.044 0.637 0.133 0.856 0.165 0.412 0.474 0.618 0.926 0.618zM85.517 22.352h0.629v5.131h-0.629v-5.131zM88.646 23.658c0.265 0 0.523 0.062 0.772 0.187s0.439 0.286 0.569 0.484c0.126 0.189 0.21 0.409 0.251 0.66 0.037 0.172 0.056 0.447 0.056 0.824h-2.742c0.012 0.379 0.101 0.684 0.269 0.913s0.427 0.344 0.779 0.344c0.328 0 0.59-0.108 0.786-0.325 0.108-0.121 0.19-0.267 0.236-0.429l0.002-0.008h0.618c-0.016 0.137-0.070 0.291-0.162 0.459s-0.195 0.307-0.309 0.414c-0.191 0.186-0.427 0.312-0.709 0.377-0.151 0.037-0.323 0.056-0.513 0.056-0.466 0-0.86-0.169-1.184-0.508s-0.486-0.813-0.486-1.423c0-0.601 0.163-1.089 0.489-1.464s0.752-0.562 1.278-0.562zM89.649 25.314c-0.026-0.273-0.085-0.49-0.178-0.653-0.172-0.303-0.46-0.454-0.863-0.454-0.289 0-0.531 0.104-0.727 0.312s-0.299 0.473-0.311 0.795h2.078zM93.18 22.697h0.636v1.044h0.597v0.513h-0.597v2.441c0 0.13 0.044 0.218 0.133 0.262 0.049 0.026 0.13 0.038 0.244 0.038l0.064-0.001 0.034-0.001c0.046-0.002 0.089-0.005 0.131-0.010l-0.008 0.001v0.496c-0.064 0.019-0.14 0.035-0.219 0.045l-0.007 0.001c-0.078 0.009-0.162 0.014-0.253 0.014-0.293 0-0.492-0.075-0.597-0.225s-0.157-0.345-0.157-0.585v-2.476h-0.506v-0.513h0.506v-1.044zM96.526 27.077c0.417 0 0.703-0.158 0.857-0.473s0.232-0.666 0.232-1.053c0-0.349-0.056-0.633-0.168-0.852-0.177-0.344-0.482-0.517-0.915-0.517-0.384 0-0.664 0.147-0.838 0.44s-0.262 0.647-0.262 1.062c0 0.398 0.087 0.73 0.262 0.995s0.452 0.398 0.831 0.398zM96.55 23.634c0.482 0 0.889 0.161 1.222 0.482s0.499 0.794 0.499 1.418c0 0.603-0.147 1.101-0.44 1.495s-0.748 0.59-1.365 0.59c-0.515 0-0.923-0.174-1.226-0.522s-0.454-0.816-0.454-1.402c0-0.629 0.159-1.129 0.478-1.502s0.747-0.559 1.285-0.559zM99.648 23.742v2.483c0 0.191 0.030 0.347 0.091 0.468 0.112 0.223 0.32 0.335 0.625 0.335 0.438 0 0.736-0.195 0.894-0.587 0.086-0.21 0.129-0.497 0.129-0.863v-1.837h0.629v3.741h-0.594l0.007-0.552c-0.081 0.141-0.182 0.26-0.302 0.358l-0.002 0.002c-0.24 0.196-0.531 0.294-0.873 0.294-0.533 0-0.896-0.178-1.090-0.535-0.105-0.191-0.157-0.446-0.157-0.765v-2.543h0.643zM103.015 23.742h0.597v0.646c0.049-0.126 0.169-0.279 0.36-0.459s0.411-0.271 0.66-0.271l0.024 0.001 0.070 0.006 0.109 0.011v0.664c-0.029-0.006-0.064-0.011-0.1-0.014l-0.003-0c-0.030-0.002-0.065-0.004-0.1-0.004-0.001 0-0.002 0-0.003 0h0c-0.317 0-0.56 0.102-0.73 0.306-0.159 0.185-0.255 0.427-0.255 0.692 0 0.004 0 0.008 0 0.012v-0.001 2.152h-0.629v-3.741zM105.753 26.309c0.019 0.209 0.071 0.37 0.157 0.482 0.159 0.203 0.433 0.304 0.824 0.304 0.233 0 0.438-0.051 0.615-0.152s0.265-0.258 0.265-0.47c0-0.161-0.071-0.283-0.213-0.367-0.084-0.047-0.245-0.102-0.482-0.164l-0.555-0.14c-0.319-0.079-0.554-0.168-0.706-0.265-0.27-0.17-0.405-0.405-0.405-0.706 0-0.354 0.127-0.64 0.382-0.859s0.598-0.328 1.029-0.328c0.564 0 0.97 0.165 1.219 0.496 0.156 0.209 0.232 0.435 0.227 0.678h-0.594c-0.012-0.148-0.067-0.281-0.151-0.389l0.001 0.002c-0.144-0.165-0.395-0.248-0.751-0.248-0.237 0-0.417 0.045-0.539 0.136s-0.183 0.211-0.183 0.36c0 0.163 0.080 0.293 0.241 0.391 0.093 0.058 0.231 0.109 0.412 0.154l0.415 0.101c0.452 0.11 0.754 0.215 0.908 0.318 0.244 0.161 0.367 0.413 0.367 0.758 0 0.333-0.126 0.621-0.379 0.863s-0.638 0.363-1.154 0.363c-0.556 0-0.951-0.126-1.182-0.379s-0.356-0.565-0.372-0.938h0.604z"></path>
      <path fill="#888692" style="fill: var(--color4, #888692)" d="M40.179 23.759h0.639v3.723h-0.639v-3.723zM40.179 22.352h0.639v0.712h-0.639v-0.712zM41.768 23.742h0.597v0.531c0.177-0.219 0.364-0.376 0.562-0.472s0.418-0.143 0.66-0.143c0.531 0 0.889 0.185 1.076 0.555 0.103 0.203 0.154 0.492 0.154 0.87v2.399h-0.639v-2.357c0-0.228-0.034-0.412-0.101-0.552-0.112-0.233-0.314-0.349-0.608-0.349-0.149 0-0.271 0.015-0.367 0.046-0.172 0.051-0.324 0.154-0.454 0.307-0.105 0.123-0.173 0.251-0.204 0.383s-0.047 0.32-0.047 0.564v1.959h-0.629v-3.741zM46.12 26.309c0.019 0.209 0.071 0.37 0.157 0.482 0.158 0.203 0.433 0.304 0.824 0.304 0.233 0 0.438-0.051 0.615-0.152s0.265-0.258 0.265-0.47c0-0.161-0.071-0.283-0.213-0.367-0.084-0.047-0.245-0.102-0.482-0.164l-0.555-0.14c-0.319-0.079-0.554-0.168-0.706-0.265-0.27-0.17-0.405-0.405-0.405-0.706 0-0.354 0.128-0.64 0.383-0.859s0.598-0.328 1.029-0.328c0.563 0 0.97 0.165 1.219 0.496 0.156 0.209 0.232 0.435 0.227 0.678h-0.594c-0.012-0.148-0.067-0.281-0.151-0.389l0.001 0.002c-0.144-0.165-0.395-0.248-0.751-0.248-0.237 0-0.417 0.045-0.539 0.136s-0.183 0.211-0.183 0.36c0 0.163 0.080 0.293 0.241 0.391 0.093 0.058 0.231 0.109 0.412 0.154l0.416 0.101c0.452 0.11 0.754 0.215 0.908 0.318 0.245 0.161 0.367 0.413 0.367 0.758 0 0.333-0.126 0.621-0.379 0.863s-0.637 0.363-1.154 0.363c-0.557 0-0.951-0.126-1.182-0.379s-0.356-0.565-0.372-0.938h0.604zM49.448 22.697h0.636v1.044h0.597v0.513h-0.597v2.441c0 0.13 0.044 0.218 0.133 0.262 0.049 0.026 0.13 0.038 0.245 0.038l0.063-0.001 0.034-0.001c0.046-0.002 0.089-0.005 0.131-0.010l-0.008 0.001v0.496c-0.064 0.019-0.14 0.035-0.219 0.045l-0.007 0.001c-0.078 0.009-0.162 0.014-0.253 0.014-0.293 0-0.492-0.075-0.597-0.225s-0.157-0.345-0.157-0.585v-2.476h-0.506v-0.513h0.506v-1.044zM51.792 26.487c0 0.182 0.066 0.325 0.199 0.43s0.29 0.157 0.472 0.157c0.234-0 0.456-0.057 0.651-0.157l-0.008 0.004c0.349-0.17 0.524-0.448 0.524-0.835v-0.506c-0.077 0.049-0.176 0.090-0.297 0.122-0.099 0.028-0.22 0.053-0.344 0.068l-0.012 0.001-0.381 0.049c-0.228 0.030-0.399 0.078-0.513 0.143-0.193 0.11-0.29 0.284-0.29 0.524zM53.314 25.216c0.144-0.019 0.241-0.079 0.29-0.182 0.028-0.056 0.042-0.136 0.042-0.241 0-0.214-0.076-0.37-0.229-0.466s-0.371-0.145-0.655-0.145c-0.328 0-0.561 0.088-0.698 0.265-0.077 0.098-0.127 0.243-0.15 0.437h-0.587c0.012-0.461 0.161-0.782 0.449-0.962s0.621-0.27 1.001-0.27c0.44 0 0.798 0.084 1.072 0.251 0.273 0.168 0.409 0.428 0.409 0.782v2.155c0 0.065 0.013 0.118 0.040 0.157s0.083 0.059 0.169 0.059c0.028 0 0.059-0.002 0.094-0.005 0.045-0.005 0.083-0.010 0.121-0.017l-0.009 0.001v0.465l-0.078 0.021c-0.060 0.016-0.109 0.026-0.145 0.031-0.056 0.007-0.121 0.011-0.187 0.011-0.008 0-0.016-0-0.024-0h0.001c-0.216 0-0.374-0.077-0.471-0.231-0.051-0.081-0.087-0.197-0.108-0.346-0.128 0.168-0.312 0.313-0.552 0.437s-0.504 0.185-0.793 0.185c-0.347 0-0.631-0.105-0.85-0.316s-0.33-0.474-0.33-0.791c0-0.347 0.108-0.616 0.325-0.807s0.501-0.309 0.852-0.353l1.002-0.126zM56.608 23.675c0.294 0 0.55 0.072 0.768 0.216 0.119 0.082 0.24 0.2 0.363 0.356v-0.472h0.58v3.402c0 0.475-0.070 0.85-0.209 1.125-0.261 0.508-0.753 0.761-1.477 0.761-0.403 0-0.742-0.090-1.016-0.271s-0.428-0.463-0.461-0.847h0.639c0.030 0.168 0.091 0.297 0.182 0.388 0.142 0.14 0.366 0.21 0.671 0.21 0.482 0 0.797-0.17 0.946-0.51 0.088-0.2 0.129-0.558 0.122-1.072-0.126 0.191-0.277 0.333-0.454 0.426s-0.411 0.14-0.702 0.14c-0.405 0-0.76-0.144-1.064-0.431s-0.456-0.763-0.456-1.427c0-0.626 0.153-1.115 0.459-1.467s0.676-0.527 1.109-0.527zM57.74 25.596c0-0.463-0.095-0.807-0.286-1.030s-0.434-0.335-0.73-0.335c-0.442 0-0.745 0.207-0.908 0.622-0.086 0.221-0.129 0.511-0.129 0.87 0 0.422 0.086 0.742 0.257 0.962s0.401 0.33 0.69 0.33c0.452 0 0.77-0.204 0.954-0.611 0.102-0.231 0.154-0.5 0.154-0.807zM59.283 23.742h0.597v0.646c0.049-0.126 0.169-0.279 0.36-0.459s0.411-0.271 0.66-0.271l0.024 0.001 0.070 0.006 0.109 0.011v0.664c-0.029-0.006-0.064-0.011-0.1-0.014l-0.003-0c-0.030-0.002-0.065-0.004-0.1-0.004-0.001 0-0.002 0-0.003 0h0c-0.317 0-0.56 0.102-0.73 0.306-0.159 0.185-0.255 0.427-0.255 0.692 0 0.004 0 0.008 0 0.012v-0.001 2.152h-0.629v-3.741zM62.13 26.487c0 0.182 0.066 0.325 0.199 0.43s0.29 0.157 0.472 0.157c0.234-0 0.456-0.057 0.651-0.157l-0.008 0.004c0.349-0.17 0.524-0.448 0.524-0.835v-0.506c-0.077 0.049-0.176 0.090-0.297 0.122-0.1 0.028-0.22 0.053-0.344 0.068l-0.012 0.001-0.381 0.049c-0.228 0.030-0.399 0.078-0.514 0.143-0.193 0.11-0.29 0.284-0.29 0.524zM63.653 25.216c0.144-0.019 0.241-0.079 0.29-0.182 0.028-0.056 0.042-0.136 0.042-0.241 0-0.214-0.076-0.37-0.229-0.466s-0.371-0.145-0.655-0.145c-0.328 0-0.561 0.088-0.698 0.265-0.077 0.098-0.127 0.243-0.15 0.437h-0.587c0.012-0.461 0.161-0.782 0.449-0.962s0.621-0.27 1.001-0.27c0.44 0 0.797 0.084 1.072 0.251 0.272 0.168 0.409 0.428 0.409 0.782v2.155c0 0.065 0.013 0.118 0.040 0.157s0.083 0.059 0.169 0.059c0.028 0 0.059-0.002 0.094-0.005 0.045-0.005 0.083-0.010 0.121-0.017l-0.009 0.001v0.465l-0.078 0.021c-0.060 0.016-0.109 0.026-0.145 0.031-0.056 0.007-0.121 0.011-0.187 0.011-0.008 0-0.016-0-0.024-0h0.001c-0.216 0-0.374-0.077-0.472-0.231-0.051-0.081-0.087-0.197-0.108-0.346-0.128 0.168-0.312 0.313-0.552 0.437s-0.504 0.185-0.793 0.185c-0.347 0-0.631-0.105-0.85-0.316s-0.33-0.474-0.33-0.791c0-0.347 0.108-0.616 0.325-0.807s0.501-0.309 0.852-0.353l1.002-0.126zM65.626 23.742h0.622v0.531c0.149-0.184 0.284-0.318 0.405-0.402 0.207-0.142 0.442-0.213 0.706-0.213 0.298 0 0.538 0.073 0.719 0.22 0.102 0.084 0.196 0.207 0.279 0.37 0.14-0.2 0.304-0.349 0.493-0.445s0.4-0.145 0.636-0.145c0.503 0 0.845 0.181 1.027 0.545 0.098 0.196 0.147 0.459 0.147 0.789v2.49h-0.653v-2.599c0-0.249-0.062-0.42-0.187-0.513s-0.277-0.14-0.456-0.14c-0.247 0-0.459 0.083-0.637 0.248s-0.267 0.441-0.267 0.828v2.176h-0.639v-2.441c0-0.254-0.030-0.439-0.091-0.555-0.096-0.175-0.274-0.262-0.535-0.262-0.237 0-0.453 0.092-0.648 0.276s-0.292 0.517-0.292 0.999v1.984h-0.629v-3.741zM71.585 23.742h0.622v0.531c0.149-0.184 0.284-0.318 0.405-0.402 0.207-0.142 0.442-0.213 0.706-0.213 0.298 0 0.538 0.073 0.719 0.22 0.103 0.084 0.196 0.207 0.28 0.37 0.14-0.2 0.304-0.349 0.492-0.445s0.401-0.145 0.636-0.145c0.503 0 0.845 0.181 1.027 0.545 0.098 0.196 0.147 0.459 0.147 0.789v2.49h-0.653v-2.599c0-0.249-0.062-0.42-0.187-0.513s-0.277-0.14-0.456-0.14c-0.247 0-0.459 0.083-0.637 0.248s-0.267 0.441-0.267 0.828v2.176h-0.639v-2.441c0-0.254-0.030-0.439-0.091-0.555-0.095-0.175-0.274-0.262-0.534-0.262-0.238 0-0.453 0.092-0.648 0.276s-0.292 0.517-0.292 0.999v1.984h-0.629v-3.741zM78.025 26.487c0 0.182 0.066 0.325 0.199 0.43s0.29 0.157 0.472 0.157c0.234-0 0.456-0.057 0.651-0.157l-0.008 0.004c0.349-0.17 0.524-0.448 0.524-0.835v-0.506c-0.077 0.049-0.176 0.090-0.297 0.122-0.1 0.028-0.22 0.053-0.344 0.068l-0.012 0.001-0.381 0.049c-0.228 0.030-0.399 0.078-0.513 0.143-0.193 0.11-0.29 0.284-0.29 0.524zM79.548 25.216c0.144-0.019 0.241-0.079 0.29-0.182 0.028-0.056 0.042-0.136 0.042-0.241 0-0.214-0.076-0.37-0.229-0.466s-0.371-0.145-0.655-0.145c-0.328 0-0.561 0.088-0.698 0.265-0.077 0.098-0.127 0.243-0.15 0.437h-0.587c0.012-0.461 0.161-0.782 0.449-0.962s0.621-0.27 1.001-0.27c0.44 0 0.798 0.084 1.072 0.251 0.272 0.168 0.408 0.428 0.408 0.782v2.155c0 0.065 0.014 0.118 0.040 0.157s0.083 0.059 0.169 0.059c0.028 0 0.059-0.002 0.094-0.005 0.045-0.005 0.083-0.010 0.121-0.017l-0.009 0.001v0.465l-0.078 0.021c-0.060 0.016-0.109 0.026-0.145 0.031-0.056 0.007-0.121 0.011-0.187 0.011-0.008 0-0.016-0-0.024-0h0.001c-0.216 0-0.374-0.077-0.472-0.231-0.051-0.081-0.087-0.197-0.108-0.346-0.128 0.168-0.312 0.313-0.552 0.437s-0.504 0.185-0.793 0.185c-0.347 0-0.631-0.105-0.85-0.316s-0.33-0.474-0.33-0.791c0-0.347 0.108-0.616 0.325-0.807s0.501-0.309 0.852-0.353l1.003-0.126zM81.472 22.334h0.611v1.862c0.137-0.179 0.302-0.316 0.493-0.41 0.178-0.089 0.388-0.142 0.61-0.142 0.004 0 0.008 0 0.012 0h-0.001c0.466 0 0.843 0.16 1.133 0.48s0.435 0.792 0.435 1.416c0 0.591-0.143 1.083-0.43 1.474s-0.683 0.587-1.191 0.587c-0.284 0-0.524-0.069-0.719-0.206-0.117-0.081-0.241-0.212-0.374-0.391v0.479h-0.58v-5.148zM83.107 27.046c0.34 0 0.594-0.135 0.763-0.405s0.253-0.626 0.253-1.069c0-0.393-0.084-0.72-0.253-0.978s-0.417-0.388-0.746-0.388c-0.287 0-0.537 0.106-0.753 0.318s-0.323 0.561-0.323 1.048c0 0.351 0.044 0.637 0.133 0.856 0.165 0.412 0.474 0.618 0.926 0.618zM85.517 22.352h0.629v5.131h-0.629v-5.131zM88.646 23.658c0.265 0 0.523 0.062 0.772 0.187s0.439 0.286 0.569 0.484c0.126 0.189 0.21 0.409 0.251 0.66 0.037 0.172 0.056 0.447 0.056 0.824h-2.742c0.012 0.379 0.101 0.684 0.269 0.913s0.427 0.344 0.779 0.344c0.328 0 0.59-0.108 0.786-0.325 0.108-0.121 0.19-0.267 0.236-0.429l0.002-0.008h0.618c-0.016 0.137-0.070 0.291-0.162 0.459s-0.195 0.307-0.309 0.414c-0.191 0.186-0.427 0.312-0.709 0.377-0.151 0.037-0.323 0.056-0.513 0.056-0.466 0-0.86-0.169-1.184-0.508s-0.486-0.813-0.486-1.423c0-0.601 0.163-1.089 0.489-1.464s0.752-0.562 1.278-0.562zM89.649 25.314c-0.026-0.273-0.085-0.49-0.178-0.653-0.172-0.303-0.46-0.454-0.863-0.454-0.289 0-0.531 0.104-0.727 0.312s-0.299 0.473-0.311 0.795h2.078zM93.18 22.697h0.636v1.044h0.597v0.513h-0.597v2.441c0 0.13 0.044 0.218 0.133 0.262 0.049 0.026 0.13 0.038 0.244 0.038l0.064-0.001 0.034-0.001c0.046-0.002 0.089-0.005 0.131-0.010l-0.008 0.001v0.496c-0.064 0.019-0.14 0.035-0.219 0.045l-0.007 0.001c-0.078 0.009-0.162 0.014-0.253 0.014-0.293 0-0.492-0.075-0.597-0.225s-0.157-0.345-0.157-0.585v-2.476h-0.506v-0.513h0.506v-1.044zM96.526 27.077c0.417 0 0.703-0.158 0.857-0.473s0.232-0.666 0.232-1.053c0-0.349-0.056-0.633-0.168-0.852-0.177-0.344-0.482-0.517-0.915-0.517-0.384 0-0.664 0.147-0.838 0.44s-0.262 0.647-0.262 1.062c0 0.398 0.087 0.73 0.262 0.995s0.452 0.398 0.831 0.398zM96.55 23.634c0.482 0 0.889 0.161 1.222 0.482s0.499 0.794 0.499 1.418c0 0.603-0.147 1.101-0.44 1.495s-0.748 0.59-1.365 0.59c-0.515 0-0.923-0.174-1.226-0.522s-0.454-0.816-0.454-1.402c0-0.629 0.159-1.129 0.478-1.502s0.747-0.559 1.285-0.559zM99.648 23.742v2.483c0 0.191 0.030 0.347 0.091 0.468 0.112 0.223 0.32 0.335 0.625 0.335 0.438 0 0.736-0.195 0.894-0.587 0.086-0.21 0.129-0.497 0.129-0.863v-1.837h0.629v3.741h-0.594l0.007-0.552c-0.081 0.141-0.182 0.26-0.302 0.358l-0.002 0.002c-0.24 0.196-0.531 0.294-0.873 0.294-0.533 0-0.896-0.178-1.090-0.535-0.105-0.191-0.157-0.446-0.157-0.765v-2.543h0.643zM103.015 23.742h0.597v0.646c0.049-0.126 0.169-0.279 0.36-0.459s0.411-0.271 0.66-0.271l0.024 0.001 0.070 0.006 0.109 0.011v0.664c-0.029-0.006-0.064-0.011-0.1-0.014l-0.003-0c-0.030-0.002-0.065-0.004-0.1-0.004-0.001 0-0.002 0-0.003 0h0c-0.317 0-0.56 0.102-0.73 0.306-0.159 0.185-0.255 0.427-0.255 0.692 0 0.004 0 0.008 0 0.012v-0.001 2.152h-0.629v-3.741zM105.753 26.309c0.019 0.209 0.071 0.37 0.157 0.482 0.159 0.203 0.433 0.304 0.824 0.304 0.233 0 0.438-0.051 0.615-0.152s0.265-0.258 0.265-0.47c0-0.161-0.071-0.283-0.213-0.367-0.084-0.047-0.245-0.102-0.482-0.164l-0.555-0.14c-0.319-0.079-0.554-0.168-0.706-0.265-0.27-0.17-0.405-0.405-0.405-0.706 0-0.354 0.127-0.64 0.382-0.859s0.598-0.328 1.029-0.328c0.564 0 0.97 0.165 1.219 0.496 0.156 0.209 0.232 0.435 0.227 0.678h-0.594c-0.012-0.148-0.067-0.281-0.151-0.389l0.001 0.002c-0.144-0.165-0.395-0.248-0.751-0.248-0.237 0-0.417 0.045-0.539 0.136s-0.183 0.211-0.183 0.36c0 0.163 0.080 0.293 0.241 0.391 0.093 0.058 0.231 0.109 0.412 0.154l0.415 0.101c0.452 0.11 0.754 0.215 0.908 0.318 0.244 0.161 0.367 0.413 0.367 0.758 0 0.333-0.126 0.621-0.379 0.863s-0.638 0.363-1.154 0.363c-0.556 0-0.951-0.126-1.182-0.379s-0.356-0.565-0.372-0.938h0.604z"></path>
    </symbol>
    <symbol id="icon-sights" viewBox="0 0 32 32">
      <path d="M5.156 22.834c-0.262 0.235-0.516 0.479-0.763 0.73-0.072 0.073-0.141 0.148-0.213 0.223-0.181 0.191-0.358 0.387-0.531 0.587-0.075 0.087-0.152 0.172-0.225 0.26-0.204 0.245-0.4 0.498-0.591 0.756-0.087 0.117-0.17 0.237-0.254 0.357-0.134 0.191-0.264 0.386-0.39 0.584-0.067 0.105-0.136 0.207-0.202 0.314l-0.010 0.017c-0.002 0.002-0.002 0.005-0.002 0.007-0.372 0.597-0.741 1.298-1.061 2.025l-0.043 0.11 0.919 0.394c0.111-0.259 0.236-0.509 0.36-0.76l0.357 2.145c0.041 0.238 0.245 0.418 0.492 0.418 0 0 0 0 0 0h2c0.064 0 0.127-0.012 0.186-0.035l2.375-0.951 3.367 0.481c0.022 0.003 0.047 0.005 0.072 0.005 0.209 0 0.388-0.129 0.461-0.311l0.001-0.003 0.939-2.349 3.862-2.413c0.122-0.077 0.208-0.204 0.23-0.351l0-0.003 0.5-3.5c0.003-0.021 0.005-0.046 0.005-0.071 0-0.233-0.159-0.429-0.375-0.484l-0.003-0.001-1.922-0.48-1.181-0.745c0.082-0.015 0.164-0.032 0.246-0.046 0.828-0.149 1.781-0.234 2.753-0.234 0.158 0 0.315 0.002 0.471 0.007l-0.023-0.001c0.101 0.003 0.202 0.006 0.303 0.011l0.021 0.001c0.279 0.014 0.558 0.037 0.837 0.065 0.108 0.011 0.215 0.020 0.322 0.033 0.276 0.034 0.552 0.078 0.826 0.127 0.108 0.019 0.218 0.034 0.326 0.055 0.285 0.056 0.567 0.125 0.85 0.197 0.846 0.217 1.559 0.459 2.249 0.748l-0.106-0.039c0.154 0.064 0.305 0.132 0.457 0.201 0.055 0.025 0.11 0.052 0.166 0.077l-1.855 0.53c-0.211 0.062-0.362 0.254-0.362 0.482 0 0.081 0.019 0.158 0.053 0.226l-0.001-0.003 0.339 0.677-1.745 1.745c-0.091 0.090-0.147 0.215-0.147 0.354s0.056 0.263 0.147 0.354v0l2 2c0.089 0.091 0.213 0.147 0.35 0.147 0.019 0 0.037-0.001 0.055-0.003l-0.002 0c0.153-0.015 0.285-0.098 0.365-0.218l0.001-0.002 1.851-2.777h1.232v1.709l-3.248 1.856c-0.040 0.023-0.075 0.050-0.105 0.081v0l-1 1c-0.090 0.090-0.146 0.215-0.146 0.354 0 0.103 0.031 0.199 0.085 0.279l-0.001-0.002 1 1.5 0.832-0.555-0.773-1.159 0.663-0.663 3.442-1.967c0.151-0.087 0.252-0.249 0.252-0.433 0-0 0-0 0-0.001v0-2.5c0-0.276-0.224-0.5-0.5-0.5v0h-2c-0.167 0-0.323 0.084-0.416 0.223l-1.662 2.492-1.215-1.215 1.646-1.646c0.091-0.090 0.147-0.216 0.147-0.354 0-0.081-0.019-0.158-0.054-0.226l0.001 0.003-0.23-0.461 2.299-0.657c0.020 0.012 0.040 0.021 0.059 0.032 0.076 0.045 0.149 0.095 0.225 0.141 0.243 0.148 0.485 0.299 0.721 0.459 0.215 0.148 0.425 0.302 0.633 0.459 0.055 0.042 0.113 0.080 0.168 0.122 1.694 1.326 3.090 2.944 4.131 4.789l0.042 0.080 0.002-0.001 0.002 0.003 0.874-0.485c-0.613-1.091-1.28-2.034-2.034-2.9l0.017 0.021c-0.014-0.016-0.029-0.031-0.044-0.047-0.249-0.285-0.489-0.544-0.738-0.794l0.001 0.001c-0.054-0.055-0.111-0.105-0.166-0.159-0.21-0.208-0.426-0.411-0.648-0.609l-0.017-0.015c-0.087-0.076-0.177-0.148-0.265-0.222-0.174-0.15-0.374-0.315-0.578-0.474l-0.036-0.028c-0.114-0.087-0.233-0.169-0.349-0.255l-0.022-0.016 0.961-2.307 1.495-3.239 1.496-2.992c0.033-0.065 0.052-0.142 0.052-0.223 0-0.203-0.12-0.377-0.293-0.456l-0.003-0.001-0.136-0.060 0.88-1.759c0.113-0.226 0.040-0.5-0.17-0.639l-3-2c-0.078-0.052-0.174-0.084-0.277-0.084-0.195 0-0.364 0.111-0.446 0.273l-0.001 0.003-1.172 2.345-0.177-0.079c-0.060-0.027-0.13-0.043-0.204-0.043-0.195 0-0.363 0.111-0.446 0.274l-0.001 0.003-3 6c-0.003 0.005-0.002 0.010-0.004 0.015s-0.006 0.008-0.008 0.012l-0.846 1.974-0.703-3.866c-0.044-0.235-0.247-0.411-0.492-0.411h-0.623l-0.896-3.138c-0.062-0.211-0.253-0.362-0.48-0.363h-0.076l-0.93-5.582c-0.003-0.016-0.012-0.029-0.016-0.045 0.31-0.17 0.523-0.495 0.523-0.873v-1c0-0.551-0.448-1-1-1v-1.5h-1v1.5c-0.552 0-1 0.449-1 1v1c0 0.378 0.213 0.703 0.523 0.873-0.004 0.016-0.013 0.029-0.016 0.045l-0.93 5.582h-0.076c-0.227 0-0.419 0.152-0.48 0.359l-0.001 0.004-0.896 3.137h-0.623c-0.242 0-0.448 0.173-0.492 0.411l-0.72 3.962-3.824-9.559c-0.003-0.007-0.008-0.011-0.011-0.018-0.023-0.049-0.051-0.092-0.084-0.129l0 0c-0.008-0.009-0.015-0.018-0.024-0.027-0.005-0.005-0.008-0.011-0.013-0.015l-4.5-4c-0.088-0.078-0.204-0.126-0.332-0.126-0.262 0-0.476 0.201-0.498 0.457l-0 0.002-0.5 6c-0 0.007 0.001 0.013 0.001 0.020-0 0.012 0.002 0.024 0.002 0.036 0.001 0.054 0.011 0.106 0.029 0.154l-0.001-0.003c0.002 0.007 0.001 0.014 0.004 0.021l4.372 10.931-0.112 0.098c-0.046 0.041-0.093 0.080-0.139 0.121zM13.39 18.785c0.607-0.785 1.549-1.285 2.607-1.285 0.001 0 0.002 0 0.003 0h-0c0.96 0 1.854 0.419 2.468 1.116-0.049-0.006-0.098-0.006-0.146-0.012-0.251-0.029-0.58-0.056-0.912-0.074l-0.041-0.002c-0.093-0.005-0.186-0.012-0.277-0.015-0.098-0.003-0.196-0.003-0.294-0.004-0.099-0.002-0.198-0.011-0.298-0.011-0.096 0-0.189 0.009-0.285 0.011-0.044 0.001-0.088-0.001-0.133 0-0.174 0.004-0.347 0.015-0.521 0.024-0.176 0.009-0.352 0.019-0.527 0.034-0.079 0.007-0.158 0.013-0.237 0.021-0.163 0.017-0.325 0.039-0.488 0.060-0.145 0.018-0.29 0.034-0.435 0.056-0.079 0.012-0.156 0.029-0.235 0.042-0.082 0.014-0.166 0.021-0.249 0.037zM14.379 21.485l1.563 0.39-0.403 2.823-3.803 2.377c-0.090 0.056-0.16 0.14-0.2 0.238l-0.854 2.136-3.111-0.445c-0.021-0.003-0.046-0.005-0.071-0.005-0.067 0-0.13 0.013-0.188 0.037l0.003-0.001-2.41 0.965h-1.48l-0.496-2.976 0.017-0.025c0.264-0.417 0.502-0.761 0.753-1.094l-0.030 0.041c0.254-0.34 0.488-0.631 0.731-0.913l-0.017 0.020c0.173-0.201 0.352-0.399 0.535-0.591 0.067-0.070 0.133-0.14 0.201-0.209 0.232-0.235 0.47-0.464 0.716-0.684 0.035-0.032 0.072-0.062 0.107-0.093 0.163-0.143 0.333-0.278 0.502-0.415 0.217-0.177 0.471-0.37 0.729-0.556l0.048-0.033c0.086-0.061 0.171-0.125 0.258-0.184 0.277-0.189 0.56-0.366 0.847-0.538 0.076-0.045 0.149-0.093 0.226-0.137 0.646-0.38 1.403-0.744 2.191-1.047l0.108-0.037c0.203-0.076 0.409-0.143 0.616-0.211 0.116-0.044 0.345-0.116 0.577-0.182l0.112-0.027 2.079 1.313c0.042 0.027 0.090 0.048 0.141 0.061l0.003 0.001zM22.009 19.415l0.741-1.73 3.608 1.804-0.703 1.689c-0.108-0.069-0.218-0.13-0.327-0.196s-0.219-0.134-0.33-0.198c-0.044-0.026-0.087-0.053-0.131-0.078-0.012-0.007-0.024-0.015-0.037-0.023l-0.002-0c-0.173-0.098-0.349-0.186-0.526-0.277-0.076-0.040-0.151-0.081-0.228-0.119-0.189-0.101-0.482-0.239-0.778-0.369l-0.111-0.043c-0.025-0.011-0.050-0.023-0.075-0.034-0.249-0.114-0.614-0.258-0.985-0.389l-0.118-0.037zM29.153 12.076l-0.721-0.32 0.762-1.526 0.662 0.441-0.703 1.405zM27.694 9.23l0.662 0.441-0.839 1.678-0.721-0.32 0.899-1.799zM25.641 11.836c0.026 0.027 0.049 0.057 0.082 0.079l3 2c0.063 0.041 0.139 0.068 0.221 0.076l0.002 0-0.678 1.357-3.585-1.594 0.959-1.919zM24.233 14.651l3.6 1.6-1.072 2.321-3.591-1.796 1.063-2.126zM15.5 3.5h1l0 1h-1.001v-1zM15.924 6h0.153l0.834 5h-1.819l0.833-5zM14.377 12h3.246l0.715 2.5h-4.675l0.714-2.5zM12.417 15.5h7.166l0.619 3.408c-0.051-0.012-0.103-0.018-0.154-0.029-0.082-0.017-0.165-0.035-0.248-0.052-0.733-1.419-2.191-2.327-3.8-2.327-0.001 0-0.001 0-0.002 0-1.754 0-3.262 1.053-3.925 2.562l-0.011 0.027c-0.070 0.019-0.139 0.041-0.208 0.061-0.035 0.010-0.070 0.017-0.105 0.027l0.668-3.678zM9.991 19.796c-0.199 0.082-0.396 0.169-0.591 0.258-0.066 0.030-0.133 0.060-0.2 0.091-0.334 0.159-0.662 0.327-0.985 0.506-0.035 0.020-0.069 0.040-0.104 0.059l-0.024 0.014-0.040 0.023c-0.361 0.206-0.635 0.375-0.904 0.553l0.063-0.039-0.104 0.067c-0.301 0.2-0.596 0.407-0.883 0.626l-2.070-5.176 4.072-1.629 1.845 4.612c-0.026 0.011-0.050 0.023-0.076 0.034zM2.15 11.778l4.072-1.629 1.628 4.071-4.072 1.629-1.628-4.072zM2.416 6.538l3.148 2.798-3.498 1.399 0.35-4.197z"></path>
      <path d="M5 11.5c-0.827 0-1.5 0.673-1.5 1.5s0.673 1.5 1.5 1.5 1.5-0.673 1.5-1.5-0.673-1.5-1.5-1.5zM5 13.5c-0.276 0-0.5-0.225-0.5-0.5s0.224-0.5 0.5-0.5 0.5 0.225 0.5 0.5-0.224 0.5-0.5 0.5z"></path>
    </symbol>
    <symbol id="icon-tourist" viewBox="0 0 32 32">
      <path d="M28.198 22.564c-0.148-1.49-1.21-2.697-2.611-3.058l-0.024-0.005-5.563-1.391v-1.346c0.593-0.627 1.040-1.398 1.285-2.254l0.009-0.039c1.238-0.148 2.206-1.193 2.206-2.47v-3.5h1.5v-0.5c-0.002-1.211-0.864-2.219-2.007-2.449l-0.016-0.003c-0.231-2.821-2.597-5.048-5.477-5.048h-3c-2.88 0-5.246 2.227-5.477 5.048-1.159 0.233-2.021 1.241-2.023 2.452v0.5h1.5v3.5c0 1.277 0.967 2.322 2.206 2.47 0.254 0.895 0.702 1.666 1.297 2.296l-0.002-0.003v1.346l-5.564 1.391c-1.425 0.367-2.487 1.574-2.634 3.049l-0.001 0.015-0.851 8.937h26.1l-0.852-8.936zM11.53 13.5h2.47c0.827 0 1.5-0.673 1.5-1.5v-0.52c0.069 0.007 0.136 0.020 0.207 0.020h0.586c0.070 0 0.138-0.014 0.207-0.020v0.52c0 0.827 0.673 1.5 1.5 1.5h2.471c-0.25 2.247-2.158 4-4.471 4s-4.221-1.754-4.471-4zM20.5 8.5v1h-1.793c-0.002 0-0.004 0-0.006 0-0.608 0-1.157 0.247-1.554 0.646l-0 0c-0.217 0.218-0.518 0.354-0.851 0.354-0.001 0-0.002 0-0.003 0h-0.586c-0.001 0-0.002 0-0.003 0-0.332 0-0.633-0.135-0.85-0.353l-0-0c-0.397-0.399-0.947-0.646-1.554-0.646-0.002 0-0.004 0-0.006 0h-1.793v-1h9zM17.5 11.139c0.133-0.087 0.248-0.181 0.354-0.286l-0 0c0.217-0.218 0.518-0.354 0.851-0.354 0.001 0 0.002 0 0.003 0h1.793v2h-2.5c-0.276 0-0.5-0.224-0.5-0.5v0-0.861zM14.5 11.139v0.861c0 0.276-0.224 0.5-0.5 0.5v0h-2.5v-2h1.793c0.322 0 0.626 0.126 0.854 0.354 0.109 0.109 0.228 0.204 0.354 0.286zM21.479 13.415c0.011-0.137 0.021-0.274 0.021-0.415v-2.408c0.581 0.207 1 0.757 1 1.408-0.002 0.654-0.424 1.21-1.010 1.411l-0.011 0.003zM22.5 10.013c-0.281-0.218-0.617-0.379-0.984-0.459l-0.016-0.003v-1.051h1v1.513zM21.972 5.5h-3c-0.114-1.55-0.742-2.936-1.711-4.006l0.005 0.006h0.234c2.313 0 4.223 1.753 4.472 4zM16 1.655c1.103 0.948 1.837 2.3 1.971 3.823l0.002 0.022h-3.944c0.135-1.545 0.868-2.896 1.964-3.838l0.008-0.006zM14.5 1.5h0.234c-0.964 1.064-1.591 2.45-1.705 3.978l-0.001 0.022h-3c0.249-2.247 2.159-4 4.472-4zM9.5 6.5h13c0.652 0 1.208 0.418 1.415 1h-15.829c0.213-0.587 0.765-0.999 1.414-1h0zM10.5 8.5v1.050c-0.383 0.083-0.719 0.244-1.006 0.466l0.006-0.004v-1.512h1zM9.5 12c0-0.651 0.419-1.201 1-1.408v2.408c0 0.14 0.011 0.277 0.021 0.415-0.597-0.205-1.019-0.76-1.021-1.414v-0zM4.796 22.659c0.106-1.064 0.864-1.926 1.865-2.185l0.017-0.004 6.321-1.579v-1.287c0.864 0.565 1.893 0.896 3 0.896s2.136-0.331 3-0.896v1.287l6.321 1.579c1.018 0.262 1.777 1.124 1.882 2.178l0.001 0.010 0.318 3.341h-2.77l-0.253-3.041-0.996 0.083 0.454 5.459h-1.497l-0.5-6h-2.46c0-1.93-1.57-3.5-3.5-3.5s-3.5 1.57-3.5 3.5h-2.46l-0.5 6h-1.496l0.454-5.459-0.996-0.083-0.253 3.041h-2.77l0.318-3.341zM18 26.5v4h-4v-4h-1v2.513c-0.411-0.318-0.933-0.511-1.5-0.513h-0.957l0.417-5h1.666c0.098 0.364 0.249 0.714 0.462 1.033l2.912 4.369 2.912-4.368c0.199-0.296 0.357-0.64 0.456-1.009l0.006-0.024h1.666l0.417 5h-0.957c-0.565 0-1.081 0.195-1.5 0.513v-2.514h-1zM13.5 22.592v-0.092c0-1.378 1.121-2.5 2.5-2.5s2.5 1.122 2.5 2.5v0.092c0 0.495-0.145 0.974-0.42 1.387l-2.080 3.12-2.080-3.12c-0.263-0.389-0.42-0.868-0.42-1.384 0-0.001 0-0.002 0-0.003v0zM4.383 27h2.782l-0.208 2.5h4.543c0.651 0 1.201 0.419 1.408 1h-8.858l0.333-3.5zM19.092 30.5c0.211-0.586 0.761-0.998 1.408-1h4.544l-0.209-2.5h2.782l0.334 3.5h-8.858z"></path>
      <path d="M18 14.5h-1c0 0.552-0.448 1-1 1s-1-0.448-1-1h-1c0 1.103 0.897 2 2 2s2-0.897 2-2zM17.5 22.5c0-0.827-0.673-1.5-1.5-1.5s-1.5 0.673-1.5 1.5 0.673 1.5 1.5 1.5 1.5-0.673 1.5-1.5zM15.5 22.5c0-0.276 0.224-0.5 0.5-0.5s0.5 0.224 0.5 0.5v0c0 0.276-0.224 0.5-0.5 0.5s-0.5-0.224-0.5-0.5v0z"></path>
    </symbol>
    <symbol id="icon-check-mark" viewBox="0 0 32 32">
      <path d="M16 1.6c-7.953 0-14.4 6.447-14.4 14.4s6.447 14.4 14.4 14.4c7.953 0 14.4-6.447 14.4-14.4s-6.447-14.4-14.4-14.4zM16 26.22c-5.647 0-10.22-4.572-10.22-10.22s4.573-10.22 10.22-10.22 10.22 4.573 10.22 10.22-4.573 10.22-10.22 10.22z"></path>
      <path d="M20.725 10.506l-6.125 6.125-2.643-2.616-2.614 2.642 5.271 5.216 8.739-8.74z"></path>
    </symbol>
    <symbol id="icon-world" viewBox="0 0 32 32">
      <path d="M15.625 11.306c-4.494 5.037-7.406 11.281-8.375 17.962l-0.244 1.663 0.987 0.144 0.244-1.663c0.944-6.488 3.775-12.55 8.138-17.438l-0.75-0.669zM22 30h1.5v1h-1.5z"></path>
      <path d="M29.5 14h-2v-5.5c0-1.106-0.894-2-2-2-0.762 0-1.462 0.438-1.8 1.125-0.387-0.362-0.8-0.706-1.231-1.019 1.462-1 2.994-1.881 4.594-2.638l-0.775 1.55 0.894 0.45 1.681-3.356-3.356-1.675-0.45 0.894 2.044 1.025c-1.931 0.881-3.781 1.937-5.519 3.156-0.613-0.375-1.25-0.706-1.913-0.981 0.863-0.975 1.337-2.231 1.331-3.531v-0.5h-0.5c-1.413-0.006-2.769 0.556-3.769 1.563l-0.85 0.85-4.081-1.631c-0.556-0.225-1.194-0.094-1.619 0.331l-1.5 1.5 1.794 0.994c-7.119 2.231-11.088 9.806-8.856 16.925 0.775 2.481 2.256 4.688 4.256 6.35l0.638-0.769c-0.75-0.625-1.425-1.337-2.013-2.113h0.088c1.056 0 1.912-0.856 1.912-1.913 0-0.244 0.094-0.475 0.269-0.644l1.169-1.169c0.363-0.356 0.563-0.844 0.563-1.356v-0.331c0-0.506-0.2-0.994-0.563-1.356l-0.588-0.587c-0.75-0.744-1.956-0.744-2.706 0l-0.088 0.087c-0.169 0.175-0.406 0.269-0.644 0.269h-1.9c-0.006-0.169-0.012-0.331-0.012-0.5 0-0.5 0.031-1 0.094-1.5h1.844c0.862 0 1.563-0.7 1.563-1.563 0-0.412-0.162-0.813-0.456-1.106l-1.619-1.619c1.694-3.25 4.731-5.594 8.306-6.406l1.45 0.806-3.181 3.181v1.469l-2.119-0.85-2.269 2.269 3.006 1.2 1.2 3.006 2.269-2.269-0.85-2.119h1.469l3.175-3.175 2.5 4.5 1.5-1.5c0.425-0.425 0.556-1.063 0.331-1.619l-1.631-4.081 0.319-0.319c0.619 0.231 1.219 0.519 1.794 0.844-0.2 0.15-0.4 0.306-0.6 0.463l0.619 0.787c0.294-0.231 0.587-0.456 0.894-0.675 0.681 0.475 1.319 1.012 1.894 1.606v5.169h-2c-0.825 0-1.5 0.675-1.5 1.5v12c0 0.381 0.144 0.744 0.4 1.019-0.613 0.325-1.244 0.6-1.9 0.825v-0.431c0-0.4-0.156-0.781-0.438-1.063l-0.919-0.913c-0.094-0.094-0.144-0.219-0.144-0.356v-0.581c0-0.275 0.225-0.5 0.5-0.5 0.825 0 1.5-0.675 1.5-1.5v-1.5c0-0.825-0.675-1.5-1.5-1.5h-1.087c-0.4 0-0.781 0.156-1.063 0.438l-2.412 2.419c-0.094 0.094-0.219 0.144-0.356 0.144h-0.581c-0.825 0-1.5 0.675-1.5 1.5v1.087c0 0.4 0.156 0.781 0.438 1.063l0.412 0.413c0.094 0.094 0.144 0.219 0.144 0.356v1.225c-0.619-0.15-1.219-0.35-1.806-0.594l-0.387 0.925c4.013 1.656 8.575 1.294 12.275-0.975h7.925c0.825 0 1.5-0.675 1.5-1.5v-12c0-0.825-0.675-1.5-1.5-1.5zM3.913 19c0.506 0 0.994-0.2 1.356-0.563l0.088-0.087c0.356-0.356 0.938-0.356 1.294 0l0.588 0.587c0.175 0.169 0.269 0.406 0.269 0.644v0.331c0 0.244-0.094 0.475-0.269 0.644l-1.175 1.175c-0.362 0.356-0.563 0.844-0.563 1.356 0 0.506-0.412 0.913-0.912 0.913h-0.769c-0.925-1.525-1.519-3.231-1.731-5h1.825zM4.338 14.044c0.219 0.219 0.219 0.575 0 0.794-0.106 0.106-0.25 0.162-0.394 0.162h-1.694c0.163-0.794 0.4-1.575 0.719-2.325l1.369 1.369zM10.181 14.613l-0.8-1.994-1.994-0.8 0.731-0.731 1.994 0.8 0.8 1.994-0.731 0.731zM18.731 4.563l-1.319 1.319 1.875 4.694c0.075 0.188 0.031 0.4-0.113 0.537l-0.563 0.563-2.5-4.5-3.819 3.825h-1.294v-1.294l3.825-3.825-2.912-1.619-0.006-0.019c-0.006 0-0.012 0-0.019 0.006l-1.563-0.869 0.563-0.563c0.144-0.144 0.356-0.188 0.537-0.112l4.694 1.875 1.319-1.313c0.681-0.681 1.569-1.119 2.531-1.237-0.119 0.956-0.55 1.85-1.238 2.531zM17.5 29.637c-1.637 0.4-3.338 0.469-5 0.206v-1.425c0-0.4-0.156-0.781-0.438-1.063l-0.412-0.413c-0.094-0.094-0.144-0.219-0.144-0.356v-1.087c0-0.275 0.225-0.5 0.5-0.5h0.588c0.4 0 0.781-0.156 1.063-0.438l2.413-2.413c0.094-0.094 0.219-0.144 0.356-0.144h1.075c0.275 0 0.5 0.225 0.5 0.5v1.5c0 0.275-0.225 0.5-0.5 0.5-0.825 0-1.5 0.675-1.5 1.5v0.587c0 0.4 0.156 0.781 0.438 1.063l0.913 0.913c0.094 0.094 0.144 0.219 0.144 0.356v0.712zM24.5 8.5c0-0.55 0.45-1 1-1s1 0.45 1 1v5.5h-2v-5.5zM30 27.5c0 0.275-0.225 0.5-0.5 0.5h-8c-0.275 0-0.5-0.225-0.5-0.5v-12c0-0.275 0.225-0.5 0.5-0.5h8c0.275 0 0.5 0.225 0.5 0.5v12zM28 30h1.5v1h-1.5z"></path>
      <path d="M22.5 16h1v11h-1zM25 16h1v11h-1zM27.5 16h1v11h-1zM15 16.5v0.294l-1.206 1.206c-0.188 0.188-0.294 0.444-0.294 0.706v0.294c0 0.55 0.45 1 1 1h1.294c0.262 0 0.519-0.106 0.706-0.294l0.706-0.706h0.794c0.55 0 1-0.45 1-1v-1.5c0-0.55-0.45-1-1-1h-2c-0.55 0-1 0.45-1 1zM16 16.794v-0.294h2v1.5h-0.794c-0.262 0-0.519 0.106-0.706 0.294l-0.706 0.706h-1.294v-0.294l1.206-1.206c0.188-0.188 0.294-0.444 0.294-0.706z"></path>
    </symbol>
    <symbol id="icon-woman" viewBox="0 0 32 32">
      <path d="M24.107 20.343l-3.284-1.095c0.059-0.029 0.119-0.054 0.177-0.087 0.787-0.462 1.337-1.255 1.461-2.183l0.002-0.015c0.943-0.125 1.736-0.675 2.19-1.448l0.008-0.014c0.25-0.427 0.397-0.94 0.397-1.487 0-0.414-0.084-0.809-0.237-1.167l0.007 0.019c0.732-0.563 1.171-1.432 1.171-2.365s-0.439-1.802-1.172-2.366c0.145-0.339 0.23-0.733 0.23-1.148 0-0.547-0.148-1.060-0.405-1.501l0.008 0.014c-0.462-0.787-1.255-1.337-2.183-1.461l-0.015-0.002c-0.125-0.943-0.675-1.736-1.448-2.19l-0.014-0.008c-0.427-0.25-0.939-0.397-1.487-0.397-0.414 0-0.809 0.085-1.168 0.237l0.020-0.007c-0.563-0.733-1.432-1.173-2.365-1.173s-1.803 0.44-2.365 1.173c-0.339-0.145-0.734-0.23-1.148-0.23-0.547 0-1.060 0.147-1.501 0.404l0.014-0.008c-0.787 0.462-1.337 1.255-1.461 2.183l-0.002 0.015c-0.943 0.125-1.736 0.676-2.19 1.449l-0.008 0.014c-0.25 0.427-0.397 0.94-0.397 1.487 0 0.414 0.084 0.809 0.237 1.167l-0.007-0.019c-0.733 0.563-1.173 1.432-1.173 2.365s0.439 1.802 1.173 2.366c-0.145 0.339-0.23 0.733-0.23 1.148 0 0.547 0.147 1.060 0.405 1.501l-0.008-0.014c0.462 0.787 1.255 1.337 2.183 1.461l0.015 0.002c0.125 0.943 0.675 1.736 1.448 2.19l0.014 0.008c0.057 0.033 0.117 0.059 0.175 0.088l-3.282 1.094c-1.402 0.476-2.393 1.78-2.393 3.317 0 0.001 0 0.002 0 0.003v-0 7.838h21v-7.838c0-0.001 0-0.002 0-0.003 0-1.536-0.991-2.841-2.368-3.309l-0.025-0.007zM13.5 25.5v-5.793l2.5 2.5 2.5-2.5v5.793h-5zM18 28.5c0 1.103-0.897 2-2 2s-2-0.897-2-2 0.897-2 2-2 2 0.897 2 2zM10.521 13.415c-0.597-0.205-1.019-0.76-1.021-1.414v-0c0-0.651 0.419-1.201 1-1.408v2.408c0 0.14 0.011 0.277 0.021 0.415zM11.5 10.488c1.65-0.062 3.189-0.478 4.563-1.173l-0.063 0.029v1.156h0.5c1.401 0 2.788-0.383 4-1.081v3.581c0 2.481-2.018 4.5-4.5 4.5s-4.5-2.019-4.5-4.5v-2.512zM21.5 10.592c0.581 0.207 1 0.757 1 1.408-0.002 0.654-0.424 1.21-1.010 1.411l-0.011 0.003c0.011-0.137 0.021-0.274 0.021-0.415v-2.408zM16 18.5c0.706 0 1.379-0.139 2-0.382v0.675l-2 2-2-2v-0.675c0.621 0.244 1.294 0.382 2 0.382zM10.512 16.502l0.015-0.53-0.53 0.015c-0.714 0.021-1.427-0.357-1.792-0.988-0.165-0.284-0.263-0.625-0.263-0.989 0-0.392 0.113-0.757 0.308-1.065l-0.005 0.008 0.278-0.451-0.466-0.252c-0.652-0.352-1.058-1.023-1.058-1.752s0.405-1.399 1.058-1.752l0.466-0.252-0.278-0.451c-0.19-0.3-0.303-0.665-0.303-1.057 0-0.364 0.098-0.705 0.268-0.999l-0.005 0.010c0.364-0.631 1.076-1.004 1.791-0.988l0.53 0.016-0.015-0.529c-0.022-0.742 0.357-1.428 0.988-1.792s1.414-0.349 2.046 0.041l0.451 0.278 0.251-0.466c0.352-0.652 1.023-1.058 1.751-1.058s1.399 0.405 1.752 1.058l0.251 0.466 0.451-0.278c0.3-0.19 0.665-0.303 1.057-0.303 0.364 0 0.705 0.098 0.999 0.268l-0.010-0.005c0.596 0.352 0.989 0.992 0.989 1.723 0 0.024-0 0.049-0.001 0.073l0-0.003-0.015 0.529 0.53-0.016c0.723-0.015 1.427 0.357 1.791 0.988 0.165 0.284 0.263 0.625 0.263 0.989 0 0.392-0.113 0.757-0.308 1.065l0.005-0.008-0.278 0.451 0.466 0.252c0.652 0.351 1.058 1.023 1.058 1.751s-0.405 1.399-1.058 1.752l-0.466 0.252 0.278 0.451c0.19 0.3 0.303 0.665 0.303 1.057 0 0.364-0.098 0.705-0.268 0.999l0.005-0.010c-0.364 0.631-1.070 1.007-1.791 0.988l-0.53-0.015 0.015 0.53c0.001 0.021 0.001 0.045 0.001 0.070 0 0.731-0.393 1.37-0.98 1.717l-0.009 0.005c-0.462 0.267-0.993 0.32-1.5 0.183v-0.873c1.103-0.729 1.919-1.817 2.285-3.095l0.010-0.039c1.239-0.148 2.206-1.193 2.206-2.47-0.002-1.203-0.852-2.207-1.984-2.447l-0.016-0.003v-1.55h-1v0.239c-0.983 0.691-2.18 1.141-3.476 1.241l-0.024 0.002v-1.864l-0.758 0.454c-1.356 0.825-2.982 1.341-4.722 1.414l-0.020 0.001v-1.486h-1v1.55c-1.148 0.242-1.998 1.246-2 2.449v0c0 1.277 0.967 2.322 2.205 2.47 0.375 1.317 1.191 2.405 2.274 3.121l0.021 0.013v0.873c-0.508 0.137-1.039 0.083-1.5-0.183-0.596-0.352-0.989-0.991-0.989-1.721 0-0.025 0-0.049 0.001-0.074l-0 0.004zM9 28.5h-2.5v-1h2.5v1zM6.5 29.5h2.5v1h-2.5v-1zM10 30.5v-7h-1v3h-2.5v-2.838c0-0.001 0-0.002 0-0.002 0-1.097 0.708-2.029 1.692-2.364l0.018-0.005 4.29-1.43v5.64c-0.552 0-1 0.448-1 1v4h-1.5zM12.5 26.5h1.27c-0.477 0.532-0.77 1.231-0.77 2s0.293 1.468 0.77 2h-1.27v-4zM18.23 30.5c0.477-0.532 0.77-1.231 0.77-2s-0.293-1.468-0.77-2h1.27l0.001 4h-1.271zM19.5 25.5v-5.639l4.291 1.43c1.002 0.34 1.709 1.272 1.709 2.37 0 0.001 0 0.001 0 0.002v-0 2.838h-2.5v-3h-1v7h-1.5v-4c0-0.552-0.448-1-1-1zM23 27.5h2.5v1h-2.5v-1zM23 30.5v-1h2.5v1h-2.5z"></path>
      <path d="M19 11.5c0 0.276-0.224 0.5-0.5 0.5s-0.5-0.224-0.5-0.5c0-0.276 0.224-0.5 0.5-0.5s0.5 0.224 0.5 0.5z"></path>
      <path d="M14 11.5c0 0.276-0.224 0.5-0.5 0.5s-0.5-0.224-0.5-0.5c0-0.276 0.224-0.5 0.5-0.5s0.5 0.224 0.5 0.5z"></path>
      <path d="M16 16c1.103 0 2-0.897 2-2h-1c0 0.552-0.448 1-1 1s-1-0.448-1-1h-1c0 1.103 0.897 2 2 2zM16 30c0.827 0 1.5-0.673 1.5-1.5s-0.673-1.5-1.5-1.5-1.5 0.673-1.5 1.5 0.673 1.5 1.5 1.5zM16 28c0.276 0 0.5 0.224 0.5 0.5s-0.224 0.5-0.5 0.5v0c-0.276 0-0.5-0.224-0.5-0.5s0.224-0.5 0.5-0.5v0z"></path>
    </symbol>
    <symbol id="icon-star" viewBox="0 0 32 32">
      <path d="M23.5 25h-15v4h15zM22.5 28h-13v-2h13zM6.5 25h1v1h-1zM6.5 28h1v1h-1zM24.5 25h1v1h-1zM24.5 28h1v1h-1z"></path>
      <path d="M23.55 6.503l-4.726-0.473-2.374-4.753c-0.093-0.153-0.258-0.254-0.448-0.254s-0.355 0.101-0.446 0.252l-0.001 0.002-2.379 4.753-4.726 0.473c-0.253 0.027-0.449 0.239-0.449 0.497 0 0.138 0.056 0.262 0.146 0.353l3.794 3.795-1.424 5.22c-0.012 0.041-0.019 0.087-0.019 0.136 0 0.276 0.224 0.5 0.5 0.5 0.082 0 0.159-0.020 0.228-0.055l-0.003 0.001 2.136-1.068-0.788 5.118h-6.071v2h-2v8h23.041v-8h-2.041v-2h-6.071l-0.788-5.12 2.136 1.070c0.064 0.032 0.139 0.050 0.219 0.050 0.002 0 0.003 0 0.005-0h-0c0 0 0 0 0 0 0.276 0 0.5-0.224 0.5-0.5 0-0.047-0.006-0.092-0.018-0.135l0.001 0.004-1.424-5.218 3.794-3.795c0.090-0.090 0.145-0.215 0.145-0.353 0-0.258-0.196-0.471-0.447-0.497l-0.002-0zM26.541 24v6h-21.041v-6zM24.5 23h-17v-1h17zM18.417 21h-4.834l0.872-5.668 1.545-0.772 1.545 0.773zM19.146 10.646c-0.091 0.091-0.147 0.216-0.147 0.354 0 0.047 0.006 0.092 0.018 0.135l-0.001-0.004 1.206 4.421-4-2c-0.065-0.033-0.142-0.053-0.223-0.053s-0.158 0.019-0.226 0.054l0.003-0.001-4 2 1.206-4.421c0.011-0.039 0.018-0.085 0.018-0.131 0-0.138-0.056-0.263-0.147-0.354l-3.254-3.254 3.95-0.393c0.175-0.018 0.321-0.123 0.396-0.271l0.001-0.003 2.053-4.108 2.050 4.106c0.077 0.151 0.224 0.257 0.398 0.274l0.002 0 3.95 0.395z"></path>
      <path d="M13.647 9.146l2-2 0.707 0.707-2 2z"></path>
      <path d="M14.146 11.147l3-3 0.707 0.707-3 3z"></path>
      <path d="M7 13c0-0.276-0.224-0.5-0.5-0.5s-0.5 0.224-0.5 0.5v0c0 0.828-0.672 1.5-1.5 1.5v0c-0.276 0-0.5 0.224-0.5 0.5s0.224 0.5 0.5 0.5v0c0.828 0 1.5 0.672 1.5 1.5v0c0 0.276 0.224 0.5 0.5 0.5s0.5-0.224 0.5-0.5v0c0-0.828 0.672-1.5 1.5-1.5v0c0.276 0 0.5-0.224 0.5-0.5s-0.224-0.5-0.5-0.5v0c-0.828 0-1.5-0.672-1.5-1.5v0zM6.5 15.515c-0.148-0.198-0.318-0.368-0.509-0.511l-0.006-0.005c0.198-0.148 0.368-0.318 0.511-0.509l0.005-0.007c0.148 0.198 0.318 0.368 0.509 0.511l0.006 0.005c-0.198 0.148-0.368 0.318-0.511 0.509l-0.005 0.007zM23 11.5c0 0.276 0.224 0.5 0.5 0.5v0c0.828 0 1.5 0.672 1.5 1.5v0c0 0.276 0.224 0.5 0.5 0.5s0.5-0.224 0.5-0.5v0c0-0.828 0.672-1.5 1.5-1.5v0c0.276 0 0.5-0.224 0.5-0.5s-0.224-0.5-0.5-0.5v0c-0.828 0-1.5-0.672-1.5-1.5v0c0-0.276-0.224-0.5-0.5-0.5s-0.5 0.224-0.5 0.5v0c0 0.828-0.672 1.5-1.5 1.5v0c-0.276 0-0.5 0.224-0.5 0.5v0zM25.5 10.985c0.148 0.198 0.318 0.368 0.509 0.511l0.006 0.005c-0.198 0.148-0.368 0.318-0.511 0.509l-0.005 0.007c-0.148-0.198-0.318-0.368-0.509-0.511l-0.006-0.005c0.198-0.148 0.368-0.318 0.511-0.509l0.005-0.007z"></path>
    </symbol>
    <symbol id="icon-player" viewBox="0 0 32 32">
      <path d="M4 25.952v-20.704c0-2.24 2.368-3.68 4.352-2.656l20.064 10.336c2.144 1.12 2.144 4.192 0 5.28l-20.064 10.368c-1.984 1.024-4.352-0.416-4.352-2.624z"></path>
    </symbol>
    <symbol id="icon-arrow-down" viewBox="0 0 32 32">
      <path fill-rule="nonzero" d="M7.5 9.066L2.12 4.284a1.12 1.12 0 0 0-1.49 0c-.44.39-.44.997 0 1.388l6.125 5.444c.198.176.5.284.745.284.301 0 .526-.089.745-.284l6.125-5.444c.225-.2.33-.41.33-.694s-.105-.495-.33-.694a1.12 1.12 0 0 0-1.49 0L7.5 9.066z"></path>
    </symbol>
  </defs>
</svg>